<?xml version="1.0" encoding="utf-8" standalone="no"?>
<!DOCTYPE svg PUBLIC "-//W3C//DTD SVG 1.1//EN"
  "http://www.w3.org/Graphics/SVG/1.1/DTD/svg11.dtd">
<!-- Created with matplotlib (https://matplotlib.org/) -->
<svg height="576pt" version="1.1" viewBox="0 0 576 576" width="576pt" xmlns="http://www.w3.org/2000/svg" xmlns:xlink="http://www.w3.org/1999/xlink">
 <metadata>
  <rdf:RDF xmlns:cc="http://creativecommons.org/ns#" xmlns:dc="http://purl.org/dc/elements/1.1/" xmlns:rdf="http://www.w3.org/1999/02/22-rdf-syntax-ns#">
   <cc:Work>
    <dc:type rdf:resource="http://purl.org/dc/dcmitype/StillImage"/>
    <dc:date>2021-03-20T18:14:41.569777</dc:date>
    <dc:format>image/svg+xml</dc:format>
    <dc:creator>
     <cc:Agent>
      <dc:title>Matplotlib v3.3.3, https://matplotlib.org/</dc:title>
     </cc:Agent>
    </dc:creator>
   </cc:Work>
  </rdf:RDF>
 </metadata>
 <defs>
  <style type="text/css">*{stroke-linecap:butt;stroke-linejoin:round;}</style>
 </defs>
 <g id="figure_1">
  <g id="patch_1">
   <path d="M 0 576 
L 576 576 
L 576 0 
L 0 0 
z
" style="fill:#ffffff;"/>
  </g>
  <g id="axes_1">
   <g id="patch_2">
    <path d="M 72 512.64 
L 518.4 512.64 
L 518.4 69.12 
L 72 69.12 
z
" style="fill:#eaeaf2;"/>
   </g>
   <g id="matplotlib.axis_1">
    <g id="xtick_1">
     <g id="line2d_1">
      <path clip-path="url(#peeb87f83e6)" d="M 92.290909 512.64 
L 92.290909 69.12 
" style="fill:none;stroke:#ffffff;stroke-linecap:round;"/>
     </g>
     <g id="text_1">
      <!-- 0 -->
      <g style="fill:#262626;" transform="translate(88.791534 530.498281)scale(0.11 -0.11)">
       <defs>
        <path d="M 31.78125 66.40625 
Q 24.171875 66.40625 20.328125 58.90625 
Q 16.5 51.421875 16.5 36.375 
Q 16.5 21.390625 20.328125 13.890625 
Q 24.171875 6.390625 31.78125 6.390625 
Q 39.453125 6.390625 43.28125 13.890625 
Q 47.125 21.390625 47.125 36.375 
Q 47.125 51.421875 43.28125 58.90625 
Q 39.453125 66.40625 31.78125 66.40625 
z
M 31.78125 74.21875 
Q 44.046875 74.21875 50.515625 64.515625 
Q 56.984375 54.828125 56.984375 36.375 
Q 56.984375 17.96875 50.515625 8.265625 
Q 44.046875 -1.421875 31.78125 -1.421875 
Q 19.53125 -1.421875 13.0625 8.265625 
Q 6.59375 17.96875 6.59375 36.375 
Q 6.59375 54.828125 13.0625 64.515625 
Q 19.53125 74.21875 31.78125 74.21875 
z
" id="DejaVuSans-48"/>
       </defs>
       <use xlink:href="#DejaVuSans-48"/>
      </g>
     </g>
    </g>
    <g id="xtick_2">
     <g id="line2d_2">
      <path clip-path="url(#peeb87f83e6)" d="M 173.462663 512.64 
L 173.462663 69.12 
" style="fill:none;stroke:#ffffff;stroke-linecap:round;"/>
     </g>
     <g id="text_2">
      <!-- 2000 -->
      <g style="fill:#262626;" transform="translate(159.465163 530.498281)scale(0.11 -0.11)">
       <defs>
        <path d="M 19.1875 8.296875 
L 53.609375 8.296875 
L 53.609375 0 
L 7.328125 0 
L 7.328125 8.296875 
Q 12.9375 14.109375 22.625 23.890625 
Q 32.328125 33.6875 34.8125 36.53125 
Q 39.546875 41.84375 41.421875 45.53125 
Q 43.3125 49.21875 43.3125 52.78125 
Q 43.3125 58.59375 39.234375 62.25 
Q 35.15625 65.921875 28.609375 65.921875 
Q 23.96875 65.921875 18.8125 64.3125 
Q 13.671875 62.703125 7.8125 59.421875 
L 7.8125 69.390625 
Q 13.765625 71.78125 18.9375 73 
Q 24.125 74.21875 28.421875 74.21875 
Q 39.75 74.21875 46.484375 68.546875 
Q 53.21875 62.890625 53.21875 53.421875 
Q 53.21875 48.921875 51.53125 44.890625 
Q 49.859375 40.875 45.40625 35.40625 
Q 44.1875 33.984375 37.640625 27.21875 
Q 31.109375 20.453125 19.1875 8.296875 
z
" id="DejaVuSans-50"/>
       </defs>
       <use xlink:href="#DejaVuSans-50"/>
       <use x="63.623047" xlink:href="#DejaVuSans-48"/>
       <use x="127.246094" xlink:href="#DejaVuSans-48"/>
       <use x="190.869141" xlink:href="#DejaVuSans-48"/>
      </g>
     </g>
    </g>
    <g id="xtick_3">
     <g id="line2d_3">
      <path clip-path="url(#peeb87f83e6)" d="M 254.634416 512.64 
L 254.634416 69.12 
" style="fill:none;stroke:#ffffff;stroke-linecap:round;"/>
     </g>
     <g id="text_3">
      <!-- 4000 -->
      <g style="fill:#262626;" transform="translate(240.636916 530.498281)scale(0.11 -0.11)">
       <defs>
        <path d="M 37.796875 64.3125 
L 12.890625 25.390625 
L 37.796875 25.390625 
z
M 35.203125 72.90625 
L 47.609375 72.90625 
L 47.609375 25.390625 
L 58.015625 25.390625 
L 58.015625 17.1875 
L 47.609375 17.1875 
L 47.609375 0 
L 37.796875 0 
L 37.796875 17.1875 
L 4.890625 17.1875 
L 4.890625 26.703125 
z
" id="DejaVuSans-52"/>
       </defs>
       <use xlink:href="#DejaVuSans-52"/>
       <use x="63.623047" xlink:href="#DejaVuSans-48"/>
       <use x="127.246094" xlink:href="#DejaVuSans-48"/>
       <use x="190.869141" xlink:href="#DejaVuSans-48"/>
      </g>
     </g>
    </g>
    <g id="xtick_4">
     <g id="line2d_4">
      <path clip-path="url(#peeb87f83e6)" d="M 335.80617 512.64 
L 335.80617 69.12 
" style="fill:none;stroke:#ffffff;stroke-linecap:round;"/>
     </g>
     <g id="text_4">
      <!-- 6000 -->
      <g style="fill:#262626;" transform="translate(321.80867 530.498281)scale(0.11 -0.11)">
       <defs>
        <path d="M 33.015625 40.375 
Q 26.375 40.375 22.484375 35.828125 
Q 18.609375 31.296875 18.609375 23.390625 
Q 18.609375 15.53125 22.484375 10.953125 
Q 26.375 6.390625 33.015625 6.390625 
Q 39.65625 6.390625 43.53125 10.953125 
Q 47.40625 15.53125 47.40625 23.390625 
Q 47.40625 31.296875 43.53125 35.828125 
Q 39.65625 40.375 33.015625 40.375 
z
M 52.59375 71.296875 
L 52.59375 62.3125 
Q 48.875 64.0625 45.09375 64.984375 
Q 41.3125 65.921875 37.59375 65.921875 
Q 27.828125 65.921875 22.671875 59.328125 
Q 17.53125 52.734375 16.796875 39.40625 
Q 19.671875 43.65625 24.015625 45.921875 
Q 28.375 48.1875 33.59375 48.1875 
Q 44.578125 48.1875 50.953125 41.515625 
Q 57.328125 34.859375 57.328125 23.390625 
Q 57.328125 12.15625 50.6875 5.359375 
Q 44.046875 -1.421875 33.015625 -1.421875 
Q 20.359375 -1.421875 13.671875 8.265625 
Q 6.984375 17.96875 6.984375 36.375 
Q 6.984375 53.65625 15.1875 63.9375 
Q 23.390625 74.21875 37.203125 74.21875 
Q 40.921875 74.21875 44.703125 73.484375 
Q 48.484375 72.75 52.59375 71.296875 
z
" id="DejaVuSans-54"/>
       </defs>
       <use xlink:href="#DejaVuSans-54"/>
       <use x="63.623047" xlink:href="#DejaVuSans-48"/>
       <use x="127.246094" xlink:href="#DejaVuSans-48"/>
       <use x="190.869141" xlink:href="#DejaVuSans-48"/>
      </g>
     </g>
    </g>
    <g id="xtick_5">
     <g id="line2d_5">
      <path clip-path="url(#peeb87f83e6)" d="M 416.977923 512.64 
L 416.977923 69.12 
" style="fill:none;stroke:#ffffff;stroke-linecap:round;"/>
     </g>
     <g id="text_5">
      <!-- 8000 -->
      <g style="fill:#262626;" transform="translate(402.980423 530.498281)scale(0.11 -0.11)">
       <defs>
        <path d="M 31.78125 34.625 
Q 24.75 34.625 20.71875 30.859375 
Q 16.703125 27.09375 16.703125 20.515625 
Q 16.703125 13.921875 20.71875 10.15625 
Q 24.75 6.390625 31.78125 6.390625 
Q 38.8125 6.390625 42.859375 10.171875 
Q 46.921875 13.96875 46.921875 20.515625 
Q 46.921875 27.09375 42.890625 30.859375 
Q 38.875 34.625 31.78125 34.625 
z
M 21.921875 38.8125 
Q 15.578125 40.375 12.03125 44.71875 
Q 8.5 49.078125 8.5 55.328125 
Q 8.5 64.0625 14.71875 69.140625 
Q 20.953125 74.21875 31.78125 74.21875 
Q 42.671875 74.21875 48.875 69.140625 
Q 55.078125 64.0625 55.078125 55.328125 
Q 55.078125 49.078125 51.53125 44.71875 
Q 48 40.375 41.703125 38.8125 
Q 48.828125 37.15625 52.796875 32.3125 
Q 56.78125 27.484375 56.78125 20.515625 
Q 56.78125 9.90625 50.3125 4.234375 
Q 43.84375 -1.421875 31.78125 -1.421875 
Q 19.734375 -1.421875 13.25 4.234375 
Q 6.78125 9.90625 6.78125 20.515625 
Q 6.78125 27.484375 10.78125 32.3125 
Q 14.796875 37.15625 21.921875 38.8125 
z
M 18.3125 54.390625 
Q 18.3125 48.734375 21.84375 45.5625 
Q 25.390625 42.390625 31.78125 42.390625 
Q 38.140625 42.390625 41.71875 45.5625 
Q 45.3125 48.734375 45.3125 54.390625 
Q 45.3125 60.0625 41.71875 63.234375 
Q 38.140625 66.40625 31.78125 66.40625 
Q 25.390625 66.40625 21.84375 63.234375 
Q 18.3125 60.0625 18.3125 54.390625 
z
" id="DejaVuSans-56"/>
       </defs>
       <use xlink:href="#DejaVuSans-56"/>
       <use x="63.623047" xlink:href="#DejaVuSans-48"/>
       <use x="127.246094" xlink:href="#DejaVuSans-48"/>
       <use x="190.869141" xlink:href="#DejaVuSans-48"/>
      </g>
     </g>
    </g>
    <g id="xtick_6">
     <g id="line2d_6">
      <path clip-path="url(#peeb87f83e6)" d="M 498.149677 512.64 
L 498.149677 69.12 
" style="fill:none;stroke:#ffffff;stroke-linecap:round;"/>
     </g>
     <g id="text_6">
      <!-- 10000 -->
      <g style="fill:#262626;" transform="translate(480.652802 530.498281)scale(0.11 -0.11)">
       <defs>
        <path d="M 12.40625 8.296875 
L 28.515625 8.296875 
L 28.515625 63.921875 
L 10.984375 60.40625 
L 10.984375 69.390625 
L 28.421875 72.90625 
L 38.28125 72.90625 
L 38.28125 8.296875 
L 54.390625 8.296875 
L 54.390625 0 
L 12.40625 0 
z
" id="DejaVuSans-49"/>
       </defs>
       <use xlink:href="#DejaVuSans-49"/>
       <use x="63.623047" xlink:href="#DejaVuSans-48"/>
       <use x="127.246094" xlink:href="#DejaVuSans-48"/>
       <use x="190.869141" xlink:href="#DejaVuSans-48"/>
       <use x="254.492188" xlink:href="#DejaVuSans-48"/>
      </g>
     </g>
    </g>
    <g id="text_7">
     <!-- $t$ -->
     <g style="fill:#262626;" transform="translate(292.8 545.904063)scale(0.12 -0.12)">
      <defs>
       <path d="M 42.28125 54.6875 
L 40.921875 47.703125 
L 23 47.703125 
L 17.1875 18.015625 
Q 16.890625 16.359375 16.75 15.234375 
Q 16.609375 14.109375 16.609375 13.484375 
Q 16.609375 10.359375 18.484375 8.9375 
Q 20.359375 7.515625 24.515625 7.515625 
L 33.59375 7.515625 
L 32.078125 0 
L 23.484375 0 
Q 15.484375 0 11.546875 3.125 
Q 7.625 6.25 7.625 12.59375 
Q 7.625 13.71875 7.765625 15.0625 
Q 7.90625 16.40625 8.203125 18.015625 
L 14.015625 47.703125 
L 6.390625 47.703125 
L 7.8125 54.6875 
L 15.28125 54.6875 
L 18.3125 70.21875 
L 27.296875 70.21875 
L 24.3125 54.6875 
z
" id="DejaVuSans-Oblique-116"/>
      </defs>
      <use transform="translate(0 0.78125)" xlink:href="#DejaVuSans-Oblique-116"/>
     </g>
    </g>
   </g>
   <g id="matplotlib.axis_2">
    <g id="ytick_1">
     <g id="line2d_7">
      <path clip-path="url(#peeb87f83e6)" d="M 72 492.480011 
L 518.4 492.480011 
" style="fill:none;stroke:#ffffff;stroke-linecap:round;"/>
     </g>
     <g id="text_8">
      <!-- 0.0 -->
      <g style="fill:#262626;" transform="translate(45.006563 496.659152)scale(0.11 -0.11)">
       <defs>
        <path d="M 10.6875 12.40625 
L 21 12.40625 
L 21 0 
L 10.6875 0 
z
" id="DejaVuSans-46"/>
       </defs>
       <use xlink:href="#DejaVuSans-48"/>
       <use x="63.623047" xlink:href="#DejaVuSans-46"/>
       <use x="95.410156" xlink:href="#DejaVuSans-48"/>
      </g>
     </g>
    </g>
    <g id="ytick_2">
     <g id="line2d_8">
      <path clip-path="url(#peeb87f83e6)" d="M 72 414.569855 
L 518.4 414.569855 
" style="fill:none;stroke:#ffffff;stroke-linecap:round;"/>
     </g>
     <g id="text_9">
      <!-- 0.5 -->
      <g style="fill:#262626;" transform="translate(45.006563 418.748995)scale(0.11 -0.11)">
       <defs>
        <path d="M 10.796875 72.90625 
L 49.515625 72.90625 
L 49.515625 64.59375 
L 19.828125 64.59375 
L 19.828125 46.734375 
Q 21.96875 47.46875 24.109375 47.828125 
Q 26.265625 48.1875 28.421875 48.1875 
Q 40.625 48.1875 47.75 41.5 
Q 54.890625 34.8125 54.890625 23.390625 
Q 54.890625 11.625 47.5625 5.09375 
Q 40.234375 -1.421875 26.90625 -1.421875 
Q 22.3125 -1.421875 17.546875 -0.640625 
Q 12.796875 0.140625 7.71875 1.703125 
L 7.71875 11.625 
Q 12.109375 9.234375 16.796875 8.0625 
Q 21.484375 6.890625 26.703125 6.890625 
Q 35.15625 6.890625 40.078125 11.328125 
Q 45.015625 15.765625 45.015625 23.390625 
Q 45.015625 31 40.078125 35.4375 
Q 35.15625 39.890625 26.703125 39.890625 
Q 22.75 39.890625 18.8125 39.015625 
Q 14.890625 38.140625 10.796875 36.28125 
z
" id="DejaVuSans-53"/>
       </defs>
       <use xlink:href="#DejaVuSans-48"/>
       <use x="63.623047" xlink:href="#DejaVuSans-46"/>
       <use x="95.410156" xlink:href="#DejaVuSans-53"/>
      </g>
     </g>
    </g>
    <g id="ytick_3">
     <g id="line2d_9">
      <path clip-path="url(#peeb87f83e6)" d="M 72 336.659698 
L 518.4 336.659698 
" style="fill:none;stroke:#ffffff;stroke-linecap:round;"/>
     </g>
     <g id="text_10">
      <!-- 1.0 -->
      <g style="fill:#262626;" transform="translate(45.006563 340.838839)scale(0.11 -0.11)">
       <use xlink:href="#DejaVuSans-49"/>
       <use x="63.623047" xlink:href="#DejaVuSans-46"/>
       <use x="95.410156" xlink:href="#DejaVuSans-48"/>
      </g>
     </g>
    </g>
    <g id="ytick_4">
     <g id="line2d_10">
      <path clip-path="url(#peeb87f83e6)" d="M 72 258.749541 
L 518.4 258.749541 
" style="fill:none;stroke:#ffffff;stroke-linecap:round;"/>
     </g>
     <g id="text_11">
      <!-- 1.5 -->
      <g style="fill:#262626;" transform="translate(45.006563 262.928682)scale(0.11 -0.11)">
       <use xlink:href="#DejaVuSans-49"/>
       <use x="63.623047" xlink:href="#DejaVuSans-46"/>
       <use x="95.410156" xlink:href="#DejaVuSans-53"/>
      </g>
     </g>
    </g>
    <g id="ytick_5">
     <g id="line2d_11">
      <path clip-path="url(#peeb87f83e6)" d="M 72 180.839385 
L 518.4 180.839385 
" style="fill:none;stroke:#ffffff;stroke-linecap:round;"/>
     </g>
     <g id="text_12">
      <!-- 2.0 -->
      <g style="fill:#262626;" transform="translate(45.006563 185.018525)scale(0.11 -0.11)">
       <use xlink:href="#DejaVuSans-50"/>
       <use x="63.623047" xlink:href="#DejaVuSans-46"/>
       <use x="95.410156" xlink:href="#DejaVuSans-48"/>
      </g>
     </g>
    </g>
    <g id="ytick_6">
     <g id="line2d_12">
      <path clip-path="url(#peeb87f83e6)" d="M 72 102.929228 
L 518.4 102.929228 
" style="fill:none;stroke:#ffffff;stroke-linecap:round;"/>
     </g>
     <g id="text_13">
      <!-- 2.5 -->
      <g style="fill:#262626;" transform="translate(45.006563 107.108369)scale(0.11 -0.11)">
       <use xlink:href="#DejaVuSans-50"/>
       <use x="63.623047" xlink:href="#DejaVuSans-46"/>
       <use x="95.410156" xlink:href="#DejaVuSans-53"/>
      </g>
     </g>
    </g>
    <g id="text_14">
     <!-- $&lt;r^2(t)&gt;$ -->
     <g style="fill:#262626;" transform="translate(38.510937 318.24)rotate(-90)scale(0.12 -0.12)">
      <defs>
       <path d="M 73.1875 49.21875 
L 22.796875 31.296875 
L 73.1875 13.484375 
L 73.1875 4.59375 
L 10.59375 27.296875 
L 10.59375 35.40625 
L 73.1875 58.109375 
z
" id="DejaVuSans-60"/>
       <path d="M 44.578125 46.390625 
Q 43.21875 47.125 41.453125 47.515625 
Q 39.703125 47.90625 37.703125 47.90625 
Q 30.515625 47.90625 25.140625 42.453125 
Q 19.78125 37.015625 18.015625 27.875 
L 12.5 0 
L 3.515625 0 
L 14.203125 54.6875 
L 23.1875 54.6875 
L 21.484375 46.1875 
Q 25.046875 50.921875 30 53.453125 
Q 34.96875 56 40.578125 56 
Q 42.046875 56 43.453125 55.828125 
Q 44.875 55.671875 46.296875 55.28125 
z
" id="DejaVuSans-Oblique-114"/>
       <path d="M 31 75.875 
Q 24.46875 64.65625 21.28125 53.65625 
Q 18.109375 42.671875 18.109375 31.390625 
Q 18.109375 20.125 21.3125 9.0625 
Q 24.515625 -2 31 -13.1875 
L 23.1875 -13.1875 
Q 15.875 -1.703125 12.234375 9.375 
Q 8.59375 20.453125 8.59375 31.390625 
Q 8.59375 42.28125 12.203125 53.3125 
Q 15.828125 64.359375 23.1875 75.875 
z
" id="DejaVuSans-40"/>
       <path d="M 8.015625 75.875 
L 15.828125 75.875 
Q 23.140625 64.359375 26.78125 53.3125 
Q 30.421875 42.28125 30.421875 31.390625 
Q 30.421875 20.453125 26.78125 9.375 
Q 23.140625 -1.703125 15.828125 -13.1875 
L 8.015625 -13.1875 
Q 14.5 -2 17.703125 9.0625 
Q 20.90625 20.125 20.90625 31.390625 
Q 20.90625 42.671875 17.703125 53.65625 
Q 14.5 64.65625 8.015625 75.875 
z
" id="DejaVuSans-41"/>
       <path d="M 10.59375 49.21875 
L 10.59375 58.109375 
L 73.1875 35.40625 
L 73.1875 27.296875 
L 10.59375 4.59375 
L 10.59375 13.484375 
L 60.890625 31.296875 
z
" id="DejaVuSans-62"/>
      </defs>
      <use transform="translate(19.482422 0.765625)" xlink:href="#DejaVuSans-60"/>
      <use transform="translate(122.753906 0.765625)" xlink:href="#DejaVuSans-Oblique-114"/>
      <use transform="translate(168.517083 39.046875)scale(0.7)" xlink:href="#DejaVuSans-50"/>
      <use transform="translate(215.787591 0.765625)" xlink:href="#DejaVuSans-40"/>
      <use transform="translate(254.801263 0.765625)" xlink:href="#DejaVuSans-Oblique-116"/>
      <use transform="translate(294.010247 0.765625)" xlink:href="#DejaVuSans-41"/>
      <use transform="translate(352.506341 0.765625)" xlink:href="#DejaVuSans-62"/>
     </g>
    </g>
    <g id="text_15">
     <!-- 1e7 -->
     <g style="fill:#262626;" transform="translate(72 66.12)scale(0.11 -0.11)">
      <defs>
       <path d="M 56.203125 29.59375 
L 56.203125 25.203125 
L 14.890625 25.203125 
Q 15.484375 15.921875 20.484375 11.0625 
Q 25.484375 6.203125 34.421875 6.203125 
Q 39.59375 6.203125 44.453125 7.46875 
Q 49.3125 8.734375 54.109375 11.28125 
L 54.109375 2.78125 
Q 49.265625 0.734375 44.1875 -0.34375 
Q 39.109375 -1.421875 33.890625 -1.421875 
Q 20.796875 -1.421875 13.15625 6.1875 
Q 5.515625 13.8125 5.515625 26.8125 
Q 5.515625 40.234375 12.765625 48.109375 
Q 20.015625 56 32.328125 56 
Q 43.359375 56 49.78125 48.890625 
Q 56.203125 41.796875 56.203125 29.59375 
z
M 47.21875 32.234375 
Q 47.125 39.59375 43.09375 43.984375 
Q 39.0625 48.390625 32.421875 48.390625 
Q 24.90625 48.390625 20.390625 44.140625 
Q 15.875 39.890625 15.1875 32.171875 
z
" id="DejaVuSans-101"/>
       <path d="M 8.203125 72.90625 
L 55.078125 72.90625 
L 55.078125 68.703125 
L 28.609375 0 
L 18.3125 0 
L 43.21875 64.59375 
L 8.203125 64.59375 
z
" id="DejaVuSans-55"/>
      </defs>
      <use xlink:href="#DejaVuSans-49"/>
      <use x="63.623047" xlink:href="#DejaVuSans-101"/>
      <use x="125.146484" xlink:href="#DejaVuSans-55"/>
     </g>
    </g>
   </g>
   <g id="line2d_13">
    <path clip-path="url(#peeb87f83e6)" d="M 92.290909 492.48 
L 97.607659 492.371347 
L 99.109336 492.314287 
L 100.773357 492.242445 
L 104.101399 492.079079 
L 110.229867 491.523579 
L 110.960412 491.423572 
L 112.543262 491.251522 
L 112.94912 491.185117 
L 113.963767 491.071973 
L 114.288454 491.03366 
L 114.653727 490.982506 
L 120.132821 490.352513 
L 122.243286 489.970343 
L 123.623206 489.858262 
L 124.029065 489.749554 
L 124.840782 489.612043 
L 125.368399 489.465398 
L 128.20941 489.094305 
L 128.452925 489.07657 
L 129.345815 488.938271 
L 129.548744 488.826855 
L 130.07636 488.718931 
L 130.76632 488.614555 
L 136.975959 487.606852 
L 137.178889 487.524288 
L 137.422404 487.412779 
L 139.451698 486.814744 
L 139.735799 486.688915 
L 140.304001 486.558663 
L 141.562163 486.073895 
L 141.765093 486.121722 
L 142.57681 486.037004 
L 142.698568 485.918034 
L 143.145013 485.890919 
L 143.429114 485.855865 
L 143.753801 485.881276 
L 143.997316 485.786789 
L 147.447116 485.075959 
L 147.731217 485.06629 
L 147.934146 484.918367 
L 148.421177 484.839233 
L 148.624106 484.766417 
L 148.745864 484.700149 
L 148.908207 484.711497 
L 149.679339 484.607012 
L 149.96344 484.506012 
L 151.586875 484.157659 
L 151.749219 484.062263 
L 152.479764 483.786869 
L 153.169724 483.703971 
L 153.372654 483.597356 
L 154.103199 483.464673 
L 154.265543 483.44659 
L 154.996089 483.260703 
L 155.239604 483.096791 
L 155.604877 482.995985 
L 155.807806 482.812456 
L 156.173079 482.719933 
L 156.335423 482.683241 
L 159.298192 481.598176 
L 159.460535 481.346266 
L 159.501121 481.38753 
L 159.90698 481.248476 
L 160.109909 481.175937 
L 160.515768 481.082877 
L 161.489829 480.693088 
L 161.936274 480.547516 
L 162.098617 480.450589 
L 162.626234 480.239122 
L 162.869749 480.330373 
L 163.113264 480.222821 
L 163.762638 480.116024 
L 164.046739 480.044522 
L 164.574356 479.76871 
L 164.817871 479.59165 
L 165.670174 479.25233 
L 165.832518 479.045345 
L 166.035447 479.059004 
L 166.603649 478.867074 
L 167.050094 478.697121 
L 167.78064 478.408711 
L 170.378136 477.755273 
L 172.40743 476.670229 
L 172.569773 476.597672 
L 173.340905 476.401419 
L 174.558481 475.889316 
L 174.720825 475.789658 
L 175.126684 475.610139 
L 175.248441 475.520713 
L 175.370199 475.575581 
L 175.532542 475.327632 
L 176.060159 475.123338 
L 176.303674 475.020783 
L 176.466018 474.88257 
L 176.750119 474.807988 
L 177.03422 474.549371 
L 177.155977 474.569339 
L 177.277735 474.538809 
L 177.440079 474.322184 
L 177.683594 474.329838 
L 177.805351 474.304395 
L 177.967695 474.130807 
L 178.089453 474.1109 
L 178.130038 474.032003 
L 178.21121 474.091415 
L 178.454725 473.933487 
L 178.779412 473.723944 
L 178.982342 473.727181 
L 179.307029 473.631862 
L 179.509958 473.396705 
L 179.631716 473.374984 
L 179.834645 473.19783 
L 180.159332 472.981434 
L 180.240504 472.906947 
L 180.28109 472.999117 
L 180.646363 472.875581 
L 181.052222 472.605437 
L 181.255151 472.500313 
L 181.985697 472.360053 
L 183.000344 471.91336 
L 183.162687 471.793649 
L 183.284445 471.817306 
L 183.730889 471.644226 
L 183.852647 471.656069 
L 185.232567 471.086114 
L 185.516668 471.028396 
L 185.679012 470.893073 
L 185.841355 470.774751 
L 186.003699 470.685027 
L 186.125456 470.641857 
L 186.2878 470.53499 
L 186.571901 470.553302 
L 186.734244 470.460321 
L 186.896588 470.349732 
L 186.937174 470.339101 
L 187.058931 470.168155 
L 187.180689 470.272867 
L 187.545962 470.109098 
L 187.708305 470.080492 
L 187.951821 469.985632 
L 188.15475 469.79416 
L 188.520023 469.725191 
L 188.682366 469.486082 
L 188.925882 469.345265 
L 189.088225 469.21385 
L 189.615842 468.933077 
L 189.778185 468.924257 
L 192.050994 467.918115 
L 192.294509 467.837753 
L 192.862712 467.58135 
L 193.106227 467.173619 
L 193.95853 466.567874 
L 194.242632 466.438453 
L 194.689076 466.199588 
L 194.85142 466.14408 
L 195.054349 466.048341 
L 195.33845 465.849537 
L 195.987824 465.715978 
L 197.773603 464.851239 
L 198.220047 464.542329 
L 198.341805 464.48127 
L 198.544734 464.179351 
L 198.58532 464.206765 
L 198.707078 464.101315 
L 198.78825 463.936864 
L 198.828836 463.982842 
L 198.910007 463.940727 
L 199.27528 463.752561 
L 199.437624 463.771734 
L 199.721725 463.674747 
L 200.086998 463.428023 
L 200.249341 463.319613 
L 200.492857 463.18807 
L 200.695786 462.977485 
L 201.182816 462.930513 
L 201.304574 462.884989 
L 201.385746 463.234039 
L 201.426332 463.065459 
L 201.872776 462.96458 
L 202.03512 462.692609 
L 202.846837 462.370545 
L 204.226757 461.536974 
L 204.429687 461.478926 
L 204.713788 461.341728 
L 205.079061 461.30817 
L 205.241404 461.246793 
L 205.363162 461.241701 
L 205.566091 461.070761 
L 205.647263 461.102835 
L 205.890778 460.881784 
L 206.499566 460.620532 
L 207.14894 460.177555 
L 207.270698 460.131985 
L 207.676557 459.940605 
L 207.757729 459.909703 
L 207.8389 459.705343 
L 207.879486 459.76818 
L 208.082416 459.69054 
L 208.244759 459.599356 
L 208.407103 459.509297 
L 208.650618 459.389639 
L 209.705851 459.008351 
L 209.787022 458.746291 
L 209.827608 458.756197 
L 210.192881 458.641063 
L 210.476982 458.524953 
L 211.532215 458.201073 
L 211.735144 458.126689 
L 212.181589 457.961026 
L 212.343933 457.888714 
L 212.546862 457.85233 
L 212.709205 457.846278 
L 213.115064 457.876183 
L 213.399165 457.591259 
L 213.602095 457.614623 
L 214.657328 456.952305 
L 214.779085 457.01389 
L 215.347287 456.573659 
L 215.590803 456.55663 
L 215.631389 456.746589 
L 215.71256 456.722808 
L 216.159005 456.4563 
L 216.443106 456.294431 
L 216.767793 455.99118 
L 217.173652 455.724717 
L 217.254824 455.498482 
L 217.29541 455.522832 
L 217.579511 455.314934 
L 217.620097 455.320382 
L 217.78244 455.099599 
L 219.64939 454.17379 
L 220.177007 453.939858 
L 220.379936 453.850286 
L 220.501694 453.807465 
L 220.664037 453.618431 
L 221.02931 453.404542 
L 221.151068 453.398528 
L 221.313411 453.343926 
L 221.597512 453.185439 
L 221.678684 453.229561 
L 221.962785 452.754691 
L 222.571574 452.422924 
L 222.693331 452.390956 
L 222.896261 452.159051 
L 223.018018 452.09738 
L 223.220948 451.9561 
L 224.073251 451.461239 
L 224.235594 451.338 
L 224.438524 451.141686 
L 224.600867 450.895309 
L 224.884968 450.789666 
L 225.087898 450.588422 
L 225.453171 450.489946 
L 225.818444 450.309834 
L 225.980787 450.149611 
L 226.102545 450.137482 
L 226.264888 450.023506 
L 226.427232 449.972864 
L 226.589575 449.841878 
L 226.792505 449.755722 
L 226.833091 449.907449 
L 226.873676 449.834196 
L 227.157778 449.499763 
L 227.401293 449.640389 
L 227.563636 449.322484 
L 227.604222 449.433618 
L 227.969495 449.158137 
L 228.091253 449.011842 
L 228.253596 449.031228 
L 228.578283 448.787057 
L 228.700041 448.580363 
L 229.146486 448.273674 
L 229.308829 448.089952 
L 229.552344 448.007518 
L 229.958203 447.937373 
L 230.161132 447.619397 
L 230.323476 447.60063 
L 230.485819 447.349212 
L 230.566991 447.288864 
L 230.729335 446.860355 
L 231.297537 446.521684 
L 231.459881 446.406409 
L 231.66281 446.130368 
L 231.987497 445.977325 
L 232.190426 445.883309 
L 232.393356 445.8202 
L 232.555699 445.720314 
L 232.920972 445.575691 
L 233.205073 445.454369 
L 233.408003 445.203439 
L 233.570346 445.170569 
L 233.73269 444.879371 
L 234.666165 444.323984 
L 234.990852 443.979629 
L 235.112609 443.989191 
L 235.356125 443.620604 
L 235.477882 443.553578 
L 235.640226 443.437945 
L 235.680812 443.423874 
L 235.843155 443.11156 
L 236.046085 443.034491 
L 236.249014 443.026321 
L 236.370772 442.844073 
L 236.736045 442.600333 
L 236.938974 442.367465 
L 237.020146 442.305454 
L 237.263661 442.011595 
L 237.426004 441.8986 
L 237.628934 441.628119 
L 237.750691 441.538084 
L 237.913035 441.428231 
L 238.034793 441.259717 
L 238.075378 441.289958 
L 238.237722 441.293743 
L 238.35948 441.273186 
L 238.684167 441.102958 
L 239.414712 440.406703 
L 239.617642 440.249497 
L 239.861157 440.069309 
L 240.064086 439.925403 
L 240.307602 439.761005 
L 240.388773 439.760707 
L 240.551117 439.499337 
L 240.835218 439.181113 
L 241.078733 438.972997 
L 241.119319 438.984681 
L 241.281663 438.760886 
L 241.60635 438.417403 
L 241.971623 438.121203 
L 242.052794 438.242712 
L 242.09338 438.217009 
L 242.377481 437.969655 
L 242.418067 437.953856 
L 242.499239 438.07148 
L 242.539825 437.974141 
L 242.702168 437.74387 
L 242.864512 437.675378 
L 243.310957 437.350453 
L 243.554472 437.333268 
L 243.919745 437.236221 
L 244.122674 437.134085 
L 244.366189 436.986809 
L 244.609705 436.814523 
L 244.893806 436.372647 
L 244.974977 436.261148 
L 245.949039 435.459637 
L 246.151968 435.114089 
L 247.572474 434.277457 
L 247.734817 433.970493 
L 248.505949 433.315884 
L 248.546535 433.391177 
L 248.627706 433.338872 
L 248.749464 433.114939 
L 248.871222 433.04294 
L 249.074151 432.868846 
L 249.317666 432.73601 
L 249.48001 432.421687 
L 249.561182 432.337812 
L 249.601767 432.372968 
L 249.764111 432.307238 
L 250.007626 432.025249 
L 250.210556 431.761615 
L 250.372899 431.788006 
L 250.494657 431.606193 
L 250.657 431.339082 
L 250.778758 431.455154 
L 250.981687 431.337841 
L 251.144031 431.558243 
L 251.265788 431.471019 
L 251.428132 431.453842 
L 251.54989 431.165187 
L 251.874577 430.964386 
L 251.955748 430.698157 
L 252.158678 430.474646 
L 252.402193 430.380158 
L 252.686294 430.147617 
L 252.767466 430.054312 
L 252.970395 429.872439 
L 253.173325 429.593426 
L 253.21391 429.788377 
L 253.41684 429.657357 
L 253.619769 429.429768 
L 254.1068 429.083475 
L 254.147386 429.190366 
L 254.228557 429.116206 
L 254.918517 428.394591 
L 255.527305 428.147144 
L 255.689649 427.981311 
L 255.770821 427.938445 
L 255.97375 427.709506 
L 256.054922 427.617798 
L 256.420195 427.312208 
L 256.582538 427.207534 
L 256.704296 427.0504 
L 256.866639 426.71168 
L 257.028983 426.658783 
L 257.191326 426.622779 
L 257.759529 426.404281 
L 257.881286 426.411769 
L 258.449489 425.404475 
L 258.693004 425.46344 
L 258.855347 425.192205 
L 259.42355 424.322607 
L 259.504721 424.306075 
L 259.667065 424.035797 
L 259.748237 423.994974 
L 260.11351 423.401102 
L 260.235267 423.436991 
L 260.397611 423.308727 
L 260.519368 423.224088 
L 260.681712 423.114046 
L 260.844055 423.147544 
L 261.168742 422.9042 
L 261.209328 422.997949 
L 261.331086 423.040259 
L 261.371672 423.137363 
L 261.452843 423.050929 
L 261.655773 422.636296 
L 261.899288 422.497625 
L 261.98046 422.416006 
L 262.021046 422.652407 
L 262.102217 422.61333 
L 262.264561 422.353019 
L 262.386319 422.225179 
L 263.319794 421.205763 
L 263.563309 420.977624 
L 263.928582 420.270501 
L 264.131511 419.808976 
L 264.293855 419.556094 
L 264.375027 419.627411 
L 264.496784 419.578942 
L 264.659128 419.471235 
L 264.699714 419.63625 
L 264.780885 419.519621 
L 264.983815 419.365433 
L 265.146158 419.42233 
L 265.267916 419.318754 
L 265.308502 419.395322 
L 265.389674 419.347199 
L 265.876704 418.813147 
L 266.039048 418.623514 
L 266.526078 418.441891 
L 266.729007 418.364797 
L 267.29721 418.15606 
L 267.581311 417.525702 
L 267.662483 417.512581 
L 267.905998 417.139889 
L 268.068341 417.105096 
L 268.149513 417.115439 
L 268.311857 416.921551 
L 268.393028 416.881063 
L 268.433614 416.95481 
L 268.555372 417.072243 
L 268.595958 417.039562 
L 268.839473 416.855427 
L 269.16416 416.642284 
L 269.326504 416.526141 
L 269.488847 416.345849 
L 269.772948 416.25685 
L 270.057049 415.711631 
L 270.097635 415.745036 
L 270.138221 415.640814 
L 270.219393 415.510821 
L 270.665837 414.994644 
L 270.747009 415.068721 
L 270.787595 414.968589 
L 270.909353 414.830395 
L 271.03111 414.342859 
L 271.193454 414.246445 
L 271.315212 413.901657 
L 271.436969 413.888303 
L 271.639899 413.584283 
L 271.842828 413.560467 
L 271.924 413.876083 
L 271.964586 413.855672 
L 272.329858 413.533298 
L 272.492202 413.448435 
L 272.816889 412.856336 
L 273.060404 412.826081 
L 273.141576 412.774663 
L 273.344505 412.386927 
L 273.425677 412.315945 
L 273.547435 411.910983 
L 274.48091 411.634295 
L 274.765011 411.175665 
L 275.049112 411.121683 
L 275.17087 411.082907 
L 275.454971 410.561617 
L 275.698486 410.370656 
L 275.901416 410.314883 
L 276.388446 409.774881 
L 276.55079 409.725262 
L 276.713133 409.674038 
L 276.875477 409.488349 
L 276.916063 409.540489 
L 277.078406 409.721881 
L 277.159578 409.567687 
L 277.808952 408.851868 
L 278.011881 408.615604 
L 278.295982 408.401971 
L 278.377154 408.487709 
L 278.41774 408.406712 
L 278.742427 408.316062 
L 279.351215 407.724 
L 279.432387 407.791364 
L 279.635316 407.56042 
L 279.675902 407.535965 
L 279.838246 407.282687 
L 279.960003 407.200791 
L 280.325276 406.734685 
L 280.812307 406.400585 
L 281.218165 405.806439 
L 281.989297 405.104147 
L 282.192226 404.879093 
L 282.598085 404.778106 
L 282.638671 404.687774 
L 282.679257 404.90615 
L 282.760429 404.880874 
L 282.922772 404.764824 
L 283.04453 404.630513 
L 283.206873 404.303917 
L 283.409803 404.026419 
L 283.572146 404.046795 
L 283.73449 403.807937 
L 283.775076 403.757719 
L 283.896833 403.475959 
L 284.22152 403.382542 
L 284.302692 403.271603 
L 284.343278 403.417669 
L 284.383864 403.356533 
L 284.586793 403.170357 
L 284.789723 402.964861 
L 284.992652 402.647129 
L 285.439097 402.223684 
L 285.60144 402.078961 
L 285.80437 401.929338 
L 285.844955 401.694673 
L 285.926127 401.732388 
L 287.306047 400.317269 
L 287.549562 399.956564 
L 287.67132 399.858757 
L 288.15835 399.199812 
L 288.320694 398.973905 
L 288.564209 398.768744 
L 289.457098 397.962004 
L 289.781785 397.55767 
L 289.822371 397.509646 
L 289.862957 397.669626 
L 289.903543 397.610346 
L 290.106472 397.351192 
L 290.147058 397.31752 
L 290.187644 397.125353 
L 290.268816 397.192874 
L 290.431159 397.071482 
L 291.039948 396.588574 
L 291.324049 396.588973 
L 291.486392 396.283303 
L 291.567564 396.317502 
L 291.770493 395.918895 
L 292.176352 395.379981 
L 292.419867 395.31677 
L 292.582211 395.189509 
L 292.622797 395.188187 
L 292.78514 394.961872 
L 293.150413 394.680672 
L 293.272171 394.684205 
L 293.4751 394.439589 
L 293.637444 394.347611 
L 293.799787 394.163489 
L 294.449161 392.947811 
L 294.489747 392.992815 
L 294.611505 392.942725 
L 294.895606 392.479311 
L 295.220293 392.32462 
L 295.54498 391.923209 
L 295.950839 391.672529 
L 296.316112 391.579069 
L 296.803142 390.895444 
L 297.006072 390.397582 
L 297.452516 388.648569 
L 297.533688 388.688175 
L 297.61486 388.71534 
L 297.655446 388.674185 
L 297.696031 388.643913 
L 297.858375 388.320282 
L 298.020718 388.140042 
L 298.385991 387.545209 
L 298.426577 387.622066 
L 298.467163 387.540659 
L 298.548335 387.417006 
L 299.035365 387.139184 
L 299.116537 387.099454 
L 299.157123 387.025248 
L 299.360052 386.218624 
L 299.684739 386.376017 
L 299.887669 386.24793 
L 300.050012 385.847443 
L 300.577629 385.228379 
L 300.699386 385.110391 
L 300.942902 384.679481 
L 300.983487 384.575416 
L 301.064659 384.653368 
L 301.186417 384.548981 
L 301.429932 384.245422 
L 301.673447 384.232722 
L 301.835791 384.068998 
L 301.876377 384.257178 
L 301.916963 384.192894 
L 302.079306 383.988201 
L 302.403993 383.990359 
L 302.647508 383.894847 
L 302.809852 383.643501 
L 303.093953 383.338243 
L 303.215711 383.094337 
L 303.459226 382.897391 
L 303.621569 382.743159 
L 303.865085 382.343981 
L 303.905671 382.340953 
L 304.027428 382.090721 
L 304.149186 382.036377 
L 304.230358 382.02309 
L 304.392701 381.836634 
L 304.473873 381.767154 
L 304.757974 381.332011 
L 304.79856 381.388627 
L 304.879732 381.323832 
L 304.960903 381.318935 
L 305.123247 380.678056 
L 305.610277 380.450177 
L 305.772621 380.077207 
L 306.219066 379.894493 
L 306.340823 379.624786 
L 306.381409 379.696754 
L 306.624924 379.505022 
L 306.787268 379.340991 
L 306.827854 379.33799 
L 306.949611 379.50408 
L 307.477228 379.072149 
L 307.639571 378.948792 
L 307.761329 378.882681 
L 307.923672 378.748701 
L 308.004844 378.744646 
L 308.04543 378.958978 
L 308.126602 378.839227 
L 308.288945 378.762371 
L 308.370117 378.779999 
L 308.532461 378.600415 
L 308.613632 378.630685 
L 308.816562 378.31004 
L 308.897733 378.231447 
L 309.019491 377.872352 
L 309.141249 377.930289 
L 309.344178 377.865905 
L 309.587693 377.346863 
L 309.750037 377.276401 
L 309.831209 377.06898 
L 309.91238 377.117492 
L 310.074724 376.938311 
L 310.237067 376.873469 
L 310.439997 376.381301 
L 310.561754 376.335358 
L 310.683512 376.506657 
L 310.967613 376.351831 
L 311.211128 376.208296 
L 311.251714 376.201342 
L 311.49523 375.766474 
L 311.616987 375.614508 
L 311.779331 375.156432 
L 311.901088 375.204788 
L 312.104018 375.142896 
L 312.469291 374.611838 
L 312.793978 374.008693 
L 312.956321 374.04375 
L 313.037493 373.959765 
L 313.15925 373.836851 
L 313.199836 373.877141 
L 313.36218 373.879784 
L 314.05214 373.429044 
L 314.255069 373.560994 
L 314.660928 373.412835 
L 314.701514 373.580583 
L 314.7421 373.497519 
L 314.945029 373.284869 
L 314.985615 373.491489 
L 315.066787 373.379106 
L 315.269716 373.236471 
L 315.43206 373.156172 
L 315.513231 373.100507 
L 315.756747 372.575441 
L 315.959676 372.482252 
L 316.040848 372.541441 
L 316.081434 372.602989 
L 316.243777 372.216232 
L 317.096081 371.71043 
L 317.29901 371.338704 
L 318.191899 370.590564 
L 318.354243 370.309713 
L 318.435414 370.315195 
L 318.597758 369.827885 
L 318.760101 369.734999 
L 319.044203 369.416581 
L 319.206546 368.90422 
L 319.247132 368.892366 
L 319.36889 368.642553 
L 319.531233 368.748246 
L 319.693577 368.666659 
L 319.734163 368.6674 
L 319.815334 368.457106 
L 319.85592 368.506568 
L 320.140021 368.13688 
L 320.870567 367.038683 
L 321.032911 367.075739 
L 321.195254 366.594909 
L 322.006972 366.599293 
L 322.088143 366.474802 
L 322.331659 365.715244 
L 322.575174 365.232691 
L 322.61576 365.230582 
L 322.778103 364.853498 
L 323.265134 364.54904 
L 323.711578 364.086882 
L 324.076851 363.589944 
L 324.158023 363.576092 
L 324.198609 363.845053 
L 324.279781 363.768955 
L 324.401538 363.80398 
L 324.888569 362.781995 
L 324.929155 362.800593 
L 325.050912 362.744926 
L 325.497357 361.878044 
L 325.537943 361.399637 
L 325.619115 361.502445 
L 325.740872 361.512425 
L 325.86263 361.369437 
L 325.903216 361.572479 
L 325.943802 361.44715 
L 326.146731 361.126162 
L 326.227903 361.201371 
L 326.390246 361.058965 
L 326.55259 360.932109 
L 326.593176 361.011146 
L 326.633762 360.988485 
L 326.836691 360.630325 
L 326.877277 360.605405 
L 326.917863 360.770846 
L 326.999034 360.668895 
L 327.080206 360.645449 
L 327.120792 360.723042 
L 327.24255 360.624341 
L 327.72958 359.988551 
L 327.891924 359.944654 
L 328.41954 358.943984 
L 328.581884 358.920109 
L 328.744227 358.719937 
L 328.947157 358.610817 
L 329.1095 358.318857 
L 329.434187 357.79106 
L 329.555945 357.845984 
L 329.79946 357.130268 
L 330.205319 356.902658 
L 330.245905 356.720119 
L 330.327076 356.769326 
L 330.408248 356.720346 
L 330.895279 355.669516 
L 332.112855 354.493066 
L 332.275198 354.338455 
L 332.599885 354.250653 
L 332.721643 353.931309 
L 332.762229 353.960799 
L 332.802815 353.896614 
L 332.965158 353.644649 
L 333.086916 353.538555 
L 333.168088 353.460755 
L 333.452189 353.260655 
L 333.695704 353.278297 
L 333.817462 353.159524 
L 333.939219 353.132246 
L 334.142149 352.838464 
L 334.223321 352.75309 
L 334.385664 352.388079 
L 334.42625 352.519562 
L 334.466836 352.315083 
L 334.548008 352.329524 
L 334.710351 352.024275 
L 334.91328 351.877159 
L 335.075624 351.68851 
L 335.60324 351.538824 
L 335.765584 351.095995 
L 336.009099 350.747315 
L 336.212028 350.283474 
L 336.49613 350.14507 
L 336.658473 349.837976 
L 336.820817 349.800364 
L 336.98316 349.223207 
L 337.064332 349.132389 
L 337.104918 349.077241 
L 337.267261 348.390035 
L 337.591948 347.774328 
L 337.67312 347.730084 
L 337.835464 347.485383 
L 338.119565 347.095798 
L 338.200736 347.083036 
L 338.484838 346.611827 
L 338.525423 346.891881 
L 338.606595 346.682037 
L 338.971868 345.826364 
L 339.05304 345.7431 
L 339.174797 345.244415 
L 339.296555 345.297747 
L 339.337141 345.247875 
L 339.54007 344.972589 
L 339.824172 344.890647 
L 339.945929 344.618613 
L 339.986515 344.627451 
L 340.148859 344.457311 
L 340.23003 344.419524 
L 340.43296 344.107063 
L 340.595303 344.191335 
L 340.838818 343.778955 
L 341.001162 343.47611 
L 341.244677 342.956727 
L 341.325849 342.994088 
L 343.030456 341.305447 
L 343.192799 341.153375 
L 343.395729 340.642364 
L 343.598658 340.457491 
L 343.67983 340.232039 
L 343.761002 340.282053 
L 344.735063 339.526819 
L 344.85682 339.335567 
L 344.897406 339.371857 
L 344.978578 339.263295 
L 345.222093 339.123588 
L 345.384437 338.844098 
L 345.425023 338.860791 
L 345.74971 338.33811 
L 345.790295 338.377728 
L 345.830881 338.476022 
L 345.912053 338.410143 
L 346.155568 337.859452 
L 346.439669 337.592922 
L 346.642599 337.127708 
L 347.048458 336.852513 
L 347.210801 336.512757 
L 347.373145 336.399928 
L 347.535488 336.180103 
L 347.779003 336.06873 
L 348.30662 335.48313 
L 348.347206 335.464263 
L 348.509549 334.301358 
L 348.712479 333.836088 
L 348.874822 333.740746 
L 349.240095 333.277121 
L 349.280681 333.337906 
L 349.361853 333.320756 
L 349.524196 332.891772 
L 349.848883 332.788648 
L 350.701186 330.664508 
L 350.822944 330.581349 
L 350.86353 330.567759 
L 351.147631 329.902314 
L 351.309975 329.67417 
L 351.472318 329.411015 
L 351.594076 329.213583 
L 351.797005 328.903253 
L 351.959349 328.86608 
L 352.202864 328.734952 
L 352.284036 328.669471 
L 352.446379 328.860082 
L 352.608723 328.368867 
L 352.649309 328.387031 
L 352.689894 328.263539 
L 352.771066 328.344264 
L 352.852238 328.328951 
L 352.973996 327.664326 
L 353.055167 327.719696 
L 353.095753 327.719719 
L 353.298683 327.361596 
L 353.501612 327.368012 
L 353.62337 327.173349 
L 353.704541 327.221949 
L 353.866885 327.169873 
L 354.150986 326.774683 
L 354.394501 326.344011 
L 354.638017 326.094915 
L 354.962704 325.115456 
L 355.003289 325.112336 
L 355.409148 324.147724 
L 355.693249 324.051914 
L 355.733835 324.033557 
L 355.815007 323.717297 
L 355.855593 323.96641 
L 355.97735 323.964726 
L 356.017936 323.957232 
L 356.220866 323.187799 
L 356.464381 322.767008 
L 356.626724 322.404644 
L 356.707896 322.285042 
L 356.951412 321.912545 
L 357.438442 321.351399 
L 357.519614 321.397922 
L 357.681957 320.900635 
L 357.763129 320.83604 
L 358.04723 320.434538 
L 358.493675 320.33158 
L 358.656018 319.999032 
L 358.777776 320.52759 
L 358.818362 320.314547 
L 359.061877 320.195709 
L 359.224221 320.017724 
L 359.264806 320.221983 
L 359.345978 320.196783 
L 359.548908 320.044385 
L 359.711251 319.478153 
L 359.792423 319.56426 
L 359.873595 319.387921 
L 359.914181 319.426222 
L 360.076524 319.38206 
L 360.11711 319.27366 
L 360.198282 319.341534 
L 360.360625 319.238958 
L 360.441797 319.094803 
L 360.482383 319.612841 
L 360.563555 319.554936 
L 360.766484 318.710454 
L 360.847656 318.737994 
L 360.969413 318.668451 
L 361.375272 318.013606 
L 361.537616 317.041195 
L 361.618787 316.959059 
L 361.98406 316.367937 
L 362.268161 316.2031 
L 362.430505 315.486559 
L 362.471091 315.564857 
L 362.511677 315.45323 
L 362.592848 315.402944 
L 362.836364 315.329057 
L 362.917535 315.232449 
L 363.079879 315.121676 
L 363.201637 315.12684 
L 363.404566 314.652806 
L 363.972768 313.716519 
L 364.135112 313.432785 
L 364.459799 313.318583 
L 364.581556 312.964485 
L 364.622142 313.036253 
L 364.784486 312.815829 
L 364.987415 312.012936 
L 365.149759 311.89611 
L 365.555617 311.601378 
L 365.677375 311.360838 
L 365.717961 311.420017 
L 365.839719 311.55005 
L 365.880304 311.470257 
L 365.92089 311.42524 
L 366.002062 311.068019 
L 366.083234 311.11111 
L 366.164406 310.801342 
L 366.570264 309.959782 
L 366.773194 309.877215 
L 366.854365 309.694355 
L 366.894951 309.752255 
L 367.016709 309.740085 
L 367.097881 309.60303 
L 367.422568 308.193329 
L 367.463154 308.399587 
L 367.544325 308.362412 
L 367.584911 308.278209 
L 367.625497 308.309921 
L 367.666083 308.38753 
L 367.706669 308.364654 
L 367.99077 307.524331 
L 368.031356 307.874867 
L 368.112528 307.790127 
L 368.153113 307.798733 
L 368.356043 307.120547 
L 368.396629 307.115413 
L 368.437215 307.246097 
L 368.477801 307.107137 
L 368.518386 307.104902 
L 368.558972 307.278713 
L 368.599558 307.226575 
L 368.802488 306.561089 
L 368.883659 306.679793 
L 368.924245 306.705897 
L 368.964831 306.617451 
L 369.614205 305.37956 
L 369.817134 304.704531 
L 370.101236 304.307799 
L 370.222993 303.739843 
L 370.263579 303.773192 
L 370.304165 303.760458 
L 370.466508 303.345618 
L 370.669438 303.229811 
L 370.912953 303.066528 
L 371.44057 302.239917 
L 371.684085 301.636744 
L 371.805842 301.625086 
L 371.846428 301.945332 
L 371.9276 301.906317 
L 372.049358 301.928595 
L 372.211701 301.489151 
L 372.455216 301.141021 
L 372.536388 301.180123 
L 372.698732 301.082201 
L 372.861075 300.837844 
L 373.064005 300.0734 
L 373.30752 299.55259 
L 373.429277 299.158577 
L 373.551035 299.115208 
L 373.632207 299.232038 
L 373.672793 299.183914 
L 373.753964 299.150103 
L 374.200409 298.32566 
L 374.443924 298.25335 
L 374.646854 298.012022 
L 375.215056 297.24777 
L 375.3774 297.014915 
L 375.417985 296.710593 
L 375.499157 296.809203 
L 375.620915 296.685676 
L 375.783258 296.262917 
L 375.86443 296.132874 
L 376.026774 295.850367 
L 376.067359 295.838992 
L 376.229703 295.644439 
L 376.351461 295.632674 
L 376.473218 295.499634 
L 376.513804 295.601948 
L 376.55439 295.448092 
L 376.797905 294.966561 
L 376.879077 294.814072 
L 377.041421 294.380748 
L 377.082006 294.425259 
L 377.24435 294.11302 
L 377.447279 293.629398 
L 377.487865 293.663066 
L 377.528451 293.561559 
L 378.015482 293.319217 
L 378.218411 292.876086 
L 378.502512 292.434306 
L 378.583684 292.470644 
L 378.746027 292.088776 
L 379.395401 291.518389 
L 379.435987 291.17602 
L 379.517159 291.349125 
L 380.00419 290.818335 
L 380.044775 290.875645 
L 380.207119 290.775387 
L 380.410048 290.10953 
L 380.450634 290.054543 
L 380.612978 289.620144 
L 380.897079 289.18083 
L 380.937665 289.158955 
L 381.100008 288.69366 
L 381.384109 288.25285 
L 381.424695 288.291242 
L 381.546453 288.569656 
L 381.627625 288.438004 
L 381.911726 286.983194 
L 382.033483 286.93318 
L 382.479928 286.408885 
L 382.723443 286.143568 
L 382.764029 286.226076 
L 382.804615 286.127776 
L 383.04813 285.605401 
L 383.291646 285.283405 
L 383.575747 284.695012 
L 383.656918 284.592096 
L 383.778676 284.483935 
L 383.819262 284.644567 
L 383.900434 284.583797 
L 384.265707 284.260228 
L 384.468636 283.726028 
L 384.671565 283.527847 
L 384.752737 283.433523 
L 384.874495 282.647077 
L 385.11801 282.19002 
L 385.199182 282.35993 
L 385.361525 282.058836 
L 386.538516 280.010092 
L 386.660273 279.625272 
L 386.863203 279.336483 
L 387.147304 278.681407 
L 387.269061 278.622908 
L 387.471991 278.145027 
L 387.634334 278.026543 
L 387.999607 276.630732 
L 388.121365 276.683013 
L 388.243122 276.624093 
L 388.283708 276.484564 
L 388.324294 276.516184 
L 388.36488 276.941656 
L 388.446052 276.640725 
L 388.851911 275.993932 
L 389.136012 275.120713 
L 389.217184 275.200818 
L 389.663628 274.924379 
L 389.825972 274.421811 
L 389.866558 274.565092 
L 389.907143 274.526286 
L 390.028901 274.473312 
L 390.23183 274.406833 
L 390.313002 274.29808 
L 390.353588 274.363072 
L 390.394174 274.364455 
L 390.597103 273.594404 
L 390.637689 273.511289 
L 390.678275 273.601466 
L 390.881204 273.544551 
L 391.408821 272.544378 
L 391.449407 272.604882 
L 391.774094 272.345588 
L 391.895851 272.051213 
L 391.977023 272.033822 
L 392.139367 271.656334 
L 392.179953 271.714769 
L 392.382882 271.474875 
L 392.585811 270.67495 
L 392.626397 270.920676 
L 392.707569 270.845234 
L 392.748155 270.884651 
L 392.788741 270.840644 
L 392.951084 270.360284 
L 393.154014 269.369688 
L 393.235185 269.255419 
L 393.438115 269.040428 
L 393.600458 269.006116 
L 393.641044 269.082694 
L 393.68163 269.004267 
L 393.843973 268.578312 
L 393.884559 268.584095 
L 393.965731 268.313322 
L 394.006317 268.462289 
L 394.128075 268.369013 
L 394.37159 267.924065 
L 394.533933 267.816825 
L 394.980378 267.407004 
L 395.792096 265.994033 
L 395.832681 266.030326 
L 395.873267 265.921125 
L 395.954439 265.890084 
L 396.157368 265.491127 
L 396.23854 265.522697 
L 396.279126 265.798251 
L 396.360298 265.614208 
L 396.563227 264.889565 
L 396.644399 264.822636 
L 396.806742 264.476143 
L 396.9285 264.418116 
L 396.969086 264.41915 
L 397.293773 263.732417 
L 397.415531 263.670813 
L 397.943147 263.289991 
L 397.983733 263.376555 
L 398.024319 263.242341 
L 398.30842 263.104842 
L 399.160723 261.387394 
L 399.363653 261.253856 
L 399.566582 260.972775 
L 400.053613 260.008428 
L 400.094199 260.006328 
L 400.3783 259.453059 
L 400.500057 259.453398 
L 400.662401 258.995342 
L 400.743573 258.938871 
L 400.824744 258.786047 
L 400.86533 258.889819 
L 401.108845 258.33143 
L 401.311775 257.71836 
L 401.595876 257.251182 
L 401.717634 256.944193 
L 401.839391 256.788691 
L 401.920563 256.480639 
L 401.961149 256.576072 
L 402.001735 256.719201 
L 402.042321 256.590842 
L 402.082906 256.589613 
L 402.326422 256.086878 
L 403.056968 254.412478 
L 403.42224 253.516713 
L 403.584584 253.453788 
L 403.746927 253.209554 
L 403.868685 253.142086 
L 404.071614 252.417148 
L 404.152786 252.239741 
L 404.355716 251.219755 
L 404.477473 251.106046 
L 404.842746 250.693707 
L 404.923918 250.708158 
L 405.086261 250.476486 
L 405.329777 250.150143 
L 405.49212 249.702352 
L 405.532706 249.712225 
L 405.654464 249.550122 
L 406.303838 248.733672 
L 406.506767 248.158537 
L 406.831454 247.672315 
L 406.953212 247.508609 
L 407.115555 247.20706 
L 407.277899 246.981476 
L 407.440242 246.17441 
L 407.683757 245.622307 
L 407.886687 245.183955 
L 407.967859 245.386057 
L 408.130202 244.947533 
L 408.170788 245.072985 
L 408.211374 244.878545 
L 408.292546 244.718234 
L 408.414303 244.215357 
L 408.454889 244.2065 
L 408.617233 243.063775 
L 408.657819 243.250038 
L 408.779576 243.306567 
L 408.94192 243.179715 
L 409.063677 242.952364 
L 409.591294 242.177359 
L 409.63188 242.22342 
L 409.672465 242.133806 
L 409.915981 241.945823 
L 410.037738 241.681576 
L 410.200082 241.596712 
L 410.403011 241.093982 
L 410.443597 241.607896 
L 410.524769 241.529674 
L 410.565355 241.662142 
L 410.605941 241.604948 
L 410.849456 241.363949 
L 410.930628 241.381029 
L 411.133557 240.965266 
L 411.49883 240.627615 
L 411.539416 240.709152 
L 411.580002 240.561786 
L 411.661173 240.4458 
L 411.782931 240.04165 
L 411.864103 240.288071 
L 411.904689 240.249706 
L 411.98586 240.237095 
L 412.107618 239.636282 
L 412.18879 239.789795 
L 412.229376 239.765 
L 412.310547 239.719844 
L 412.635234 238.768966 
L 412.716406 238.612467 
L 412.87875 239.298096 
L 412.919336 239.196711 
L 413.081679 238.832645 
L 413.36578 238.42263 
L 413.406366 238.407441 
L 413.528124 238.177893 
L 413.56871 238.451802 
L 413.649881 238.344651 
L 413.771639 238.259494 
L 414.015154 237.857959 
L 414.096326 237.970626 
L 414.136912 237.914829 
L 414.339841 237.520382 
L 414.380427 237.628424 
L 414.421013 237.551386 
L 414.664528 237.071481 
L 414.948629 236.475599 
L 415.273316 236.136216 
L 415.43566 235.578098 
L 415.476246 235.649418 
L 415.516832 235.573656 
L 415.719761 235.16912 
L 415.800933 235.173245 
L 415.963276 234.901523 
L 416.12562 234.684302 
L 416.247377 234.637447 
L 416.328549 234.447522 
L 416.490893 233.673164 
L 416.896751 233.257708 
L 416.937337 233.324309 
L 417.099681 233.038219 
L 417.221439 232.877275 
L 417.383782 232.394239 
L 417.424368 232.487605 
L 417.870813 232.183336 
L 418.276671 231.605568 
L 418.520187 231.129883 
L 418.68253 230.964048 
L 418.844874 230.916488 
L 419.088389 230.694837 
L 419.169561 230.745707 
L 419.413076 229.626623 
L 419.534833 229.415191 
L 419.697177 228.838738 
L 419.778349 228.786729 
L 419.818935 228.945637 
L 419.85952 228.873276 
L 419.940692 228.563693 
L 420.103036 228.06001 
L 420.224793 227.894769 
L 420.265379 227.947195 
L 420.305965 227.949873 
L 420.387137 227.610162 
L 420.427723 227.708011 
L 420.468309 227.728626 
L 420.630652 227.154638 
L 420.711824 226.871211 
L 420.75241 226.954329 
L 420.792996 226.899189 
L 420.955339 226.304689 
L 421.077097 226.145749 
L 421.23944 225.652236 
L 421.320612 225.641737 
L 421.523541 224.856294 
L 421.564127 224.858458 
L 421.848228 223.885161 
L 421.969986 224.073059 
L 422.010572 223.801316 
L 422.091744 223.909002 
L 422.294673 223.914872 
L 422.659946 223.316387 
L 422.984633 222.634284 
L 423.146977 222.044689 
L 423.228148 222.055807 
L 423.431078 221.474618 
L 423.715179 221.210543 
L 423.958694 220.627383 
L 424.242795 220.401662 
L 424.323967 220.450065 
L 424.48631 219.968277 
L 424.608068 219.921879 
L 424.68924 219.554443 
L 424.729826 219.568082 
L 425.3792 218.93914 
L 425.419786 219.318369 
L 425.500957 219.190507 
L 425.582129 218.96411 
L 425.622715 219.054261 
L 425.825644 218.3506 
L 425.86623 218.471062 
L 425.906816 218.336929 
L 425.987988 218.283953 
L 426.06916 217.783382 
L 426.150331 218.344635 
L 426.190917 218.250399 
L 426.272089 217.930754 
L 426.799705 216.784876 
L 426.840291 216.800826 
L 427.164978 216.081858 
L 427.286736 216.025762 
L 427.489665 215.532841 
L 427.530251 215.543296 
L 427.773766 215.080621 
L 427.814352 215.347669 
L 427.895524 215.255385 
L 428.179625 214.512338 
L 428.220211 214.701878 
L 428.301383 214.676419 
L 428.544898 214.60342 
L 428.585484 214.744089 
L 428.62607 214.624743 
L 428.869585 214.151874 
L 429.031929 214.155155 
L 429.1131 214.393244 
L 429.234858 213.864922 
L 429.397202 213.75329 
L 429.437787 213.924283 
L 429.518959 213.830629 
L 429.681303 213.807826 
L 429.924818 213.188386 
L 430.046576 213.046367 
L 430.208919 212.477234 
L 430.290091 212.414621 
L 430.371263 212.49181 
L 430.69595 211.547009 
L 430.777121 211.599956 
L 431.629425 210.275348 
L 431.670011 210.273435 
L 431.832354 209.374028 
L 431.994698 208.94529 
L 432.5629 208.390498 
L 432.725243 207.898035 
L 432.765829 207.978372 
L 432.968759 207.59531 
L 433.212274 206.817584 
L 433.293446 206.426535 
L 433.334032 206.488052 
L 433.577547 206.227979 
L 433.618133 206.252879 
L 433.861648 205.806108 
L 433.983406 205.71291 
L 434.42985 204.154389 
L 434.673366 204.184928 
L 434.876295 203.148857 
L 435.079224 202.582713 
L 435.850356 201.483756 
L 436.134457 200.038607 
L 436.175043 200.145904 
L 436.215629 200.049994 
L 436.296801 199.962663 
L 436.459144 199.504869 
L 436.49973 199.515804 
L 436.743245 199.112248 
L 436.865003 199.0561 
L 437.108518 198.468061 
L 437.392619 198.131782 
L 437.554963 197.763434 
L 437.67672 197.704342 
L 437.757892 197.938486 
L 437.839064 197.824295 
L 437.920236 197.821104 
L 437.960822 198.000444 
L 438.001407 197.880928 
L 438.204337 197.833288 
L 438.285509 197.79949 
L 438.731953 196.532678 
L 438.975468 196.041387 
L 439.25957 195.806821 
L 439.381327 195.878268 
L 439.503085 195.299947 
L 439.543671 195.330416 
L 439.7466 194.926725 
L 439.990115 194.306879 
L 440.071287 194.231643 
L 440.111873 194.274155 
L 440.233631 194.210139 
L 440.355388 194.123568 
L 440.517732 193.70801 
L 440.883005 192.446096 
L 440.923591 192.406587 
L 441.085934 191.814153 
L 441.329449 191.098719 
L 441.572965 191.000858 
L 441.61355 191.202621 
L 441.654136 190.986416 
L 441.735308 190.834551 
L 441.775894 190.669749 
L 441.81648 190.867624 
L 441.857066 190.706958 
L 441.938237 190.656568 
L 441.978823 190.288645 
L 442.059995 190.333981 
L 442.222339 190.227609 
L 442.30351 190.064787 
L 442.344096 190.129508 
L 442.384682 190.160612 
L 442.425268 190.068354 
L 443.115228 189.308015 
L 443.236986 189.292797 
L 443.399329 189.266424 
L 443.561673 188.937906 
L 443.764602 188.481553 
L 443.805188 188.460582 
L 444.211047 187.374594 
L 444.251632 187.473308 
L 444.332804 187.409612 
L 444.535734 187.205063 
L 444.657491 186.677417 
L 444.698077 186.805615 
L 444.738663 186.836425 
L 444.779249 187.201916 
L 444.860421 187.092658 
L 444.901006 187.082808 
L 444.941592 187.269086 
L 445.022764 187.21091 
L 445.06335 187.198344 
L 445.225693 186.574286 
L 445.388037 186.765234 
L 445.55038 186.25011 
L 445.590966 186.243423 
L 445.75331 185.768724 
L 445.956239 185.411547 
L 446.321512 184.795439 
L 446.402684 185.17602 
L 446.44327 185.000401 
L 446.686785 184.777152 
L 446.808543 184.674274 
L 446.970886 184.376679 
L 447.011472 184.448915 
L 447.254987 183.630292 
L 447.457917 183.277125 
L 447.539088 183.27504 
L 448.066705 181.921093 
L 448.107291 182.270557 
L 448.188462 182.052902 
L 448.269634 182.027511 
L 448.391392 181.726777 
L 448.431978 181.75115 
L 448.472564 181.743593 
L 448.675493 181.135444 
L 449.040766 180.671837 
L 449.284281 179.806141 
L 449.406039 179.75784 
L 449.69014 178.849686 
L 449.852483 178.788081 
L 450.136585 178.144399 
L 450.217756 178.094437 
L 450.258342 178.244119 
L 450.298928 178.087842 
L 450.420686 177.85661 
L 450.501857 177.845289 
L 450.542443 177.380739 
L 450.623615 177.590805 
L 450.704787 177.365492 
L 450.745373 177.4572 
L 450.86713 177.440669 
L 451.07006 177.009875 
L 451.232403 176.240984 
L 451.272989 176.263146 
L 451.313575 176.179505 
L 451.597676 175.507843 
L 451.841191 174.923908 
L 452.368808 173.35275 
L 452.612323 172.690623 
L 452.734081 172.172197 
L 452.855838 172.164772 
L 453.180525 171.301108 
L 453.464626 171.221663 
L 453.586384 170.91063 
L 453.62697 170.894467 
L 454.032829 169.879337 
L 454.195172 169.808012 
L 454.398102 168.74471 
L 454.519859 168.224969 
L 454.601031 168.354103 
L 454.641617 168.753591 
L 454.722789 168.616534 
L 454.966304 168.15249 
L 455.209819 167.974285 
L 455.453334 167.046408 
L 455.534506 166.963309 
L 455.615678 166.610254 
L 455.656264 166.718474 
L 455.737436 166.780239 
L 455.778021 166.362041 
L 455.859193 166.448063 
L 456.021537 166.394424 
L 456.18388 166.215987 
L 456.305638 166.391002 
L 456.467981 166.043704 
L 456.630325 165.897037 
L 456.792668 165.490726 
L 457.036184 164.373393 
L 457.198527 164.277582 
L 457.401457 164.055353 
L 457.442042 164.15702 
L 457.482628 164.073935 
L 457.523214 163.924106 
L 457.685558 162.883816 
L 457.807315 162.89838 
L 458.050831 162.107909 
L 458.294346 161.828352 
L 458.416103 161.730878 
L 458.497275 161.939514 
L 458.537861 161.911546 
L 458.619033 161.877755 
L 458.659619 161.944327 
L 458.700205 161.810878 
L 458.74079 161.864466 
L 458.781376 161.844177 
L 458.984306 161.291966 
L 459.146649 161.202741 
L 459.187235 161.378909 
L 459.227821 161.309108 
L 459.43075 160.952684 
L 459.471336 160.952443 
L 459.63368 160.504553 
L 459.877195 160.443516 
L 459.998953 160.210225 
L 460.161296 160.325281 
L 460.32364 160.057103 
L 460.81067 159.500156 
L 460.891842 159.430024 
L 461.054185 159.017639 
L 461.175943 158.888038 
L 461.216529 158.915476 
L 461.297701 158.818575 
L 461.378872 158.559483 
L 461.541216 158.194011 
L 462.150004 156.731545 
L 462.393519 156.478557 
L 462.515277 155.717088 
L 462.555863 155.720252 
L 462.596449 155.706573 
L 462.758792 155.069289 
L 462.799378 155.215861 
L 462.88055 155.134548 
L 463.002308 155.268113 
L 463.124065 154.444346 
L 463.164651 154.461455 
L 463.408166 153.590765 
L 463.57051 153.095788 
L 463.692267 153.022345 
L 463.935783 152.874972 
L 464.138712 152.417129 
L 464.219884 152.373456 
L 464.382227 151.647367 
L 465.112773 149.82048 
L 465.193945 149.769113 
L 465.275117 149.078083 
L 465.315702 149.10136 
L 465.43746 148.892014 
L 465.599804 148.459375 
L 465.640389 148.48184 
L 465.802733 148.383432 
L 465.924491 147.98208 
L 465.965077 148.056747 
L 466.12742 147.92398 
L 466.289764 147.768861 
L 466.452107 147.061982 
L 467.020309 146.2599 
L 467.060895 146.31308 
L 467.710269 144.364066 
L 467.750855 144.518723 
L 467.953784 143.625204 
L 467.99437 143.623846 
L 468.156714 143.251561 
L 468.440815 143.04069 
L 468.481401 143.530693 
L 468.562573 143.318434 
L 468.603158 143.409132 
L 468.643744 143.233577 
L 468.765502 143.033429 
L 468.968431 142.614938 
L 469.211947 142.377176 
L 469.536634 141.351881 
L 469.901907 140.655345 
L 470.186008 140.682397 
L 470.226594 140.922578 
L 470.307765 140.823651 
L 470.470109 140.432834 
L 470.591866 140.123612 
L 470.713624 139.949764 
L 470.794796 140.150924 
L 470.875968 140.095023 
L 470.957139 140.084819 
L 471.24124 139.554822 
L 471.403584 139.513869 
L 471.484756 139.350083 
L 472.62116 136.785784 
L 472.945847 136.440558 
L 473.148777 136.377064 
L 473.351706 135.6169 
L 473.432878 135.503157 
L 473.595221 135.001411 
L 473.635807 134.969528 
L 473.798151 134.522858 
L 473.919908 134.293718 
L 474.082252 133.980151 
L 474.244595 133.360046 
L 474.447525 132.298498 
L 474.609868 132.055434 
L 474.853384 131.93007 
L 475.056313 131.457228 
L 475.259242 130.482606 
L 475.299828 130.522803 
L 475.340414 130.432407 
L 475.502758 129.845143 
L 475.543343 129.893285 
L 475.827445 129.650916 
L 475.86803 129.84658 
L 475.949202 129.82587 
L 476.355061 129.22098 
L 476.679748 128.914717 
L 476.842091 128.45673 
L 476.963849 128.240518 
L 477.166778 127.555468 
L 477.288536 127.546532 
L 477.329122 127.294148 
L 477.369708 127.512385 
L 477.410294 127.506964 
L 477.491466 127.154599 
L 477.532051 127.257728 
L 477.694395 127.208626 
L 477.856738 126.40039 
L 478.019082 126.171318 
L 478.059668 126.130959 
L 478.14084 125.891475 
L 478.181425 125.908016 
L 478.303183 125.787651 
L 478.424941 125.223346 
L 478.587284 124.489266 
L 478.668456 124.334675 
L 478.709042 124.455594 
L 478.790214 124.440426 
L 479.074315 124.183843 
L 479.114901 124.309025 
L 479.196072 124.24937 
L 479.886032 122.338001 
L 480.048376 121.708521 
L 480.129548 121.992091 
L 480.170133 121.950792 
L 480.413649 121.19431 
L 480.454235 121.347886 
L 480.49482 121.28427 
L 480.616578 120.753383 
L 480.657164 120.809324 
L 481.103609 120.45289 
L 481.265952 119.699982 
L 481.38771 119.563617 
L 481.834154 118.353256 
L 481.955912 118.169892 
L 482.158841 117.309218 
L 482.240013 117.193474 
L 482.402357 116.55623 
L 482.442942 116.706896 
L 482.483528 116.651704 
L 482.686458 116.391944 
L 482.808215 116.217962 
L 482.848801 116.367026 
L 482.889387 116.306034 
L 483.051731 116.056221 
L 483.173488 115.821343 
L 483.579347 115.293872 
L 483.741691 114.889521 
L 484.269307 113.467505 
L 484.391065 113.851869 
L 484.675166 113.377192 
L 484.796923 113.277522 
L 485.486883 110.997141 
L 485.527469 111.172423 
L 485.568055 111.03107 
L 485.608641 110.864307 
L 485.649227 110.970452 
L 485.689813 111.010332 
L 485.852156 110.429945 
L 485.973914 110.40379 
L 486.176843 110.020413 
L 486.258015 110.057445 
L 486.420358 109.896492 
L 486.460944 109.852991 
L 486.542116 109.643238 
L 486.582702 109.700542 
L 486.663874 109.610056 
L 486.70446 109.686825 
L 487.272662 108.989491 
L 487.394419 108.618851 
L 487.516177 108.521117 
L 487.759692 108.085669 
L 487.922036 107.965195 
L 488.490238 107.294259 
L 488.57141 107.357861 
L 488.733753 106.793793 
L 488.774339 106.806803 
L 488.814925 106.801648 
L 488.936683 106.483347 
L 489.26137 106.121233 
L 489.301956 106.209851 
L 489.383127 106.143365 
L 489.464299 106.413613 
L 489.504885 106.409619 
L 489.667229 105.954335 
L 489.870158 106.057509 
L 490.032501 105.611365 
L 490.194845 105.652783 
L 490.276017 105.298409 
L 490.316603 105.314329 
L 490.357188 105.261743 
L 490.519532 104.347822 
L 490.560118 104.464062 
L 490.600704 104.472722 
L 490.722461 104.148308 
L 490.763047 104.152682 
L 490.844219 103.721535 
L 490.884805 103.791696 
L 491.047148 103.654446 
L 491.250078 102.863743 
L 491.737108 101.930481 
L 491.858866 101.61836 
L 491.899452 101.644888 
L 492.142967 101.169784 
L 492.305311 100.377247 
L 492.629998 100.145803 
L 492.792341 99.161293 
L 492.873513 99.113608 
L 492.954685 99.016117 
L 493.076442 98.601635 
L 493.1982 98.507526 
L 493.522887 97.748109 
L 493.604059 97.862085 
L 493.644644 97.831023 
L 493.806988 97.799064 
L 493.969331 97.308697 
L 494.334604 96.119558 
L 494.496948 95.083865 
L 494.618706 94.857177 
L 494.781049 94.501751 
L 495.430423 93.536733 
L 495.876868 92.0965 
L 495.958039 92.012831 
L 496.282726 91.415699 
L 496.44507 91.181113 
L 496.607413 90.782807 
L 496.647999 90.937502 
L 496.688585 90.884708 
L 496.769757 91.294358 
L 496.810343 91.161513 
L 497.378545 90.042035 
L 497.419131 90.095886 
L 497.459717 90.168178 
L 497.500303 90.090524 
L 497.540889 90.039015 
L 497.581475 90.137738 
L 497.62206 90.127774 
L 497.82499 89.431526 
L 497.946747 89.3844 
L 497.987333 89.560835 
L 498.027919 89.429173 
L 498.068505 89.28 
L 498.109091 89.296825 
" style="fill:none;stroke:#4c72b0;stroke-linecap:round;stroke-width:1.5;"/>
   </g>
   <g id="line2d_14">
    <path clip-path="url(#peeb87f83e6)" d="M 376.392046 300.012986 
L 498.109091 93.376537 
L 498.109091 93.376537 
" style="fill:none;stroke:#dd8452;stroke-linecap:round;stroke-width:1.5;"/>
   </g>
   <g id="patch_3">
    <path d="M 72 512.64 
L 72 69.12 
" style="fill:none;stroke:#ffffff;stroke-linecap:square;stroke-linejoin:miter;stroke-width:1.25;"/>
   </g>
   <g id="patch_4">
    <path d="M 518.4 512.64 
L 518.4 69.12 
" style="fill:none;stroke:#ffffff;stroke-linecap:square;stroke-linejoin:miter;stroke-width:1.25;"/>
   </g>
   <g id="patch_5">
    <path d="M 72 512.64 
L 518.4 512.64 
" style="fill:none;stroke:#ffffff;stroke-linecap:square;stroke-linejoin:miter;stroke-width:1.25;"/>
   </g>
   <g id="patch_6">
    <path d="M 72 69.12 
L 518.4 69.12 
" style="fill:none;stroke:#ffffff;stroke-linecap:square;stroke-linejoin:miter;stroke-width:1.25;"/>
   </g>
   <g id="legend_1">
    <g id="patch_7">
     <path d="M 79.7 94.065938 
L 182.44 94.065938 
Q 184.64 94.065938 184.64 91.865938 
L 184.64 76.82 
Q 184.64 74.62 182.44 74.62 
L 79.7 74.62 
Q 77.5 74.62 77.5 76.82 
L 77.5 91.865938 
Q 77.5 94.065938 79.7 94.065938 
z
" style="fill:#eaeaf2;opacity:0.8;stroke:#cccccc;stroke-linejoin:miter;"/>
    </g>
    <g id="line2d_15">
     <path d="M 81.9 83.528281 
L 103.9 83.528281 
" style="fill:none;stroke:#dd8452;stroke-linecap:round;stroke-width:1.5;"/>
    </g>
    <g id="line2d_16"/>
    <g id="text_16">
     <!-- $D = 736.979$ -->
     <g style="fill:#262626;" transform="translate(112.7 87.378281)scale(0.11 -0.11)">
      <defs>
       <path d="M 16.890625 72.90625 
L 38.09375 72.90625 
Q 54.984375 72.90625 63.59375 65.75 
Q 72.21875 58.59375 72.21875 44.484375 
Q 72.21875 35.15625 68.9375 26.53125 
Q 65.671875 17.921875 59.90625 12.015625 
Q 54.109375 5.953125 45.171875 2.96875 
Q 36.234375 0 24.03125 0 
L 2.6875 0 
z
M 25.203125 64.796875 
L 14.203125 8.109375 
L 27.09375 8.109375 
Q 43.65625 8.109375 52.734375 17.625 
Q 61.8125 27.15625 61.8125 44.484375 
Q 61.8125 54.984375 55.953125 59.890625 
Q 50.09375 64.796875 37.59375 64.796875 
z
" id="DejaVuSans-Oblique-68"/>
       <path d="M 10.59375 45.40625 
L 73.1875 45.40625 
L 73.1875 37.203125 
L 10.59375 37.203125 
z
M 10.59375 25.484375 
L 73.1875 25.484375 
L 73.1875 17.1875 
L 10.59375 17.1875 
z
" id="DejaVuSans-61"/>
       <path d="M 40.578125 39.3125 
Q 47.65625 37.796875 51.625 33 
Q 55.609375 28.21875 55.609375 21.1875 
Q 55.609375 10.40625 48.1875 4.484375 
Q 40.765625 -1.421875 27.09375 -1.421875 
Q 22.515625 -1.421875 17.65625 -0.515625 
Q 12.796875 0.390625 7.625 2.203125 
L 7.625 11.71875 
Q 11.71875 9.328125 16.59375 8.109375 
Q 21.484375 6.890625 26.8125 6.890625 
Q 36.078125 6.890625 40.9375 10.546875 
Q 45.796875 14.203125 45.796875 21.1875 
Q 45.796875 27.640625 41.28125 31.265625 
Q 36.765625 34.90625 28.71875 34.90625 
L 20.21875 34.90625 
L 20.21875 43.015625 
L 29.109375 43.015625 
Q 36.375 43.015625 40.234375 45.921875 
Q 44.09375 48.828125 44.09375 54.296875 
Q 44.09375 59.90625 40.109375 62.90625 
Q 36.140625 65.921875 28.71875 65.921875 
Q 24.65625 65.921875 20.015625 65.03125 
Q 15.375 64.15625 9.8125 62.3125 
L 9.8125 71.09375 
Q 15.4375 72.65625 20.34375 73.4375 
Q 25.25 74.21875 29.59375 74.21875 
Q 40.828125 74.21875 47.359375 69.109375 
Q 53.90625 64.015625 53.90625 55.328125 
Q 53.90625 49.265625 50.4375 45.09375 
Q 46.96875 40.921875 40.578125 39.3125 
z
" id="DejaVuSans-51"/>
       <path d="M 10.984375 1.515625 
L 10.984375 10.5 
Q 14.703125 8.734375 18.5 7.8125 
Q 22.3125 6.890625 25.984375 6.890625 
Q 35.75 6.890625 40.890625 13.453125 
Q 46.046875 20.015625 46.78125 33.40625 
Q 43.953125 29.203125 39.59375 26.953125 
Q 35.25 24.703125 29.984375 24.703125 
Q 19.046875 24.703125 12.671875 31.3125 
Q 6.296875 37.9375 6.296875 49.421875 
Q 6.296875 60.640625 12.9375 67.421875 
Q 19.578125 74.21875 30.609375 74.21875 
Q 43.265625 74.21875 49.921875 64.515625 
Q 56.59375 54.828125 56.59375 36.375 
Q 56.59375 19.140625 48.40625 8.859375 
Q 40.234375 -1.421875 26.421875 -1.421875 
Q 22.703125 -1.421875 18.890625 -0.6875 
Q 15.09375 0.046875 10.984375 1.515625 
z
M 30.609375 32.421875 
Q 37.25 32.421875 41.125 36.953125 
Q 45.015625 41.5 45.015625 49.421875 
Q 45.015625 57.28125 41.125 61.84375 
Q 37.25 66.40625 30.609375 66.40625 
Q 23.96875 66.40625 20.09375 61.84375 
Q 16.21875 57.28125 16.21875 49.421875 
Q 16.21875 41.5 20.09375 36.953125 
Q 23.96875 32.421875 30.609375 32.421875 
z
" id="DejaVuSans-57"/>
      </defs>
      <use transform="translate(0 0.78125)" xlink:href="#DejaVuSans-Oblique-68"/>
      <use transform="translate(96.484375 0.78125)" xlink:href="#DejaVuSans-61"/>
      <use transform="translate(199.755859 0.78125)" xlink:href="#DejaVuSans-55"/>
      <use transform="translate(263.378906 0.78125)" xlink:href="#DejaVuSans-51"/>
      <use transform="translate(327.001953 0.78125)" xlink:href="#DejaVuSans-54"/>
      <use transform="translate(390.625 0.78125)" xlink:href="#DejaVuSans-46"/>
      <use transform="translate(422.412109 0.78125)" xlink:href="#DejaVuSans-57"/>
      <use transform="translate(486.035156 0.78125)" xlink:href="#DejaVuSans-55"/>
      <use transform="translate(549.658203 0.78125)" xlink:href="#DejaVuSans-57"/>
     </g>
    </g>
   </g>
  </g>
 </g>
 <defs>
  <clipPath id="peeb87f83e6">
   <rect height="443.52" width="446.4" x="72" y="69.12"/>
  </clipPath>
 </defs>
</svg>
