<?xml version="1.0" encoding="utf-8" standalone="no"?>
<!DOCTYPE svg PUBLIC "-//W3C//DTD SVG 1.1//EN"
  "http://www.w3.org/Graphics/SVG/1.1/DTD/svg11.dtd">
<!-- Created with matplotlib (https://matplotlib.org/) -->
<svg height="576pt" version="1.1" viewBox="0 0 576 576" width="576pt" xmlns="http://www.w3.org/2000/svg" xmlns:xlink="http://www.w3.org/1999/xlink">
 <metadata>
  <rdf:RDF xmlns:cc="http://creativecommons.org/ns#" xmlns:dc="http://purl.org/dc/elements/1.1/" xmlns:rdf="http://www.w3.org/1999/02/22-rdf-syntax-ns#">
   <cc:Work>
    <dc:type rdf:resource="http://purl.org/dc/dcmitype/StillImage"/>
    <dc:date>2021-03-28T12:26:44.102314</dc:date>
    <dc:format>image/svg+xml</dc:format>
    <dc:creator>
     <cc:Agent>
      <dc:title>Matplotlib v3.3.3, https://matplotlib.org/</dc:title>
     </cc:Agent>
    </dc:creator>
   </cc:Work>
  </rdf:RDF>
 </metadata>
 <defs>
  <style type="text/css">*{stroke-linecap:butt;stroke-linejoin:round;}</style>
 </defs>
 <g id="figure_1">
  <g id="patch_1">
   <path d="M 0 576 
L 576 576 
L 576 0 
L 0 0 
z
" style="fill:#ffffff;"/>
  </g>
  <g id="axes_1">
   <g id="patch_2">
    <path d="M 72 512.64 
L 518.4 512.64 
L 518.4 69.12 
L 72 69.12 
z
" style="fill:#eaeaf2;"/>
   </g>
   <g id="matplotlib.axis_1">
    <g id="xtick_1">
     <g id="line2d_1">
      <path clip-path="url(#pbd0e759413)" d="M 89.558127 512.64 
L 89.558127 69.12 
" style="fill:none;stroke:#ffffff;stroke-linecap:round;"/>
     </g>
     <g id="text_1">
      <!-- 0 -->
      <g style="fill:#262626;" transform="translate(86.058752 530.498281)scale(0.11 -0.11)">
       <defs>
        <path d="M 31.78125 66.40625 
Q 24.171875 66.40625 20.328125 58.90625 
Q 16.5 51.421875 16.5 36.375 
Q 16.5 21.390625 20.328125 13.890625 
Q 24.171875 6.390625 31.78125 6.390625 
Q 39.453125 6.390625 43.28125 13.890625 
Q 47.125 21.390625 47.125 36.375 
Q 47.125 51.421875 43.28125 58.90625 
Q 39.453125 66.40625 31.78125 66.40625 
z
M 31.78125 74.21875 
Q 44.046875 74.21875 50.515625 64.515625 
Q 56.984375 54.828125 56.984375 36.375 
Q 56.984375 17.96875 50.515625 8.265625 
Q 44.046875 -1.421875 31.78125 -1.421875 
Q 19.53125 -1.421875 13.0625 8.265625 
Q 6.59375 17.96875 6.59375 36.375 
Q 6.59375 54.828125 13.0625 64.515625 
Q 19.53125 74.21875 31.78125 74.21875 
z
" id="DejaVuSans-48"/>
       </defs>
       <use xlink:href="#DejaVuSans-48"/>
      </g>
     </g>
    </g>
    <g id="xtick_2">
     <g id="line2d_2">
      <path clip-path="url(#pbd0e759413)" d="M 144.213774 512.64 
L 144.213774 69.12 
" style="fill:none;stroke:#ffffff;stroke-linecap:round;"/>
     </g>
     <g id="text_2">
      <!-- 200 -->
      <g style="fill:#262626;" transform="translate(133.715649 530.498281)scale(0.11 -0.11)">
       <defs>
        <path d="M 19.1875 8.296875 
L 53.609375 8.296875 
L 53.609375 0 
L 7.328125 0 
L 7.328125 8.296875 
Q 12.9375 14.109375 22.625 23.890625 
Q 32.328125 33.6875 34.8125 36.53125 
Q 39.546875 41.84375 41.421875 45.53125 
Q 43.3125 49.21875 43.3125 52.78125 
Q 43.3125 58.59375 39.234375 62.25 
Q 35.15625 65.921875 28.609375 65.921875 
Q 23.96875 65.921875 18.8125 64.3125 
Q 13.671875 62.703125 7.8125 59.421875 
L 7.8125 69.390625 
Q 13.765625 71.78125 18.9375 73 
Q 24.125 74.21875 28.421875 74.21875 
Q 39.75 74.21875 46.484375 68.546875 
Q 53.21875 62.890625 53.21875 53.421875 
Q 53.21875 48.921875 51.53125 44.890625 
Q 49.859375 40.875 45.40625 35.40625 
Q 44.1875 33.984375 37.640625 27.21875 
Q 31.109375 20.453125 19.1875 8.296875 
z
" id="DejaVuSans-50"/>
       </defs>
       <use xlink:href="#DejaVuSans-50"/>
       <use x="63.623047" xlink:href="#DejaVuSans-48"/>
       <use x="127.246094" xlink:href="#DejaVuSans-48"/>
      </g>
     </g>
    </g>
    <g id="xtick_3">
     <g id="line2d_3">
      <path clip-path="url(#pbd0e759413)" d="M 198.869421 512.64 
L 198.869421 69.12 
" style="fill:none;stroke:#ffffff;stroke-linecap:round;"/>
     </g>
     <g id="text_3">
      <!-- 400 -->
      <g style="fill:#262626;" transform="translate(188.371296 530.498281)scale(0.11 -0.11)">
       <defs>
        <path d="M 37.796875 64.3125 
L 12.890625 25.390625 
L 37.796875 25.390625 
z
M 35.203125 72.90625 
L 47.609375 72.90625 
L 47.609375 25.390625 
L 58.015625 25.390625 
L 58.015625 17.1875 
L 47.609375 17.1875 
L 47.609375 0 
L 37.796875 0 
L 37.796875 17.1875 
L 4.890625 17.1875 
L 4.890625 26.703125 
z
" id="DejaVuSans-52"/>
       </defs>
       <use xlink:href="#DejaVuSans-52"/>
       <use x="63.623047" xlink:href="#DejaVuSans-48"/>
       <use x="127.246094" xlink:href="#DejaVuSans-48"/>
      </g>
     </g>
    </g>
    <g id="xtick_4">
     <g id="line2d_4">
      <path clip-path="url(#pbd0e759413)" d="M 253.525069 512.64 
L 253.525069 69.12 
" style="fill:none;stroke:#ffffff;stroke-linecap:round;"/>
     </g>
     <g id="text_4">
      <!-- 600 -->
      <g style="fill:#262626;" transform="translate(243.026944 530.498281)scale(0.11 -0.11)">
       <defs>
        <path d="M 33.015625 40.375 
Q 26.375 40.375 22.484375 35.828125 
Q 18.609375 31.296875 18.609375 23.390625 
Q 18.609375 15.53125 22.484375 10.953125 
Q 26.375 6.390625 33.015625 6.390625 
Q 39.65625 6.390625 43.53125 10.953125 
Q 47.40625 15.53125 47.40625 23.390625 
Q 47.40625 31.296875 43.53125 35.828125 
Q 39.65625 40.375 33.015625 40.375 
z
M 52.59375 71.296875 
L 52.59375 62.3125 
Q 48.875 64.0625 45.09375 64.984375 
Q 41.3125 65.921875 37.59375 65.921875 
Q 27.828125 65.921875 22.671875 59.328125 
Q 17.53125 52.734375 16.796875 39.40625 
Q 19.671875 43.65625 24.015625 45.921875 
Q 28.375 48.1875 33.59375 48.1875 
Q 44.578125 48.1875 50.953125 41.515625 
Q 57.328125 34.859375 57.328125 23.390625 
Q 57.328125 12.15625 50.6875 5.359375 
Q 44.046875 -1.421875 33.015625 -1.421875 
Q 20.359375 -1.421875 13.671875 8.265625 
Q 6.984375 17.96875 6.984375 36.375 
Q 6.984375 53.65625 15.1875 63.9375 
Q 23.390625 74.21875 37.203125 74.21875 
Q 40.921875 74.21875 44.703125 73.484375 
Q 48.484375 72.75 52.59375 71.296875 
z
" id="DejaVuSans-54"/>
       </defs>
       <use xlink:href="#DejaVuSans-54"/>
       <use x="63.623047" xlink:href="#DejaVuSans-48"/>
       <use x="127.246094" xlink:href="#DejaVuSans-48"/>
      </g>
     </g>
    </g>
    <g id="xtick_5">
     <g id="line2d_5">
      <path clip-path="url(#pbd0e759413)" d="M 308.180716 512.64 
L 308.180716 69.12 
" style="fill:none;stroke:#ffffff;stroke-linecap:round;"/>
     </g>
     <g id="text_5">
      <!-- 800 -->
      <g style="fill:#262626;" transform="translate(297.682591 530.498281)scale(0.11 -0.11)">
       <defs>
        <path d="M 31.78125 34.625 
Q 24.75 34.625 20.71875 30.859375 
Q 16.703125 27.09375 16.703125 20.515625 
Q 16.703125 13.921875 20.71875 10.15625 
Q 24.75 6.390625 31.78125 6.390625 
Q 38.8125 6.390625 42.859375 10.171875 
Q 46.921875 13.96875 46.921875 20.515625 
Q 46.921875 27.09375 42.890625 30.859375 
Q 38.875 34.625 31.78125 34.625 
z
M 21.921875 38.8125 
Q 15.578125 40.375 12.03125 44.71875 
Q 8.5 49.078125 8.5 55.328125 
Q 8.5 64.0625 14.71875 69.140625 
Q 20.953125 74.21875 31.78125 74.21875 
Q 42.671875 74.21875 48.875 69.140625 
Q 55.078125 64.0625 55.078125 55.328125 
Q 55.078125 49.078125 51.53125 44.71875 
Q 48 40.375 41.703125 38.8125 
Q 48.828125 37.15625 52.796875 32.3125 
Q 56.78125 27.484375 56.78125 20.515625 
Q 56.78125 9.90625 50.3125 4.234375 
Q 43.84375 -1.421875 31.78125 -1.421875 
Q 19.734375 -1.421875 13.25 4.234375 
Q 6.78125 9.90625 6.78125 20.515625 
Q 6.78125 27.484375 10.78125 32.3125 
Q 14.796875 37.15625 21.921875 38.8125 
z
M 18.3125 54.390625 
Q 18.3125 48.734375 21.84375 45.5625 
Q 25.390625 42.390625 31.78125 42.390625 
Q 38.140625 42.390625 41.71875 45.5625 
Q 45.3125 48.734375 45.3125 54.390625 
Q 45.3125 60.0625 41.71875 63.234375 
Q 38.140625 66.40625 31.78125 66.40625 
Q 25.390625 66.40625 21.84375 63.234375 
Q 18.3125 60.0625 18.3125 54.390625 
z
" id="DejaVuSans-56"/>
       </defs>
       <use xlink:href="#DejaVuSans-56"/>
       <use x="63.623047" xlink:href="#DejaVuSans-48"/>
       <use x="127.246094" xlink:href="#DejaVuSans-48"/>
      </g>
     </g>
    </g>
    <g id="xtick_6">
     <g id="line2d_6">
      <path clip-path="url(#pbd0e759413)" d="M 362.836364 512.64 
L 362.836364 69.12 
" style="fill:none;stroke:#ffffff;stroke-linecap:round;"/>
     </g>
     <g id="text_6">
      <!-- 1000 -->
      <g style="fill:#262626;" transform="translate(348.838864 530.498281)scale(0.11 -0.11)">
       <defs>
        <path d="M 12.40625 8.296875 
L 28.515625 8.296875 
L 28.515625 63.921875 
L 10.984375 60.40625 
L 10.984375 69.390625 
L 28.421875 72.90625 
L 38.28125 72.90625 
L 38.28125 8.296875 
L 54.390625 8.296875 
L 54.390625 0 
L 12.40625 0 
z
" id="DejaVuSans-49"/>
       </defs>
       <use xlink:href="#DejaVuSans-49"/>
       <use x="63.623047" xlink:href="#DejaVuSans-48"/>
       <use x="127.246094" xlink:href="#DejaVuSans-48"/>
       <use x="190.869141" xlink:href="#DejaVuSans-48"/>
      </g>
     </g>
    </g>
    <g id="xtick_7">
     <g id="line2d_7">
      <path clip-path="url(#pbd0e759413)" d="M 417.492011 512.64 
L 417.492011 69.12 
" style="fill:none;stroke:#ffffff;stroke-linecap:round;"/>
     </g>
     <g id="text_7">
      <!-- 1200 -->
      <g style="fill:#262626;" transform="translate(403.494511 530.498281)scale(0.11 -0.11)">
       <use xlink:href="#DejaVuSans-49"/>
       <use x="63.623047" xlink:href="#DejaVuSans-50"/>
       <use x="127.246094" xlink:href="#DejaVuSans-48"/>
       <use x="190.869141" xlink:href="#DejaVuSans-48"/>
      </g>
     </g>
    </g>
    <g id="xtick_8">
     <g id="line2d_8">
      <path clip-path="url(#pbd0e759413)" d="M 472.147658 512.64 
L 472.147658 69.12 
" style="fill:none;stroke:#ffffff;stroke-linecap:round;"/>
     </g>
     <g id="text_8">
      <!-- 1400 -->
      <g style="fill:#262626;" transform="translate(458.150158 530.498281)scale(0.11 -0.11)">
       <use xlink:href="#DejaVuSans-49"/>
       <use x="63.623047" xlink:href="#DejaVuSans-52"/>
       <use x="127.246094" xlink:href="#DejaVuSans-48"/>
       <use x="190.869141" xlink:href="#DejaVuSans-48"/>
      </g>
     </g>
    </g>
    <g id="text_9">
     <!-- $K$ (Number of Particles) -->
     <g style="fill:#262626;" transform="translate(225.36 545.904063)scale(0.12 -0.12)">
      <defs>
       <path d="M 16.890625 72.90625 
L 26.8125 72.90625 
L 20.796875 42.1875 
L 59.078125 72.90625 
L 72.21875 72.90625 
L 28.90625 38.09375 
L 60.59375 0 
L 48.578125 0 
L 19.484375 35.5 
L 12.59375 0 
L 2.6875 0 
z
" id="DejaVuSans-Oblique-75"/>
       <path id="DejaVuSans-32"/>
       <path d="M 31 75.875 
Q 24.46875 64.65625 21.28125 53.65625 
Q 18.109375 42.671875 18.109375 31.390625 
Q 18.109375 20.125 21.3125 9.0625 
Q 24.515625 -2 31 -13.1875 
L 23.1875 -13.1875 
Q 15.875 -1.703125 12.234375 9.375 
Q 8.59375 20.453125 8.59375 31.390625 
Q 8.59375 42.28125 12.203125 53.3125 
Q 15.828125 64.359375 23.1875 75.875 
z
" id="DejaVuSans-40"/>
       <path d="M 9.8125 72.90625 
L 23.09375 72.90625 
L 55.421875 11.921875 
L 55.421875 72.90625 
L 64.984375 72.90625 
L 64.984375 0 
L 51.703125 0 
L 19.390625 60.984375 
L 19.390625 0 
L 9.8125 0 
z
" id="DejaVuSans-78"/>
       <path d="M 8.5 21.578125 
L 8.5 54.6875 
L 17.484375 54.6875 
L 17.484375 21.921875 
Q 17.484375 14.15625 20.5 10.265625 
Q 23.53125 6.390625 29.59375 6.390625 
Q 36.859375 6.390625 41.078125 11.03125 
Q 45.3125 15.671875 45.3125 23.6875 
L 45.3125 54.6875 
L 54.296875 54.6875 
L 54.296875 0 
L 45.3125 0 
L 45.3125 8.40625 
Q 42.046875 3.421875 37.71875 1 
Q 33.40625 -1.421875 27.6875 -1.421875 
Q 18.265625 -1.421875 13.375 4.4375 
Q 8.5 10.296875 8.5 21.578125 
z
M 31.109375 56 
z
" id="DejaVuSans-117"/>
       <path d="M 52 44.1875 
Q 55.375 50.25 60.0625 53.125 
Q 64.75 56 71.09375 56 
Q 79.640625 56 84.28125 50.015625 
Q 88.921875 44.046875 88.921875 33.015625 
L 88.921875 0 
L 79.890625 0 
L 79.890625 32.71875 
Q 79.890625 40.578125 77.09375 44.375 
Q 74.3125 48.1875 68.609375 48.1875 
Q 61.625 48.1875 57.5625 43.546875 
Q 53.515625 38.921875 53.515625 30.90625 
L 53.515625 0 
L 44.484375 0 
L 44.484375 32.71875 
Q 44.484375 40.625 41.703125 44.40625 
Q 38.921875 48.1875 33.109375 48.1875 
Q 26.21875 48.1875 22.15625 43.53125 
Q 18.109375 38.875 18.109375 30.90625 
L 18.109375 0 
L 9.078125 0 
L 9.078125 54.6875 
L 18.109375 54.6875 
L 18.109375 46.1875 
Q 21.1875 51.21875 25.484375 53.609375 
Q 29.78125 56 35.6875 56 
Q 41.65625 56 45.828125 52.96875 
Q 50 49.953125 52 44.1875 
z
" id="DejaVuSans-109"/>
       <path d="M 48.6875 27.296875 
Q 48.6875 37.203125 44.609375 42.84375 
Q 40.53125 48.484375 33.40625 48.484375 
Q 26.265625 48.484375 22.1875 42.84375 
Q 18.109375 37.203125 18.109375 27.296875 
Q 18.109375 17.390625 22.1875 11.75 
Q 26.265625 6.109375 33.40625 6.109375 
Q 40.53125 6.109375 44.609375 11.75 
Q 48.6875 17.390625 48.6875 27.296875 
z
M 18.109375 46.390625 
Q 20.953125 51.265625 25.265625 53.625 
Q 29.59375 56 35.59375 56 
Q 45.5625 56 51.78125 48.09375 
Q 58.015625 40.1875 58.015625 27.296875 
Q 58.015625 14.40625 51.78125 6.484375 
Q 45.5625 -1.421875 35.59375 -1.421875 
Q 29.59375 -1.421875 25.265625 0.953125 
Q 20.953125 3.328125 18.109375 8.203125 
L 18.109375 0 
L 9.078125 0 
L 9.078125 75.984375 
L 18.109375 75.984375 
z
" id="DejaVuSans-98"/>
       <path d="M 56.203125 29.59375 
L 56.203125 25.203125 
L 14.890625 25.203125 
Q 15.484375 15.921875 20.484375 11.0625 
Q 25.484375 6.203125 34.421875 6.203125 
Q 39.59375 6.203125 44.453125 7.46875 
Q 49.3125 8.734375 54.109375 11.28125 
L 54.109375 2.78125 
Q 49.265625 0.734375 44.1875 -0.34375 
Q 39.109375 -1.421875 33.890625 -1.421875 
Q 20.796875 -1.421875 13.15625 6.1875 
Q 5.515625 13.8125 5.515625 26.8125 
Q 5.515625 40.234375 12.765625 48.109375 
Q 20.015625 56 32.328125 56 
Q 43.359375 56 49.78125 48.890625 
Q 56.203125 41.796875 56.203125 29.59375 
z
M 47.21875 32.234375 
Q 47.125 39.59375 43.09375 43.984375 
Q 39.0625 48.390625 32.421875 48.390625 
Q 24.90625 48.390625 20.390625 44.140625 
Q 15.875 39.890625 15.1875 32.171875 
z
" id="DejaVuSans-101"/>
       <path d="M 41.109375 46.296875 
Q 39.59375 47.171875 37.8125 47.578125 
Q 36.03125 48 33.890625 48 
Q 26.265625 48 22.1875 43.046875 
Q 18.109375 38.09375 18.109375 28.8125 
L 18.109375 0 
L 9.078125 0 
L 9.078125 54.6875 
L 18.109375 54.6875 
L 18.109375 46.1875 
Q 20.953125 51.171875 25.484375 53.578125 
Q 30.03125 56 36.53125 56 
Q 37.453125 56 38.578125 55.875 
Q 39.703125 55.765625 41.0625 55.515625 
z
" id="DejaVuSans-114"/>
       <path d="M 30.609375 48.390625 
Q 23.390625 48.390625 19.1875 42.75 
Q 14.984375 37.109375 14.984375 27.296875 
Q 14.984375 17.484375 19.15625 11.84375 
Q 23.34375 6.203125 30.609375 6.203125 
Q 37.796875 6.203125 41.984375 11.859375 
Q 46.1875 17.53125 46.1875 27.296875 
Q 46.1875 37.015625 41.984375 42.703125 
Q 37.796875 48.390625 30.609375 48.390625 
z
M 30.609375 56 
Q 42.328125 56 49.015625 48.375 
Q 55.71875 40.765625 55.71875 27.296875 
Q 55.71875 13.875 49.015625 6.21875 
Q 42.328125 -1.421875 30.609375 -1.421875 
Q 18.84375 -1.421875 12.171875 6.21875 
Q 5.515625 13.875 5.515625 27.296875 
Q 5.515625 40.765625 12.171875 48.375 
Q 18.84375 56 30.609375 56 
z
" id="DejaVuSans-111"/>
       <path d="M 37.109375 75.984375 
L 37.109375 68.5 
L 28.515625 68.5 
Q 23.6875 68.5 21.796875 66.546875 
Q 19.921875 64.59375 19.921875 59.515625 
L 19.921875 54.6875 
L 34.71875 54.6875 
L 34.71875 47.703125 
L 19.921875 47.703125 
L 19.921875 0 
L 10.890625 0 
L 10.890625 47.703125 
L 2.296875 47.703125 
L 2.296875 54.6875 
L 10.890625 54.6875 
L 10.890625 58.5 
Q 10.890625 67.625 15.140625 71.796875 
Q 19.390625 75.984375 28.609375 75.984375 
z
" id="DejaVuSans-102"/>
       <path d="M 19.671875 64.796875 
L 19.671875 37.40625 
L 32.078125 37.40625 
Q 38.96875 37.40625 42.71875 40.96875 
Q 46.484375 44.53125 46.484375 51.125 
Q 46.484375 57.671875 42.71875 61.234375 
Q 38.96875 64.796875 32.078125 64.796875 
z
M 9.8125 72.90625 
L 32.078125 72.90625 
Q 44.34375 72.90625 50.609375 67.359375 
Q 56.890625 61.8125 56.890625 51.125 
Q 56.890625 40.328125 50.609375 34.8125 
Q 44.34375 29.296875 32.078125 29.296875 
L 19.671875 29.296875 
L 19.671875 0 
L 9.8125 0 
z
" id="DejaVuSans-80"/>
       <path d="M 34.28125 27.484375 
Q 23.390625 27.484375 19.1875 25 
Q 14.984375 22.515625 14.984375 16.5 
Q 14.984375 11.71875 18.140625 8.90625 
Q 21.296875 6.109375 26.703125 6.109375 
Q 34.1875 6.109375 38.703125 11.40625 
Q 43.21875 16.703125 43.21875 25.484375 
L 43.21875 27.484375 
z
M 52.203125 31.203125 
L 52.203125 0 
L 43.21875 0 
L 43.21875 8.296875 
Q 40.140625 3.328125 35.546875 0.953125 
Q 30.953125 -1.421875 24.3125 -1.421875 
Q 15.921875 -1.421875 10.953125 3.296875 
Q 6 8.015625 6 15.921875 
Q 6 25.140625 12.171875 29.828125 
Q 18.359375 34.515625 30.609375 34.515625 
L 43.21875 34.515625 
L 43.21875 35.40625 
Q 43.21875 41.609375 39.140625 45 
Q 35.0625 48.390625 27.6875 48.390625 
Q 23 48.390625 18.546875 47.265625 
Q 14.109375 46.140625 10.015625 43.890625 
L 10.015625 52.203125 
Q 14.9375 54.109375 19.578125 55.046875 
Q 24.21875 56 28.609375 56 
Q 40.484375 56 46.34375 49.84375 
Q 52.203125 43.703125 52.203125 31.203125 
z
" id="DejaVuSans-97"/>
       <path d="M 18.3125 70.21875 
L 18.3125 54.6875 
L 36.8125 54.6875 
L 36.8125 47.703125 
L 18.3125 47.703125 
L 18.3125 18.015625 
Q 18.3125 11.328125 20.140625 9.421875 
Q 21.96875 7.515625 27.59375 7.515625 
L 36.8125 7.515625 
L 36.8125 0 
L 27.59375 0 
Q 17.1875 0 13.234375 3.875 
Q 9.28125 7.765625 9.28125 18.015625 
L 9.28125 47.703125 
L 2.6875 47.703125 
L 2.6875 54.6875 
L 9.28125 54.6875 
L 9.28125 70.21875 
z
" id="DejaVuSans-116"/>
       <path d="M 9.421875 54.6875 
L 18.40625 54.6875 
L 18.40625 0 
L 9.421875 0 
z
M 9.421875 75.984375 
L 18.40625 75.984375 
L 18.40625 64.59375 
L 9.421875 64.59375 
z
" id="DejaVuSans-105"/>
       <path d="M 48.78125 52.59375 
L 48.78125 44.1875 
Q 44.96875 46.296875 41.140625 47.34375 
Q 37.3125 48.390625 33.40625 48.390625 
Q 24.65625 48.390625 19.8125 42.84375 
Q 14.984375 37.3125 14.984375 27.296875 
Q 14.984375 17.28125 19.8125 11.734375 
Q 24.65625 6.203125 33.40625 6.203125 
Q 37.3125 6.203125 41.140625 7.25 
Q 44.96875 8.296875 48.78125 10.40625 
L 48.78125 2.09375 
Q 45.015625 0.34375 40.984375 -0.53125 
Q 36.96875 -1.421875 32.421875 -1.421875 
Q 20.0625 -1.421875 12.78125 6.34375 
Q 5.515625 14.109375 5.515625 27.296875 
Q 5.515625 40.671875 12.859375 48.328125 
Q 20.21875 56 33.015625 56 
Q 37.15625 56 41.109375 55.140625 
Q 45.0625 54.296875 48.78125 52.59375 
z
" id="DejaVuSans-99"/>
       <path d="M 9.421875 75.984375 
L 18.40625 75.984375 
L 18.40625 0 
L 9.421875 0 
z
" id="DejaVuSans-108"/>
       <path d="M 44.28125 53.078125 
L 44.28125 44.578125 
Q 40.484375 46.53125 36.375 47.5 
Q 32.28125 48.484375 27.875 48.484375 
Q 21.1875 48.484375 17.84375 46.4375 
Q 14.5 44.390625 14.5 40.28125 
Q 14.5 37.15625 16.890625 35.375 
Q 19.28125 33.59375 26.515625 31.984375 
L 29.59375 31.296875 
Q 39.15625 29.25 43.1875 25.515625 
Q 47.21875 21.78125 47.21875 15.09375 
Q 47.21875 7.46875 41.1875 3.015625 
Q 35.15625 -1.421875 24.609375 -1.421875 
Q 20.21875 -1.421875 15.453125 -0.5625 
Q 10.6875 0.296875 5.421875 2 
L 5.421875 11.28125 
Q 10.40625 8.6875 15.234375 7.390625 
Q 20.0625 6.109375 24.8125 6.109375 
Q 31.15625 6.109375 34.5625 8.28125 
Q 37.984375 10.453125 37.984375 14.40625 
Q 37.984375 18.0625 35.515625 20.015625 
Q 33.0625 21.96875 24.703125 23.78125 
L 21.578125 24.515625 
Q 13.234375 26.265625 9.515625 29.90625 
Q 5.8125 33.546875 5.8125 39.890625 
Q 5.8125 47.609375 11.28125 51.796875 
Q 16.75 56 26.8125 56 
Q 31.78125 56 36.171875 55.265625 
Q 40.578125 54.546875 44.28125 53.078125 
z
" id="DejaVuSans-115"/>
       <path d="M 8.015625 75.875 
L 15.828125 75.875 
Q 23.140625 64.359375 26.78125 53.3125 
Q 30.421875 42.28125 30.421875 31.390625 
Q 30.421875 20.453125 26.78125 9.375 
Q 23.140625 -1.703125 15.828125 -13.1875 
L 8.015625 -13.1875 
Q 14.5 -2 17.703125 9.0625 
Q 20.90625 20.125 20.90625 31.390625 
Q 20.90625 42.671875 17.703125 53.65625 
Q 14.5 64.65625 8.015625 75.875 
z
" id="DejaVuSans-41"/>
      </defs>
      <use transform="translate(0 0.015625)" xlink:href="#DejaVuSans-Oblique-75"/>
      <use transform="translate(65.576172 0.015625)" xlink:href="#DejaVuSans-32"/>
      <use transform="translate(97.363281 0.015625)" xlink:href="#DejaVuSans-40"/>
      <use transform="translate(136.376953 0.015625)" xlink:href="#DejaVuSans-78"/>
      <use transform="translate(211.181641 0.015625)" xlink:href="#DejaVuSans-117"/>
      <use transform="translate(274.560547 0.015625)" xlink:href="#DejaVuSans-109"/>
      <use transform="translate(371.972656 0.015625)" xlink:href="#DejaVuSans-98"/>
      <use transform="translate(435.449219 0.015625)" xlink:href="#DejaVuSans-101"/>
      <use transform="translate(496.972656 0.015625)" xlink:href="#DejaVuSans-114"/>
      <use transform="translate(538.085938 0.015625)" xlink:href="#DejaVuSans-32"/>
      <use transform="translate(569.873047 0.015625)" xlink:href="#DejaVuSans-111"/>
      <use transform="translate(631.054688 0.015625)" xlink:href="#DejaVuSans-102"/>
      <use transform="translate(666.259766 0.015625)" xlink:href="#DejaVuSans-32"/>
      <use transform="translate(698.046875 0.015625)" xlink:href="#DejaVuSans-80"/>
      <use transform="translate(758.349609 0.015625)" xlink:href="#DejaVuSans-97"/>
      <use transform="translate(819.628906 0.015625)" xlink:href="#DejaVuSans-114"/>
      <use transform="translate(860.742188 0.015625)" xlink:href="#DejaVuSans-116"/>
      <use transform="translate(899.951172 0.015625)" xlink:href="#DejaVuSans-105"/>
      <use transform="translate(927.734375 0.015625)" xlink:href="#DejaVuSans-99"/>
      <use transform="translate(982.714844 0.015625)" xlink:href="#DejaVuSans-108"/>
      <use transform="translate(1010.498047 0.015625)" xlink:href="#DejaVuSans-101"/>
      <use transform="translate(1072.021484 0.015625)" xlink:href="#DejaVuSans-115"/>
      <use transform="translate(1124.121094 0.015625)" xlink:href="#DejaVuSans-41"/>
     </g>
    </g>
   </g>
   <g id="matplotlib.axis_2">
    <g id="ytick_1">
     <g id="line2d_9">
      <path clip-path="url(#pbd0e759413)" d="M 72 431.126618 
L 518.4 431.126618 
" style="fill:none;stroke:#ffffff;stroke-linecap:round;"/>
     </g>
     <g id="text_10">
      <!-- 0.02 -->
      <g style="fill:#262626;" transform="translate(38.007812 435.305758)scale(0.11 -0.11)">
       <defs>
        <path d="M 10.6875 12.40625 
L 21 12.40625 
L 21 0 
L 10.6875 0 
z
" id="DejaVuSans-46"/>
       </defs>
       <use xlink:href="#DejaVuSans-48"/>
       <use x="63.623047" xlink:href="#DejaVuSans-46"/>
       <use x="95.410156" xlink:href="#DejaVuSans-48"/>
       <use x="159.033203" xlink:href="#DejaVuSans-50"/>
      </g>
     </g>
    </g>
    <g id="ytick_2">
     <g id="line2d_10">
      <path clip-path="url(#pbd0e759413)" d="M 72 333.859874 
L 518.4 333.859874 
" style="fill:none;stroke:#ffffff;stroke-linecap:round;"/>
     </g>
     <g id="text_11">
      <!-- 0.04 -->
      <g style="fill:#262626;" transform="translate(38.007812 338.039015)scale(0.11 -0.11)">
       <use xlink:href="#DejaVuSans-48"/>
       <use x="63.623047" xlink:href="#DejaVuSans-46"/>
       <use x="95.410156" xlink:href="#DejaVuSans-48"/>
       <use x="159.033203" xlink:href="#DejaVuSans-52"/>
      </g>
     </g>
    </g>
    <g id="ytick_3">
     <g id="line2d_11">
      <path clip-path="url(#pbd0e759413)" d="M 72 236.593131 
L 518.4 236.593131 
" style="fill:none;stroke:#ffffff;stroke-linecap:round;"/>
     </g>
     <g id="text_12">
      <!-- 0.06 -->
      <g style="fill:#262626;" transform="translate(38.007812 240.772271)scale(0.11 -0.11)">
       <use xlink:href="#DejaVuSans-48"/>
       <use x="63.623047" xlink:href="#DejaVuSans-46"/>
       <use x="95.410156" xlink:href="#DejaVuSans-48"/>
       <use x="159.033203" xlink:href="#DejaVuSans-54"/>
      </g>
     </g>
    </g>
    <g id="ytick_4">
     <g id="line2d_12">
      <path clip-path="url(#pbd0e759413)" d="M 72 139.326387 
L 518.4 139.326387 
" style="fill:none;stroke:#ffffff;stroke-linecap:round;"/>
     </g>
     <g id="text_13">
      <!-- 0.08 -->
      <g style="fill:#262626;" transform="translate(38.007812 143.505528)scale(0.11 -0.11)">
       <use xlink:href="#DejaVuSans-48"/>
       <use x="63.623047" xlink:href="#DejaVuSans-46"/>
       <use x="95.410156" xlink:href="#DejaVuSans-48"/>
       <use x="159.033203" xlink:href="#DejaVuSans-56"/>
      </g>
     </g>
    </g>
    <g id="text_14">
     <!-- $\sigma^2_{rel}(K)$ -->
     <g style="fill:#262626;" transform="translate(30.527812 309)rotate(-90)scale(0.12 -0.12)">
      <defs>
       <path d="M 34.671875 47.5625 
Q 27.25 47.5625 22.21875 42.1875 
Q 16.890625 36.578125 15.140625 27.296875 
Q 13.1875 17.484375 16.3125 11.8125 
Q 19.390625 6.203125 26.65625 6.203125 
Q 33.84375 6.203125 39.109375 11.859375 
Q 44.4375 17.53125 46.34375 27.296875 
Q 48.046875 36.234375 45.015625 42.1875 
Q 42.1875 47.5625 34.671875 47.5625 
z
M 36.078125 54.734375 
L 65.921875 54.6875 
L 64.15625 45.703125 
L 54.109375 45.703125 
Q 57.90625 38.09375 55.859375 27.296875 
Q 53.21875 13.875 45.0625 6.25 
Q 36.859375 -1.421875 25.140625 -1.421875 
Q 13.375 -1.421875 8.203125 6.25 
Q 3.03125 13.875 5.671875 27.296875 
Q 8.25 40.765625 16.40625 48.390625 
Q 23.1875 54.734375 36.078125 54.734375 
z
" id="DejaVuSans-Oblique-963"/>
       <path d="M 44.578125 46.390625 
Q 43.21875 47.125 41.453125 47.515625 
Q 39.703125 47.90625 37.703125 47.90625 
Q 30.515625 47.90625 25.140625 42.453125 
Q 19.78125 37.015625 18.015625 27.875 
L 12.5 0 
L 3.515625 0 
L 14.203125 54.6875 
L 23.1875 54.6875 
L 21.484375 46.1875 
Q 25.046875 50.921875 30 53.453125 
Q 34.96875 56 40.578125 56 
Q 42.046875 56 43.453125 55.828125 
Q 44.875 55.671875 46.296875 55.28125 
z
" id="DejaVuSans-Oblique-114"/>
       <path d="M 48.09375 32.234375 
Q 48.25 33.015625 48.3125 33.84375 
Q 48.390625 34.671875 48.390625 35.5 
Q 48.390625 41.453125 44.890625 44.921875 
Q 41.40625 48.390625 35.40625 48.390625 
Q 28.71875 48.390625 23.578125 44.15625 
Q 18.453125 39.9375 15.828125 32.171875 
z
M 55.90625 25.203125 
L 14.109375 25.203125 
Q 13.8125 23.34375 13.71875 22.265625 
Q 13.625 21.1875 13.625 20.40625 
Q 13.625 13.625 17.796875 9.90625 
Q 21.96875 6.203125 29.59375 6.203125 
Q 35.453125 6.203125 40.671875 7.515625 
Q 45.90625 8.84375 50.390625 11.375 
L 48.6875 2.484375 
Q 43.84375 0.53125 38.6875 -0.4375 
Q 33.546875 -1.421875 28.21875 -1.421875 
Q 16.84375 -1.421875 10.71875 4.015625 
Q 4.59375 9.46875 4.59375 19.484375 
Q 4.59375 28.03125 7.640625 35.375 
Q 10.6875 42.71875 16.609375 48.484375 
Q 20.40625 52.09375 25.65625 54.046875 
Q 30.90625 56 36.8125 56 
Q 46.09375 56 51.578125 50.4375 
Q 57.078125 44.875 57.078125 35.5 
Q 57.078125 33.25 56.78125 30.6875 
Q 56.5 28.125 55.90625 25.203125 
z
" id="DejaVuSans-Oblique-101"/>
       <path d="M 18.3125 75.984375 
L 27.296875 75.984375 
L 12.5 0 
L 3.515625 0 
z
" id="DejaVuSans-Oblique-108"/>
      </defs>
      <use transform="translate(0 0.701562)" xlink:href="#DejaVuSans-Oblique-963"/>
      <use transform="translate(67.851615 39.046875)scale(0.7)" xlink:href="#DejaVuSans-50"/>
      <use transform="translate(63.378906 -26.642188)scale(0.7)" xlink:href="#DejaVuSans-Oblique-114"/>
      <use transform="translate(92.158203 -26.642188)scale(0.7)" xlink:href="#DejaVuSans-Oblique-101"/>
      <use transform="translate(135.224609 -26.642188)scale(0.7)" xlink:href="#DejaVuSans-Oblique-108"/>
      <use transform="translate(157.407227 0.701562)" xlink:href="#DejaVuSans-40"/>
      <use transform="translate(196.420898 0.701562)" xlink:href="#DejaVuSans-Oblique-75"/>
      <use transform="translate(261.99707 0.701562)" xlink:href="#DejaVuSans-41"/>
     </g>
    </g>
   </g>
   <g id="line2d_13">
    <path clip-path="url(#pbd0e759413)" d="M 92.290909 314.237594 
L 93.6573 107.693292 
L 95.023691 421.060503 
L 96.390083 322.532849 
L 97.756474 279.071744 
L 99.122865 255.832095 
L 100.489256 441.601522 
L 101.855647 440.605475 
L 103.222039 407.847692 
L 104.58843 305.32202 
L 105.954821 457.622446 
L 107.321212 305.140032 
L 108.687603 314.474734 
L 110.053994 446.212259 
L 111.420386 451.577487 
L 112.786777 448.916295 
L 114.153168 368.956224 
L 115.519559 432.886521 
L 116.88595 405.440302 
L 118.252342 439.231084 
L 119.618733 427.795485 
L 120.985124 446.840296 
L 122.351515 406.040741 
L 123.717906 440.613094 
L 125.084298 430.032141 
L 126.450689 447.59013 
L 127.81708 413.794378 
L 129.183471 435.708668 
L 130.549862 432.473721 
L 131.916253 424.998901 
L 133.282645 432.574985 
L 134.649036 467.108832 
L 136.015427 446.3466 
L 137.381818 367.681827 
L 138.748209 443.674612 
L 140.114601 451.657816 
L 141.480992 450.860916 
L 142.847383 436.732912 
L 144.213774 451.042443 
L 145.580165 453.778339 
L 146.946556 438.501199 
L 148.312948 420.5687 
L 149.679339 425.235176 
L 151.04573 456.397969 
L 152.412121 447.02125 
L 153.778512 459.704191 
L 155.144904 457.609112 
L 156.511295 430.283541 
L 157.877686 426.431193 
L 159.244077 456.010877 
L 160.610468 449.696559 
L 161.97686 453.713985 
L 163.343251 443.383102 
L 164.709642 443.435914 
L 166.076033 453.25377 
L 167.442424 457.123938 
L 168.808815 425.778999 
L 170.175207 451.341419 
L 171.541598 449.917423 
L 172.907989 451.98597 
L 174.27438 422.76847 
L 175.640771 448.731455 
L 177.007163 442.215796 
L 178.373554 454.861186 
L 179.739945 407.961233 
L 181.106336 431.676084 
L 182.472727 446.118345 
L 183.839118 443.569569 
L 185.20551 450.731117 
L 186.571901 429.63215 
L 187.938292 455.503783 
L 189.304683 448.689883 
L 190.671074 457.371295 
L 192.037466 460.929833 
L 193.403857 437.400614 
L 194.770248 445.898029 
L 196.136639 452.273738 
L 197.50303 454.444427 
L 198.869421 452.850968 
L 200.235813 449.665239 
L 201.602204 438.251177 
L 202.968595 457.838985 
L 204.334986 428.956473 
L 205.701377 443.072633 
L 207.067769 447.23005 
L 208.43416 450.367677 
L 209.800551 452.644394 
L 211.166942 449.717161 
L 212.533333 457.432053 
L 213.899725 438.242705 
L 215.266116 453.468733 
L 216.632507 454.833358 
L 217.998898 454.504757 
L 219.365289 443.028298 
L 220.73168 442.559828 
L 222.098072 454.864244 
L 223.464463 458.132326 
L 224.830854 446.274645 
L 226.197245 449.925971 
L 227.563636 461.208937 
L 228.930028 438.202437 
L 230.296419 459.030176 
L 231.66281 455.19521 
L 233.029201 443.86839 
L 234.395592 431.048102 
L 235.761983 450.268991 
L 237.128375 443.924499 
L 238.494766 455.888648 
L 239.861157 454.268559 
L 241.227548 455.004034 
L 242.593939 446.556831 
L 243.960331 432.056623 
L 245.326722 450.323212 
L 248.059504 433.317535 
L 249.425895 461.791926 
L 250.792287 453.585666 
L 252.158678 462.91928 
L 253.525069 462.681043 
L 254.89146 446.485532 
L 256.257851 441.564398 
L 257.624242 451.025863 
L 258.990634 450.047889 
L 260.357025 446.526034 
L 261.723416 451.829025 
L 263.089807 458.503621 
L 264.456198 447.738273 
L 265.82259 458.906723 
L 267.188981 452.762152 
L 268.555372 450.934427 
L 269.921763 444.775783 
L 271.288154 444.066416 
L 272.654545 448.211074 
L 274.020937 441.468632 
L 275.387328 451.998763 
L 276.753719 442.548046 
L 278.12011 438.209019 
L 279.486501 450.595747 
L 280.852893 448.722854 
L 282.219284 458.986082 
L 283.585675 450.948753 
L 284.952066 439.341022 
L 286.318457 444.074627 
L 287.684848 459.046211 
L 289.05124 450.176746 
L 290.417631 459.089861 
L 291.784022 455.113919 
L 293.150413 452.33848 
L 294.516804 444.654437 
L 295.883196 453.065844 
L 297.249587 437.457197 
L 298.615978 437.231034 
L 299.982369 461.006689 
L 301.34876 446.024878 
L 302.715152 437.742466 
L 304.081543 452.020524 
L 305.447934 457.307978 
L 306.814325 452.883406 
L 308.180716 460.334112 
L 309.547107 456.561817 
L 310.913499 448.297619 
L 312.27989 459.043691 
L 313.646281 455.963538 
L 315.012672 444.758198 
L 317.745455 459.813682 
L 319.111846 450.44234 
L 320.478237 444.450978 
L 321.844628 453.606884 
L 323.211019 456.990207 
L 324.57741 456.402368 
L 325.943802 446.628396 
L 327.310193 450.379574 
L 328.676584 459.038084 
L 330.042975 447.713525 
L 331.409366 454.745028 
L 332.775758 451.052057 
L 334.142149 445.295722 
L 335.50854 447.751022 
L 336.874931 456.305286 
L 338.241322 447.795383 
L 339.607713 457.205322 
L 340.974105 453.772915 
L 342.340496 451.955813 
L 343.706887 461.997614 
L 345.073278 454.631274 
L 346.439669 445.62482 
L 347.806061 456.679646 
L 349.172452 448.581919 
L 350.538843 452.464608 
L 351.905234 442.816657 
L 353.271625 453.473637 
L 354.638017 446.545384 
L 356.004408 452.240733 
L 357.370799 437.933676 
L 358.73719 456.532478 
L 360.103581 447.143131 
L 361.469972 456.611993 
L 362.836364 455.536885 
L 364.202755 446.647545 
L 365.569146 458.830734 
L 366.935537 456.485126 
L 368.301928 445.314495 
L 369.66832 432.040502 
L 371.034711 456.37856 
L 372.401102 444.004566 
L 373.767493 453.655786 
L 375.133884 459.549385 
L 376.500275 455.261086 
L 377.866667 458.395507 
L 380.599449 432.629521 
L 381.96584 444.390432 
L 383.332231 452.919228 
L 384.698623 437.575033 
L 386.065014 455.481753 
L 387.431405 451.509369 
L 388.797796 450.891796 
L 390.164187 463.16235 
L 391.530579 457.815077 
L 392.89697 447.358045 
L 394.263361 442.482166 
L 395.629752 447.827308 
L 396.996143 445.424217 
L 398.362534 446.101394 
L 399.728926 456.288067 
L 401.095317 455.257437 
L 402.461708 461.427873 
L 403.828099 453.923356 
L 405.19449 450.183762 
L 406.560882 443.904997 
L 407.927273 440.280354 
L 409.293664 453.835113 
L 410.660055 446.122133 
L 412.026446 441.68883 
L 413.392837 451.845197 
L 414.759229 455.206337 
L 416.12562 455.173586 
L 417.492011 456.753474 
L 418.858402 454.048015 
L 420.224793 449.743762 
L 421.591185 454.326926 
L 422.957576 453.742953 
L 424.323967 445.649662 
L 425.690358 450.275545 
L 427.056749 450.537237 
L 428.42314 459.004707 
L 431.155923 442.618684 
L 432.522314 449.965696 
L 433.888705 448.333145 
L 435.255096 453.210168 
L 436.621488 456.798239 
L 437.987879 455.710436 
L 439.35427 449.932071 
L 440.720661 450.197488 
L 443.453444 458.773236 
L 444.819835 442.903965 
L 446.186226 442.396916 
L 447.552617 448.853304 
L 448.919008 456.26794 
L 450.285399 457.036577 
L 451.651791 457.058688 
L 453.018182 455.218002 
L 454.384573 451.141336 
L 455.750964 452.102007 
L 457.117355 449.472891 
L 458.483747 454.455893 
L 459.850138 447.522618 
L 461.216529 459.394094 
L 462.58292 460.271453 
L 463.949311 457.584165 
L 465.315702 449.759452 
L 468.048485 452.759812 
L 469.414876 457.912872 
L 470.781267 443.102217 
L 472.147658 447.064671 
L 473.51405 443.705668 
L 474.880441 443.896488 
L 476.246832 453.458354 
L 477.613223 451.468202 
L 478.979614 455.149404 
L 480.346006 448.705372 
L 481.712397 451.182726 
L 483.078788 439.130435 
L 484.445179 459.317118 
L 485.81157 453.594324 
L 487.177961 453.272685 
L 488.544353 451.340714 
L 489.910744 451.662423 
L 491.277135 454.889787 
L 492.643526 457.74897 
L 494.009917 455.866778 
L 495.376309 446.733849 
L 496.7427 444.926509 
L 498.109091 450.372013 
L 498.109091 450.372013 
" style="fill:none;stroke:#4c72b0;stroke-linecap:round;stroke-width:1.5;"/>
   </g>
   <g id="line2d_14">
    <path clip-path="url(#pbd0e759413)" d="M 92.290909 89.28 
L 93.6573 169.858803 
L 95.023691 217.893326 
L 96.390083 250.673687 
L 97.756474 274.871144 
L 99.122865 293.677397 
L 100.489256 308.836681 
L 101.855647 321.393338 
L 103.222039 332.015896 
L 104.58843 341.154795 
L 105.954821 349.126082 
L 107.321212 356.158931 
L 108.687603 362.424111 
L 110.053994 368.051832 
L 111.420386 373.143344 
L 114.153168 382.022241 
L 116.88595 389.533524 
L 119.618733 395.995701 
L 122.351515 401.632253 
L 125.084298 406.605228 
L 127.81708 411.035379 
L 130.549862 415.014779 
L 133.282645 418.615021 
L 136.015427 421.892728 
L 138.748209 424.89335 
L 141.480992 427.653847 
L 145.580165 431.409444 
L 149.679339 434.774078 
L 153.778512 437.811191 
L 157.877686 440.570689 
L 161.97686 443.092441 
L 167.442424 446.139893 
L 172.907989 448.88245 
L 178.373554 451.367782 
L 183.839118 453.633738 
L 190.671074 456.203569 
L 197.50303 458.525395 
L 204.334986 460.636699 
L 212.533333 462.934206 
L 220.73168 465.012807 
L 230.296419 467.204406 
L 241.227548 469.450643 
L 252.158678 471.466378 
L 264.456198 473.504191 
L 278.12011 475.530325 
L 293.150413 477.519053 
L 309.547107 479.4517 
L 327.310193 481.315467 
L 346.439669 483.102276 
L 368.301928 484.91466 
L 392.89697 486.714566 
L 418.858402 488.39123 
L 448.919008 490.100857 
L 481.712397 491.736886 
L 498.109091 492.48 
L 498.109091 492.48 
" style="fill:none;stroke:#dd8452;stroke-linecap:round;stroke-width:1.5;"/>
   </g>
   <g id="patch_3">
    <path d="M 72 512.64 
L 72 69.12 
" style="fill:none;stroke:#ffffff;stroke-linecap:square;stroke-linejoin:miter;stroke-width:1.25;"/>
   </g>
   <g id="patch_4">
    <path d="M 518.4 512.64 
L 518.4 69.12 
" style="fill:none;stroke:#ffffff;stroke-linecap:square;stroke-linejoin:miter;stroke-width:1.25;"/>
   </g>
   <g id="patch_5">
    <path d="M 72 512.64 
L 518.4 512.64 
" style="fill:none;stroke:#ffffff;stroke-linecap:square;stroke-linejoin:miter;stroke-width:1.25;"/>
   </g>
   <g id="patch_6">
    <path d="M 72 69.12 
L 518.4 69.12 
" style="fill:none;stroke:#ffffff;stroke-linecap:square;stroke-linejoin:miter;stroke-width:1.25;"/>
   </g>
   <g id="legend_1">
    <g id="patch_7">
     <path d="M 442.28 119.94 
L 510.7 119.94 
Q 512.9 119.94 512.9 117.74 
L 512.9 76.82 
Q 512.9 74.62 510.7 74.62 
L 442.28 74.62 
Q 440.08 74.62 440.08 76.82 
L 440.08 117.74 
Q 440.08 119.94 442.28 119.94 
z
" style="fill:#eaeaf2;opacity:0.8;stroke:#cccccc;stroke-linejoin:miter;"/>
    </g>
    <g id="line2d_15">
     <path d="M 444.48 85.18 
L 466.48 85.18 
" style="fill:none;stroke:#4c72b0;stroke-linecap:round;stroke-width:1.5;"/>
    </g>
    <g id="line2d_16"/>
    <g id="text_15">
     <!-- $\sigma^2_{rel}(K)$ -->
     <g style="fill:#262626;" transform="translate(475.28 89.03)scale(0.11 -0.11)">
      <use transform="translate(0 0.701562)" xlink:href="#DejaVuSans-Oblique-963"/>
      <use transform="translate(67.851615 39.046875)scale(0.7)" xlink:href="#DejaVuSans-50"/>
      <use transform="translate(63.378906 -26.642188)scale(0.7)" xlink:href="#DejaVuSans-Oblique-114"/>
      <use transform="translate(92.158203 -26.642188)scale(0.7)" xlink:href="#DejaVuSans-Oblique-101"/>
      <use transform="translate(135.224609 -26.642188)scale(0.7)" xlink:href="#DejaVuSans-Oblique-108"/>
      <use transform="translate(157.407227 0.701562)" xlink:href="#DejaVuSans-40"/>
      <use transform="translate(196.420898 0.701562)" xlink:href="#DejaVuSans-Oblique-75"/>
      <use transform="translate(261.99707 0.701562)" xlink:href="#DejaVuSans-41"/>
     </g>
    </g>
    <g id="line2d_17">
     <path d="M 444.48 104.54 
L 466.48 104.54 
" style="fill:none;stroke:#dd8452;stroke-linecap:round;stroke-width:1.5;"/>
    </g>
    <g id="line2d_18"/>
    <g id="text_16">
     <!-- $\frac{0.286}{\sqrt{K}}$ -->
     <g style="fill:#262626;" transform="translate(475.28 108.39)scale(0.11 -0.11)">
      <defs>
       <path d="M 108.90625 155.203125 
L 52.703125 -29.5 
L 48.5 -29.5 
L 25.40625 45.59375 
Q 24.296875 49.203125 22.890625 50.796875 
Q 21.5 52.40625 19.203125 52.40625 
Q 15.796875 52.40625 12.40625 49.703125 
L 11.203125 51.703125 
L 27.59375 64.296875 
L 30.09375 64.296875 
L 52.796875 -9.40625 
L 53.203125 -9.40625 
L 103.203125 155.203125 
z
" id="STIXSizeOneSym-Regular-8730"/>
      </defs>
      <use transform="translate(0 45.046875)scale(0.7)" xlink:href="#DejaVuSans-48"/>
      <use transform="translate(44.536133 45.046875)scale(0.7)" xlink:href="#DejaVuSans-46"/>
      <use transform="translate(62.937109 45.046875)scale(0.7)" xlink:href="#DejaVuSans-50"/>
      <use transform="translate(107.473242 45.046875)scale(0.7)" xlink:href="#DejaVuSans-56"/>
      <use transform="translate(152.009375 45.046875)scale(0.7)" xlink:href="#DejaVuSans-54"/>
      <use transform="translate(46 -52.232812)scale(0.394738)" xlink:href="#STIXSizeOneSym-Regular-8730"/>
      <use transform="translate(96.461855 -63.607812)scale(0.7)" xlink:href="#DejaVuSans-Oblique-75"/>
      <path d="M 0 19.051563 
L 0 25.301563 
L 196.545508 25.301563 
L 196.545508 19.051563 
L 0 19.051563 
z
"/>
      <path d="M 87.711855 4.051563 
L 87.711855 8.426563 
L 151.115175 8.426563 
L 151.115175 4.051563 
L 87.711855 4.051563 
z
"/>
     </g>
    </g>
   </g>
  </g>
 </g>
 <defs>
  <clipPath id="pbd0e759413">
   <rect height="443.52" width="446.4" x="72" y="69.12"/>
  </clipPath>
 </defs>
</svg>
