<?xml version="1.0" encoding="utf-8" standalone="no"?>
<!DOCTYPE svg PUBLIC "-//W3C//DTD SVG 1.1//EN"
  "http://www.w3.org/Graphics/SVG/1.1/DTD/svg11.dtd">
<!-- Created with matplotlib (https://matplotlib.org/) -->
<svg height="576pt" version="1.1" viewBox="0 0 576 576" width="576pt" xmlns="http://www.w3.org/2000/svg" xmlns:xlink="http://www.w3.org/1999/xlink">
 <metadata>
  <rdf:RDF xmlns:cc="http://creativecommons.org/ns#" xmlns:dc="http://purl.org/dc/elements/1.1/" xmlns:rdf="http://www.w3.org/1999/02/22-rdf-syntax-ns#">
   <cc:Work>
    <dc:type rdf:resource="http://purl.org/dc/dcmitype/StillImage"/>
    <dc:date>2021-03-20T18:15:35.732219</dc:date>
    <dc:format>image/svg+xml</dc:format>
    <dc:creator>
     <cc:Agent>
      <dc:title>Matplotlib v3.3.3, https://matplotlib.org/</dc:title>
     </cc:Agent>
    </dc:creator>
   </cc:Work>
  </rdf:RDF>
 </metadata>
 <defs>
  <style type="text/css">*{stroke-linecap:butt;stroke-linejoin:round;}</style>
 </defs>
 <g id="figure_1">
  <g id="patch_1">
   <path d="M 0 576 
L 576 576 
L 576 0 
L 0 0 
z
" style="fill:#ffffff;"/>
  </g>
  <g id="axes_1">
   <g id="patch_2">
    <path d="M 72 512.64 
L 518.4 512.64 
L 518.4 69.12 
L 72 69.12 
z
" style="fill:#eaeaf2;"/>
   </g>
   <g id="matplotlib.axis_1">
    <g id="xtick_1">
     <g id="line2d_1">
      <path clip-path="url(#pd513e3fa97)" d="M 92.290909 512.64 
L 92.290909 69.12 
" style="fill:none;stroke:#ffffff;stroke-linecap:round;"/>
     </g>
     <g id="text_1">
      <!-- 0 -->
      <g style="fill:#262626;" transform="translate(88.791534 530.498281)scale(0.11 -0.11)">
       <defs>
        <path d="M 31.78125 66.40625 
Q 24.171875 66.40625 20.328125 58.90625 
Q 16.5 51.421875 16.5 36.375 
Q 16.5 21.390625 20.328125 13.890625 
Q 24.171875 6.390625 31.78125 6.390625 
Q 39.453125 6.390625 43.28125 13.890625 
Q 47.125 21.390625 47.125 36.375 
Q 47.125 51.421875 43.28125 58.90625 
Q 39.453125 66.40625 31.78125 66.40625 
z
M 31.78125 74.21875 
Q 44.046875 74.21875 50.515625 64.515625 
Q 56.984375 54.828125 56.984375 36.375 
Q 56.984375 17.96875 50.515625 8.265625 
Q 44.046875 -1.421875 31.78125 -1.421875 
Q 19.53125 -1.421875 13.0625 8.265625 
Q 6.59375 17.96875 6.59375 36.375 
Q 6.59375 54.828125 13.0625 64.515625 
Q 19.53125 74.21875 31.78125 74.21875 
z
" id="DejaVuSans-48"/>
       </defs>
       <use xlink:href="#DejaVuSans-48"/>
      </g>
     </g>
    </g>
    <g id="xtick_2">
     <g id="line2d_2">
      <path clip-path="url(#pd513e3fa97)" d="M 173.455357 512.64 
L 173.455357 69.12 
" style="fill:none;stroke:#ffffff;stroke-linecap:round;"/>
     </g>
     <g id="text_2">
      <!-- 20000 -->
      <g style="fill:#262626;" transform="translate(155.958482 530.498281)scale(0.11 -0.11)">
       <defs>
        <path d="M 19.1875 8.296875 
L 53.609375 8.296875 
L 53.609375 0 
L 7.328125 0 
L 7.328125 8.296875 
Q 12.9375 14.109375 22.625 23.890625 
Q 32.328125 33.6875 34.8125 36.53125 
Q 39.546875 41.84375 41.421875 45.53125 
Q 43.3125 49.21875 43.3125 52.78125 
Q 43.3125 58.59375 39.234375 62.25 
Q 35.15625 65.921875 28.609375 65.921875 
Q 23.96875 65.921875 18.8125 64.3125 
Q 13.671875 62.703125 7.8125 59.421875 
L 7.8125 69.390625 
Q 13.765625 71.78125 18.9375 73 
Q 24.125 74.21875 28.421875 74.21875 
Q 39.75 74.21875 46.484375 68.546875 
Q 53.21875 62.890625 53.21875 53.421875 
Q 53.21875 48.921875 51.53125 44.890625 
Q 49.859375 40.875 45.40625 35.40625 
Q 44.1875 33.984375 37.640625 27.21875 
Q 31.109375 20.453125 19.1875 8.296875 
z
" id="DejaVuSans-50"/>
       </defs>
       <use xlink:href="#DejaVuSans-50"/>
       <use x="63.623047" xlink:href="#DejaVuSans-48"/>
       <use x="127.246094" xlink:href="#DejaVuSans-48"/>
       <use x="190.869141" xlink:href="#DejaVuSans-48"/>
       <use x="254.492188" xlink:href="#DejaVuSans-48"/>
      </g>
     </g>
    </g>
    <g id="xtick_3">
     <g id="line2d_3">
      <path clip-path="url(#pd513e3fa97)" d="M 254.619805 512.64 
L 254.619805 69.12 
" style="fill:none;stroke:#ffffff;stroke-linecap:round;"/>
     </g>
     <g id="text_3">
      <!-- 40000 -->
      <g style="fill:#262626;" transform="translate(237.12293 530.498281)scale(0.11 -0.11)">
       <defs>
        <path d="M 37.796875 64.3125 
L 12.890625 25.390625 
L 37.796875 25.390625 
z
M 35.203125 72.90625 
L 47.609375 72.90625 
L 47.609375 25.390625 
L 58.015625 25.390625 
L 58.015625 17.1875 
L 47.609375 17.1875 
L 47.609375 0 
L 37.796875 0 
L 37.796875 17.1875 
L 4.890625 17.1875 
L 4.890625 26.703125 
z
" id="DejaVuSans-52"/>
       </defs>
       <use xlink:href="#DejaVuSans-52"/>
       <use x="63.623047" xlink:href="#DejaVuSans-48"/>
       <use x="127.246094" xlink:href="#DejaVuSans-48"/>
       <use x="190.869141" xlink:href="#DejaVuSans-48"/>
       <use x="254.492188" xlink:href="#DejaVuSans-48"/>
      </g>
     </g>
    </g>
    <g id="xtick_4">
     <g id="line2d_4">
      <path clip-path="url(#pd513e3fa97)" d="M 335.784253 512.64 
L 335.784253 69.12 
" style="fill:none;stroke:#ffffff;stroke-linecap:round;"/>
     </g>
     <g id="text_4">
      <!-- 60000 -->
      <g style="fill:#262626;" transform="translate(318.287378 530.498281)scale(0.11 -0.11)">
       <defs>
        <path d="M 33.015625 40.375 
Q 26.375 40.375 22.484375 35.828125 
Q 18.609375 31.296875 18.609375 23.390625 
Q 18.609375 15.53125 22.484375 10.953125 
Q 26.375 6.390625 33.015625 6.390625 
Q 39.65625 6.390625 43.53125 10.953125 
Q 47.40625 15.53125 47.40625 23.390625 
Q 47.40625 31.296875 43.53125 35.828125 
Q 39.65625 40.375 33.015625 40.375 
z
M 52.59375 71.296875 
L 52.59375 62.3125 
Q 48.875 64.0625 45.09375 64.984375 
Q 41.3125 65.921875 37.59375 65.921875 
Q 27.828125 65.921875 22.671875 59.328125 
Q 17.53125 52.734375 16.796875 39.40625 
Q 19.671875 43.65625 24.015625 45.921875 
Q 28.375 48.1875 33.59375 48.1875 
Q 44.578125 48.1875 50.953125 41.515625 
Q 57.328125 34.859375 57.328125 23.390625 
Q 57.328125 12.15625 50.6875 5.359375 
Q 44.046875 -1.421875 33.015625 -1.421875 
Q 20.359375 -1.421875 13.671875 8.265625 
Q 6.984375 17.96875 6.984375 36.375 
Q 6.984375 53.65625 15.1875 63.9375 
Q 23.390625 74.21875 37.203125 74.21875 
Q 40.921875 74.21875 44.703125 73.484375 
Q 48.484375 72.75 52.59375 71.296875 
z
" id="DejaVuSans-54"/>
       </defs>
       <use xlink:href="#DejaVuSans-54"/>
       <use x="63.623047" xlink:href="#DejaVuSans-48"/>
       <use x="127.246094" xlink:href="#DejaVuSans-48"/>
       <use x="190.869141" xlink:href="#DejaVuSans-48"/>
       <use x="254.492188" xlink:href="#DejaVuSans-48"/>
      </g>
     </g>
    </g>
    <g id="xtick_5">
     <g id="line2d_5">
      <path clip-path="url(#pd513e3fa97)" d="M 416.948701 512.64 
L 416.948701 69.12 
" style="fill:none;stroke:#ffffff;stroke-linecap:round;"/>
     </g>
     <g id="text_5">
      <!-- 80000 -->
      <g style="fill:#262626;" transform="translate(399.451826 530.498281)scale(0.11 -0.11)">
       <defs>
        <path d="M 31.78125 34.625 
Q 24.75 34.625 20.71875 30.859375 
Q 16.703125 27.09375 16.703125 20.515625 
Q 16.703125 13.921875 20.71875 10.15625 
Q 24.75 6.390625 31.78125 6.390625 
Q 38.8125 6.390625 42.859375 10.171875 
Q 46.921875 13.96875 46.921875 20.515625 
Q 46.921875 27.09375 42.890625 30.859375 
Q 38.875 34.625 31.78125 34.625 
z
M 21.921875 38.8125 
Q 15.578125 40.375 12.03125 44.71875 
Q 8.5 49.078125 8.5 55.328125 
Q 8.5 64.0625 14.71875 69.140625 
Q 20.953125 74.21875 31.78125 74.21875 
Q 42.671875 74.21875 48.875 69.140625 
Q 55.078125 64.0625 55.078125 55.328125 
Q 55.078125 49.078125 51.53125 44.71875 
Q 48 40.375 41.703125 38.8125 
Q 48.828125 37.15625 52.796875 32.3125 
Q 56.78125 27.484375 56.78125 20.515625 
Q 56.78125 9.90625 50.3125 4.234375 
Q 43.84375 -1.421875 31.78125 -1.421875 
Q 19.734375 -1.421875 13.25 4.234375 
Q 6.78125 9.90625 6.78125 20.515625 
Q 6.78125 27.484375 10.78125 32.3125 
Q 14.796875 37.15625 21.921875 38.8125 
z
M 18.3125 54.390625 
Q 18.3125 48.734375 21.84375 45.5625 
Q 25.390625 42.390625 31.78125 42.390625 
Q 38.140625 42.390625 41.71875 45.5625 
Q 45.3125 48.734375 45.3125 54.390625 
Q 45.3125 60.0625 41.71875 63.234375 
Q 38.140625 66.40625 31.78125 66.40625 
Q 25.390625 66.40625 21.84375 63.234375 
Q 18.3125 60.0625 18.3125 54.390625 
z
" id="DejaVuSans-56"/>
       </defs>
       <use xlink:href="#DejaVuSans-56"/>
       <use x="63.623047" xlink:href="#DejaVuSans-48"/>
       <use x="127.246094" xlink:href="#DejaVuSans-48"/>
       <use x="190.869141" xlink:href="#DejaVuSans-48"/>
       <use x="254.492188" xlink:href="#DejaVuSans-48"/>
      </g>
     </g>
    </g>
    <g id="xtick_6">
     <g id="line2d_6">
      <path clip-path="url(#pd513e3fa97)" d="M 498.113149 512.64 
L 498.113149 69.12 
" style="fill:none;stroke:#ffffff;stroke-linecap:round;"/>
     </g>
     <g id="text_6">
      <!-- 100000 -->
      <g style="fill:#262626;" transform="translate(477.116899 530.498281)scale(0.11 -0.11)">
       <defs>
        <path d="M 12.40625 8.296875 
L 28.515625 8.296875 
L 28.515625 63.921875 
L 10.984375 60.40625 
L 10.984375 69.390625 
L 28.421875 72.90625 
L 38.28125 72.90625 
L 38.28125 8.296875 
L 54.390625 8.296875 
L 54.390625 0 
L 12.40625 0 
z
" id="DejaVuSans-49"/>
       </defs>
       <use xlink:href="#DejaVuSans-49"/>
       <use x="63.623047" xlink:href="#DejaVuSans-48"/>
       <use x="127.246094" xlink:href="#DejaVuSans-48"/>
       <use x="190.869141" xlink:href="#DejaVuSans-48"/>
       <use x="254.492188" xlink:href="#DejaVuSans-48"/>
       <use x="318.115234" xlink:href="#DejaVuSans-48"/>
      </g>
     </g>
    </g>
    <g id="text_7">
     <!-- $t$ -->
     <g style="fill:#262626;" transform="translate(292.8 545.904063)scale(0.12 -0.12)">
      <defs>
       <path d="M 42.28125 54.6875 
L 40.921875 47.703125 
L 23 47.703125 
L 17.1875 18.015625 
Q 16.890625 16.359375 16.75 15.234375 
Q 16.609375 14.109375 16.609375 13.484375 
Q 16.609375 10.359375 18.484375 8.9375 
Q 20.359375 7.515625 24.515625 7.515625 
L 33.59375 7.515625 
L 32.078125 0 
L 23.484375 0 
Q 15.484375 0 11.546875 3.125 
Q 7.625 6.25 7.625 12.59375 
Q 7.625 13.71875 7.765625 15.0625 
Q 7.90625 16.40625 8.203125 18.015625 
L 14.015625 47.703125 
L 6.390625 47.703125 
L 7.8125 54.6875 
L 15.28125 54.6875 
L 18.3125 70.21875 
L 27.296875 70.21875 
L 24.3125 54.6875 
z
" id="DejaVuSans-Oblique-116"/>
      </defs>
      <use transform="translate(0 0.78125)" xlink:href="#DejaVuSans-Oblique-116"/>
     </g>
    </g>
   </g>
   <g id="matplotlib.axis_2">
    <g id="ytick_1">
     <g id="line2d_7">
      <path clip-path="url(#pd513e3fa97)" d="M 72 492.48 
L 518.4 492.48 
" style="fill:none;stroke:#ffffff;stroke-linecap:round;"/>
     </g>
     <g id="text_8">
      <!-- 0.0 -->
      <g style="fill:#262626;" transform="translate(45.006563 496.659141)scale(0.11 -0.11)">
       <defs>
        <path d="M 10.6875 12.40625 
L 21 12.40625 
L 21 0 
L 10.6875 0 
z
" id="DejaVuSans-46"/>
       </defs>
       <use xlink:href="#DejaVuSans-48"/>
       <use x="63.623047" xlink:href="#DejaVuSans-46"/>
       <use x="95.410156" xlink:href="#DejaVuSans-48"/>
      </g>
     </g>
    </g>
    <g id="ytick_2">
     <g id="line2d_8">
      <path clip-path="url(#pd513e3fa97)" d="M 72 417.344894 
L 518.4 417.344894 
" style="fill:none;stroke:#ffffff;stroke-linecap:round;"/>
     </g>
     <g id="text_9">
      <!-- 0.5 -->
      <g style="fill:#262626;" transform="translate(45.006563 421.524035)scale(0.11 -0.11)">
       <defs>
        <path d="M 10.796875 72.90625 
L 49.515625 72.90625 
L 49.515625 64.59375 
L 19.828125 64.59375 
L 19.828125 46.734375 
Q 21.96875 47.46875 24.109375 47.828125 
Q 26.265625 48.1875 28.421875 48.1875 
Q 40.625 48.1875 47.75 41.5 
Q 54.890625 34.8125 54.890625 23.390625 
Q 54.890625 11.625 47.5625 5.09375 
Q 40.234375 -1.421875 26.90625 -1.421875 
Q 22.3125 -1.421875 17.546875 -0.640625 
Q 12.796875 0.140625 7.71875 1.703125 
L 7.71875 11.625 
Q 12.109375 9.234375 16.796875 8.0625 
Q 21.484375 6.890625 26.703125 6.890625 
Q 35.15625 6.890625 40.078125 11.328125 
Q 45.015625 15.765625 45.015625 23.390625 
Q 45.015625 31 40.078125 35.4375 
Q 35.15625 39.890625 26.703125 39.890625 
Q 22.75 39.890625 18.8125 39.015625 
Q 14.890625 38.140625 10.796875 36.28125 
z
" id="DejaVuSans-53"/>
       </defs>
       <use xlink:href="#DejaVuSans-48"/>
       <use x="63.623047" xlink:href="#DejaVuSans-46"/>
       <use x="95.410156" xlink:href="#DejaVuSans-53"/>
      </g>
     </g>
    </g>
    <g id="ytick_3">
     <g id="line2d_9">
      <path clip-path="url(#pd513e3fa97)" d="M 72 342.209788 
L 518.4 342.209788 
" style="fill:none;stroke:#ffffff;stroke-linecap:round;"/>
     </g>
     <g id="text_10">
      <!-- 1.0 -->
      <g style="fill:#262626;" transform="translate(45.006563 346.388929)scale(0.11 -0.11)">
       <use xlink:href="#DejaVuSans-49"/>
       <use x="63.623047" xlink:href="#DejaVuSans-46"/>
       <use x="95.410156" xlink:href="#DejaVuSans-48"/>
      </g>
     </g>
    </g>
    <g id="ytick_4">
     <g id="line2d_10">
      <path clip-path="url(#pd513e3fa97)" d="M 72 267.074682 
L 518.4 267.074682 
" style="fill:none;stroke:#ffffff;stroke-linecap:round;"/>
     </g>
     <g id="text_11">
      <!-- 1.5 -->
      <g style="fill:#262626;" transform="translate(45.006563 271.253823)scale(0.11 -0.11)">
       <use xlink:href="#DejaVuSans-49"/>
       <use x="63.623047" xlink:href="#DejaVuSans-46"/>
       <use x="95.410156" xlink:href="#DejaVuSans-53"/>
      </g>
     </g>
    </g>
    <g id="ytick_5">
     <g id="line2d_11">
      <path clip-path="url(#pd513e3fa97)" d="M 72 191.939576 
L 518.4 191.939576 
" style="fill:none;stroke:#ffffff;stroke-linecap:round;"/>
     </g>
     <g id="text_12">
      <!-- 2.0 -->
      <g style="fill:#262626;" transform="translate(45.006563 196.118717)scale(0.11 -0.11)">
       <use xlink:href="#DejaVuSans-50"/>
       <use x="63.623047" xlink:href="#DejaVuSans-46"/>
       <use x="95.410156" xlink:href="#DejaVuSans-48"/>
      </g>
     </g>
    </g>
    <g id="ytick_6">
     <g id="line2d_12">
      <path clip-path="url(#pd513e3fa97)" d="M 72 116.80447 
L 518.4 116.80447 
" style="fill:none;stroke:#ffffff;stroke-linecap:round;"/>
     </g>
     <g id="text_13">
      <!-- 2.5 -->
      <g style="fill:#262626;" transform="translate(45.006563 120.983611)scale(0.11 -0.11)">
       <use xlink:href="#DejaVuSans-50"/>
       <use x="63.623047" xlink:href="#DejaVuSans-46"/>
       <use x="95.410156" xlink:href="#DejaVuSans-53"/>
      </g>
     </g>
    </g>
    <g id="text_14">
     <!-- $&lt;r^2(t)&gt;$ -->
     <g style="fill:#262626;" transform="translate(38.510937 318.24)rotate(-90)scale(0.12 -0.12)">
      <defs>
       <path d="M 73.1875 49.21875 
L 22.796875 31.296875 
L 73.1875 13.484375 
L 73.1875 4.59375 
L 10.59375 27.296875 
L 10.59375 35.40625 
L 73.1875 58.109375 
z
" id="DejaVuSans-60"/>
       <path d="M 44.578125 46.390625 
Q 43.21875 47.125 41.453125 47.515625 
Q 39.703125 47.90625 37.703125 47.90625 
Q 30.515625 47.90625 25.140625 42.453125 
Q 19.78125 37.015625 18.015625 27.875 
L 12.5 0 
L 3.515625 0 
L 14.203125 54.6875 
L 23.1875 54.6875 
L 21.484375 46.1875 
Q 25.046875 50.921875 30 53.453125 
Q 34.96875 56 40.578125 56 
Q 42.046875 56 43.453125 55.828125 
Q 44.875 55.671875 46.296875 55.28125 
z
" id="DejaVuSans-Oblique-114"/>
       <path d="M 31 75.875 
Q 24.46875 64.65625 21.28125 53.65625 
Q 18.109375 42.671875 18.109375 31.390625 
Q 18.109375 20.125 21.3125 9.0625 
Q 24.515625 -2 31 -13.1875 
L 23.1875 -13.1875 
Q 15.875 -1.703125 12.234375 9.375 
Q 8.59375 20.453125 8.59375 31.390625 
Q 8.59375 42.28125 12.203125 53.3125 
Q 15.828125 64.359375 23.1875 75.875 
z
" id="DejaVuSans-40"/>
       <path d="M 8.015625 75.875 
L 15.828125 75.875 
Q 23.140625 64.359375 26.78125 53.3125 
Q 30.421875 42.28125 30.421875 31.390625 
Q 30.421875 20.453125 26.78125 9.375 
Q 23.140625 -1.703125 15.828125 -13.1875 
L 8.015625 -13.1875 
Q 14.5 -2 17.703125 9.0625 
Q 20.90625 20.125 20.90625 31.390625 
Q 20.90625 42.671875 17.703125 53.65625 
Q 14.5 64.65625 8.015625 75.875 
z
" id="DejaVuSans-41"/>
       <path d="M 10.59375 49.21875 
L 10.59375 58.109375 
L 73.1875 35.40625 
L 73.1875 27.296875 
L 10.59375 4.59375 
L 10.59375 13.484375 
L 60.890625 31.296875 
z
" id="DejaVuSans-62"/>
      </defs>
      <use transform="translate(19.482422 0.765625)" xlink:href="#DejaVuSans-60"/>
      <use transform="translate(122.753906 0.765625)" xlink:href="#DejaVuSans-Oblique-114"/>
      <use transform="translate(168.517083 39.046875)scale(0.7)" xlink:href="#DejaVuSans-50"/>
      <use transform="translate(215.787591 0.765625)" xlink:href="#DejaVuSans-40"/>
      <use transform="translate(254.801263 0.765625)" xlink:href="#DejaVuSans-Oblique-116"/>
      <use transform="translate(294.010247 0.765625)" xlink:href="#DejaVuSans-41"/>
      <use transform="translate(352.506341 0.765625)" xlink:href="#DejaVuSans-62"/>
     </g>
    </g>
    <g id="text_15">
     <!-- 1e9 -->
     <g style="fill:#262626;" transform="translate(72 66.12)scale(0.11 -0.11)">
      <defs>
       <path d="M 56.203125 29.59375 
L 56.203125 25.203125 
L 14.890625 25.203125 
Q 15.484375 15.921875 20.484375 11.0625 
Q 25.484375 6.203125 34.421875 6.203125 
Q 39.59375 6.203125 44.453125 7.46875 
Q 49.3125 8.734375 54.109375 11.28125 
L 54.109375 2.78125 
Q 49.265625 0.734375 44.1875 -0.34375 
Q 39.109375 -1.421875 33.890625 -1.421875 
Q 20.796875 -1.421875 13.15625 6.1875 
Q 5.515625 13.8125 5.515625 26.8125 
Q 5.515625 40.234375 12.765625 48.109375 
Q 20.015625 56 32.328125 56 
Q 43.359375 56 49.78125 48.890625 
Q 56.203125 41.796875 56.203125 29.59375 
z
M 47.21875 32.234375 
Q 47.125 39.59375 43.09375 43.984375 
Q 39.0625 48.390625 32.421875 48.390625 
Q 24.90625 48.390625 20.390625 44.140625 
Q 15.875 39.890625 15.1875 32.171875 
z
" id="DejaVuSans-101"/>
       <path d="M 10.984375 1.515625 
L 10.984375 10.5 
Q 14.703125 8.734375 18.5 7.8125 
Q 22.3125 6.890625 25.984375 6.890625 
Q 35.75 6.890625 40.890625 13.453125 
Q 46.046875 20.015625 46.78125 33.40625 
Q 43.953125 29.203125 39.59375 26.953125 
Q 35.25 24.703125 29.984375 24.703125 
Q 19.046875 24.703125 12.671875 31.3125 
Q 6.296875 37.9375 6.296875 49.421875 
Q 6.296875 60.640625 12.9375 67.421875 
Q 19.578125 74.21875 30.609375 74.21875 
Q 43.265625 74.21875 49.921875 64.515625 
Q 56.59375 54.828125 56.59375 36.375 
Q 56.59375 19.140625 48.40625 8.859375 
Q 40.234375 -1.421875 26.421875 -1.421875 
Q 22.703125 -1.421875 18.890625 -0.6875 
Q 15.09375 0.046875 10.984375 1.515625 
z
M 30.609375 32.421875 
Q 37.25 32.421875 41.125 36.953125 
Q 45.015625 41.5 45.015625 49.421875 
Q 45.015625 57.28125 41.125 61.84375 
Q 37.25 66.40625 30.609375 66.40625 
Q 23.96875 66.40625 20.09375 61.84375 
Q 16.21875 57.28125 16.21875 49.421875 
Q 16.21875 41.5 20.09375 36.953125 
Q 23.96875 32.421875 30.609375 32.421875 
z
" id="DejaVuSans-57"/>
      </defs>
      <use xlink:href="#DejaVuSans-49"/>
      <use x="63.623047" xlink:href="#DejaVuSans-101"/>
      <use x="125.146484" xlink:href="#DejaVuSans-57"/>
     </g>
    </g>
   </g>
   <g id="line2d_13">
    <path clip-path="url(#pd513e3fa97)" d="M 92.290909 492.48 
L 99.141189 492.369253 
L 100.711721 492.310275 
L 101.738451 492.266717 
L 104.778059 492.125539 
L 105.041844 492.109836 
L 106.953267 491.982151 
L 107.712154 491.924151 
L 108.787583 491.844466 
L 120.207421 490.643645 
L 120.418449 490.615989 
L 120.91761 490.551147 
L 121.185453 490.512868 
L 121.623741 490.44555 
L 123.916636 490.080339 
L 124.06679 490.061336 
L 125.052939 489.93484 
L 125.349189 489.879117 
L 126.712751 489.653625 
L 132.938065 488.57296 
L 133.116626 488.528095 
L 134.244812 488.317527 
L 134.634402 488.217626 
L 141.119441 486.66969 
L 141.375109 486.609517 
L 141.553671 486.570698 
L 141.768757 486.525201 
L 142.198928 486.424426 
L 142.6291 486.309866 
L 142.860418 486.273493 
L 145.214187 485.610297 
L 145.376516 485.570964 
L 145.587544 485.47411 
L 145.822921 485.414168 
L 146.228743 485.315716 
L 146.39513 485.272469 
L 148.180748 484.812078 
L 148.383659 484.756449 
L 148.76919 484.638272 
L 152.214621 483.621527 
L 152.340426 483.579889 
L 153.959657 483.067935 
L 154.276198 482.914723 
L 154.966096 482.689964 
L 156.341833 482.320703 
L 156.491987 482.293402 
L 158.009763 481.893871 
L 158.431818 481.737611 
L 158.58603 481.675001 
L 158.784883 481.588436 
L 158.788941 481.591939 
L 160.359473 481.047351 
L 160.582676 480.975785 
L 160.882984 480.846473 
L 161.114303 480.756453 
L 161.585057 480.584597 
L 173.589278 476.309243 
L 173.743491 476.231742 
L 185.849168 471.064438 
L 186.206292 470.947246 
L 186.632405 470.749048 
L 187.00982 470.556326 
L 187.249255 470.415502 
L 187.472457 470.281161 
L 196.189519 466.070166 
L 196.290975 466.004927 
L 196.295033 465.987995 
L 196.453303 465.933314 
L 196.903766 465.712394 
L 196.988989 465.701773 
L 197.00928 465.680795 
L 197.695119 465.308817 
L 201.64377 463.321694 
L 201.842623 463.241588 
L 202.678617 462.696443 
L 202.885586 462.614759 
L 203.153429 462.418034 
L 203.559251 462.232188 
L 203.741871 462.13107 
L 205.18254 461.238719 
L 205.308345 461.162873 
L 205.783157 460.850978 
L 205.990126 460.710464 
L 208.193741 459.424191 
L 208.376361 459.291501 
L 208.542748 459.201345 
L 208.7903 459.076505 
L 209.938776 458.429242 
L 210.088931 458.349217 
L 210.324308 458.141531 
L 210.563743 457.982012 
L 210.855935 457.750517 
L 210.969565 457.686065 
L 211.452493 457.414536 
L 211.456552 457.422922 
L 211.704103 457.311445 
L 213.976708 455.836875 
L 214.147153 455.728405 
L 214.776178 455.309553 
L 214.897924 455.234662 
L 215.376794 454.992806 
L 215.510716 454.838933 
L 215.518832 454.84648 
L 215.977411 454.494735 
L 216.103216 454.395321 
L 216.237138 454.317446 
L 216.444107 454.19294 
L 216.967618 453.854642 
L 217.223286 453.759763 
L 224.832453 448.929152 
L 225.080004 448.766416 
L 226.033687 448.091543 
L 226.041803 448.104217 
L 226.078327 448.058897 
L 226.131084 448.044028 
L 226.325879 447.910111 
L 226.569372 447.704538 
L 226.719526 447.571677 
L 227.697558 446.864791 
L 227.839595 446.75275 
L 228.087147 446.582826 
L 228.237301 446.481818 
L 228.846035 446.088103 
L 229.020538 445.934281 
L 229.150401 445.84138 
L 230.282645 444.891258 
L 230.501789 444.743449 
L 230.631652 444.65321 
L 230.818331 444.510977 
L 231.451413 444.060517 
L 231.455472 444.066395 
L 231.556927 444.031842 
L 231.560985 444.023744 
L 231.946517 443.753151 
L 232.072321 443.68394 
L 232.206243 443.565474 
L 233.042237 443.054347 
L 233.346603 442.86451 
L 233.46835 442.785152 
L 234.982067 441.707426 
L 235.136279 441.536571 
L 235.566451 441.291792 
L 235.793711 441.143417 
L 235.927633 441.06053 
L 236.065612 440.986658 
L 236.410561 440.754924 
L 236.564774 440.644852 
L 238.752156 439.086042 
L 238.87796 439.008511 
L 239.356831 438.709893 
L 239.360889 438.714698 
L 240.119776 438.204068 
L 240.172533 438.200218 
L 240.196883 438.156427 
L 240.217174 438.154574 
L 240.347037 438.073641 
L 240.355153 438.084039 
L 240.566181 437.928104 
L 241.515805 437.130412 
L 241.64161 437.038943 
L 241.954093 436.720794 
L 242.116422 436.585079 
L 242.311217 436.45545 
L 242.684573 436.1984 
L 242.879368 436.026339 
L 242.891542 436.037849 
L 244.194232 435.184708 
L 244.328153 435.021891 
L 245.147914 434.537763 
L 245.488805 434.220356 
L 245.898685 433.905178 
L 246.056956 433.772955 
L 246.251751 433.620608 
L 246.38973 433.48334 
L 246.625107 433.22656 
L 246.750912 433.106829 
L 246.970056 432.991154 
L 247.785759 432.413183 
L 247.789817 432.423026 
L 247.814166 432.39242 
L 247.887214 432.374432 
L 249.603842 431.014443 
L 249.652541 430.968305 
L 249.656599 430.933868 
L 249.672832 430.929328 
L 249.822986 430.860931 
L 250.062421 430.645546 
L 250.192284 430.5302 
L 250.269391 430.445307 
L 250.581874 430.123384 
L 250.671155 430.094412 
L 250.687388 430.080499 
L 251.141909 429.709334 
L 251.267713 429.638081 
L 251.474683 429.483916 
L 251.588313 429.425962 
L 251.941378 429.109234 
L 252.095591 428.976983 
L 252.115882 429.003861 
L 252.156464 429.010695 
L 252.217337 428.965657 
L 252.343142 428.865514 
L 252.509529 428.68275 
L 252.834187 428.430565 
L 253.081739 428.245804 
L 253.085797 428.249165 
L 253.126379 428.206693 
L 253.175078 428.190331 
L 253.313057 428.049146 
L 253.5809 427.835125 
L 254.469651 427.240379 
L 254.587339 427.167572 
L 254.761843 427.005737 
L 254.871415 426.900058 
L 255.098675 426.774447 
L 255.43145 426.554631 
L 255.638419 426.340799 
L 255.849446 426.18596 
L 255.999601 426.11513 
L 256.157871 425.91017 
L 256.811245 425.400242 
L 256.924875 425.351294 
L 257.326639 425.06476 
L 257.480852 424.944741 
L 257.48491 424.946414 
L 257.582307 424.900734 
L 257.586366 424.876375 
L 258.069294 424.499182 
L 258.308729 424.343599 
L 258.706435 423.949736 
L 258.710493 423.955956 
L 259.664176 423.183788 
L 259.871145 422.947606 
L 261.315872 421.738912 
L 261.453852 421.64564 
L 261.547191 421.585311 
L 261.705461 421.402462 
L 261.835325 421.317809 
L 262.058527 421.161473 
L 262.651027 420.675582 
L 262.760599 420.525135 
L 262.898579 420.429715 
L 262.768716 420.534174 
L 262.906695 420.433234 
L 263.17048 420.232397 
L 263.324692 420.087115 
L 263.685874 419.765557 
L 263.83197 419.609139 
L 263.937484 419.502283 
L 264.712604 418.927163 
L 264.757245 418.932078 
L 264.805943 418.864074 
L 264.935806 418.791479 
L 265.207707 418.516871 
L 265.325396 418.375588 
L 265.581064 418.123258 
L 265.747451 417.922337 
L 265.824557 417.88041 
L 265.836732 417.858779 
L 266.968976 416.948717 
L 266.973034 416.955899 
L 267.046082 416.870061 
L 267.05014 416.869883 
L 267.334216 416.576905 
L 267.460021 416.419555 
L 267.468137 416.421953 
L 267.66699 416.251073 
L 268.007881 416.026367 
L 268.105278 415.936385 
L 268.32848 415.691251 
L 268.474576 415.609743 
L 268.612556 415.484989 
L 268.742419 415.376204 
L 268.953447 415.255936 
L 268.957505 415.259265 
L 268.977796 415.263736 
L 269.01432 415.178861 
L 269.018378 415.178627 
L 269.132008 415.082844 
L 269.156358 415.091316 
L 269.213173 415.108472 
L 269.19694 415.070175 
L 269.257813 415.063207 
L 269.432317 414.907868 
L 270.036992 414.417642 
L 270.170913 414.268817 
L 270.584852 413.86564 
L 270.58891 413.877053 
L 270.674133 413.792771 
L 270.860811 413.659637 
L 271.02314 413.449849 
L 271.911891 412.729624 
L 272.062045 412.600375 
L 272.228432 412.504795 
L 272.285247 412.485633 
L 272.317713 412.438269 
L 272.459751 412.337975 
L 272.979203 411.762985 
L 273.583878 411.22695 
L 273.774615 410.987968 
L 273.912594 410.85871 
L 274.249427 410.495934 
L 274.253485 410.512561 
L 274.330591 410.420713 
L 274.342766 410.422266 
L 274.728297 409.99737 
L 274.821636 409.911663 
L 274.959616 409.708048 
L 274.967732 409.710415 
L 275.320798 409.33283 
L 275.982288 408.737745 
L 276.063452 408.664037 
L 276.197374 408.547135 
L 276.86698 407.9287 
L 277.540645 407.187746 
L 277.686741 407.062353 
L 277.828779 406.953723 
L 277.832837 406.959262 
L 277.946467 406.905737 
L 278.088505 406.795473 
L 278.173728 406.71482 
L 283.051711 402.052866 
L 283.201865 401.878323 
L 283.205924 401.895079 
L 283.477825 401.614417 
L 283.481883 401.621194 
L 283.542756 401.520219 
L 283.668561 401.464193 
L 284.139315 400.895105 
L 284.244829 400.79001 
L 284.394983 400.615794 
L 284.537021 400.515187 
L 284.723699 400.278086 
L 284.983425 400.030517 
L 285.137638 399.88404 
L 285.202569 399.843795 
L 285.218802 399.804544 
L 286.13596 398.927797 
L 286.229299 398.813861 
L 286.476851 398.583727 
L 286.57019 398.514289 
L 286.712228 398.409874 
L 286.736577 398.414163 
L 286.793392 398.358134 
L 286.809625 398.358005 
L 291.837763 393.738185 
L 291.991975 393.571116 
L 292.25576 393.414785 
L 292.259818 393.42085 
L 292.584476 393.216589 
L 292.783329 393.00853 
L 292.896959 392.903857 
L 293.136394 392.600819 
L 293.294665 392.456938 
L 293.440761 392.267804 
L 293.570624 392.169947 
L 293.765418 392.008742 
L 293.879049 391.86008 
L 293.887165 391.861555 
L 294.037319 391.710693 
L 294.232114 391.411432 
L 294.248347 391.421505 
L 294.276754 391.440626 
L 294.341686 391.362252 
L 295.372474 390.641428 
L 295.514512 390.474591 
L 295.603793 390.390798 
L 295.810762 390.152078 
L 295.9528 390.029829 
L 296.435729 389.547835 
L 296.520951 389.457432 
L 296.991705 388.952905 
L 297.154034 388.806503 
L 297.344771 388.616215 
L 297.466517 388.474509 
L 297.632904 388.292327 
L 297.701894 388.24376 
L 297.718127 388.220363 
L 298.294395 387.624311 
L 298.50948 387.471856 
L 299.511861 386.47192 
L 299.726947 386.301747 
L 299.9258 386.032352 
L 300.071896 385.884898 
L 300.266691 385.65127 
L 300.270749 385.653867 
L 300.713095 385.185189 
L 300.903832 385.046636 
L 301.122976 384.789903 
L 301.301537 384.681448 
L 301.427342 384.609777 
L 301.496332 384.551714 
L 301.50039 384.527739 
L 301.654603 384.421361 
L 301.715476 384.3268 
L 301.877805 384.162144 
L 301.910271 384.120519 
L 301.954911 384.090354 
L 302.222754 383.833717 
L 302.267394 383.810256 
L 302.29986 383.763068 
L 302.458131 383.498684 
L 302.656984 383.337963 
L 302.823371 383.223005 
L 302.96135 383.03557 
L 303.054689 382.888395 
L 303.208902 382.715739 
L 303.383405 382.550355 
L 303.561967 382.270618 
L 303.744587 382.112417 
L 303.935324 381.9323 
L 304.065187 381.761259 
L 304.162584 381.638368 
L 304.312738 381.433946 
L 304.324913 381.389949 
L 304.406078 381.347386 
L 304.584639 381.208997 
L 304.714502 381.11338 
L 304.848424 380.979982 
L 304.953938 380.852791 
L 305.185256 380.581185 
L 305.347585 380.394223 
L 305.351643 380.399639 
L 305.457157 380.28929 
L 305.65601 380.106687 
L 305.789931 380.027385 
L 305.90762 379.915847 
L 306.078065 379.669801 
L 306.114589 379.619785 
L 306.126764 379.572507 
L 306.804487 378.841799 
L 307.084504 378.605271 
L 307.222484 378.411451 
L 307.327998 378.296288 
L 307.973255 377.661957 
L 308.127467 377.475405 
L 308.131526 377.482933 
L 308.703735 376.910351 
L 308.866064 376.743864 
L 308.991869 376.696274 
L 309.073033 376.579983 
L 309.344934 376.296466 
L 309.405808 376.185549 
L 309.551904 376.099113 
L 309.564078 376.111448 
L 309.62901 376.031609 
L 309.637126 376.030083 
L 309.693941 375.92157 
L 310.10788 375.556502 
L 310.124113 375.573397 
L 310.197161 375.478729 
L 310.355432 375.383318 
L 310.497469 375.264899 
L 310.639507 375.145164 
L 310.858651 374.937766 
L 310.887059 374.95632 
L 310.931699 374.880624 
L 311.061562 374.767826 
L 313.991599 371.401843 
L 314.186394 371.26183 
L 314.316257 371.098476 
L 314.385246 371.016953 
L 314.51511 370.867504 
L 314.527284 370.878974 
L 314.888466 370.43467 
L 315.103552 370.109208 
L 315.241531 369.946331 
L 317.566893 367.560966 
L 317.570951 367.591702 
L 317.66429 367.485639 
L 317.826619 367.277914 
L 317.830677 367.281508 
L 317.867201 367.173981 
L 317.871259 367.172639 
L 317.997064 367.052983 
L 318.130986 366.929402 
L 319.12525 365.916861 
L 319.133367 365.922554 
L 319.169891 365.870291 
L 319.210473 365.847641 
L 319.389035 365.505423 
L 319.729925 365.113954 
L 319.892254 364.891012 
L 320.277785 364.491502 
L 320.28996 364.500115 
L 320.294018 364.511071 
L 320.383299 364.439342 
L 320.728248 364.122696 
L 320.931159 363.876943 
L 320.935217 363.882637 
L 320.95145 363.82648 
L 321.004207 363.790125 
L 321.892958 362.843158 
L 322.026879 362.701596 
L 322.156742 362.594891 
L 322.749243 361.861658 
L 322.753301 361.865363 
L 322.757359 361.899295 
L 322.854757 361.789882 
L 322.944037 361.658632 
L 324.072223 360.374756 
L 324.218319 360.146872 
L 324.340066 360.043989 
L 324.575443 359.725574 
L 324.664724 359.627197 
L 326.097276 357.761227 
L 326.178441 357.654078 
L 326.336711 357.525419 
L 326.543681 357.289965 
L 326.823698 356.867666 
L 327.095599 356.614691 
L 327.266044 356.428086 
L 327.335034 356.320199 
L 327.533887 356.005351 
L 329.449368 353.865289 
L 329.611697 353.628969 
L 329.619813 353.634392 
L 329.62793 353.648337 
L 329.700978 353.522829 
L 329.843016 353.317912 
L 329.932296 353.210328 
L 330.070276 353.040713 
L 331.608342 351.402156 
L 331.689507 351.322673 
L 332.131853 350.714478 
L 332.135911 350.718848 
L 332.144028 350.722581 
L 332.192726 350.631675 
L 332.208959 350.635692 
L 332.468685 350.393407 
L 332.472744 350.408119 
L 332.566083 350.303417 
L 332.842042 349.953449 
L 332.955672 349.83583 
L 333.138292 349.57786 
L 334.623602 347.689613 
L 334.635776 347.711488 
L 334.639834 347.721748 
L 334.725057 347.650822 
L 334.729115 347.651242 
L 334.798105 347.592392 
L 334.737232 347.627383 
L 334.806222 347.575384 
L 338.069032 343.73973 
L 338.219187 343.496689 
L 338.304409 343.385013 
L 338.426156 343.234072 
L 338.535728 343.145139 
L 338.702115 342.848035 
L 338.706173 342.859988 
L 338.799512 342.791568 
L 339.067355 342.408395 
L 339.120112 342.375556 
L 339.132287 342.321904 
L 339.270266 342.245703 
L 339.708554 341.770475 
L 339.846534 341.582024 
L 339.980455 341.462315 
L 340.183366 341.229443 
L 341.388658 339.922886 
L 341.400833 339.943207 
L 341.502288 339.832378 
L 341.871587 339.369219 
L 341.968984 339.25253 
L 342.106964 339.073813 
L 342.419447 338.684543 
L 342.553368 338.490511 
L 342.703522 338.326303 
L 342.886142 338.100046 
L 342.890201 338.104151 
L 346.708988 333.119936 
L 346.713046 333.127106 
L 346.790152 333.043421 
L 346.79421 333.053614 
L 347.005238 332.834709 
L 349.841936 329.281675 
L 349.983973 329.059591 
L 349.988032 329.06303 
L 350.000206 329.067222 
L 350.052963 328.970358 
L 350.057021 328.967979 
L 350.742861 328.159383 
L 350.746919 328.170257 
L 350.775327 328.16041 
L 350.815909 328.081238 
L 350.909248 327.855946 
L 351.059402 327.499487 
L 351.205498 327.290103 
L 351.404351 327.107999 
L 351.469283 326.998988 
L 351.785824 326.605598 
L 351.858872 326.498864 
L 351.988735 326.337446 
L 353.563325 324.265787 
L 353.705363 324.062079 
L 354.050312 323.602425 
L 354.228874 323.372678 
L 354.37497 323.214673 
L 354.581939 322.966998 
L 354.837607 322.539957 
L 355.016169 322.274059 
L 355.020227 322.287661 
L 355.328652 321.973058 
L 355.47069 321.792894 
L 355.527505 321.724732 
L 355.535622 321.700276 
L 355.624902 321.57701 
L 356.52177 320.37005 
L 356.525828 320.37821 
L 356.602934 320.299422 
L 356.606992 320.299261 
L 356.911359 320.050617 
L 357.049338 319.902393 
L 357.2279 319.717643 
L 357.373996 319.549551 
L 357.706771 319.171484 
L 357.759527 319.139693 
L 357.783877 319.099775 
L 357.994904 318.710243 
L 358.084185 318.637014 
L 358.205932 318.461517 
L 358.287096 318.338072 
L 358.457542 318.116942 
L 358.834956 317.71101 
L 358.960761 317.559832 
L 359.151498 317.299489 
L 359.155556 317.300844 
L 359.175847 317.281186 
L 359.188022 317.203265 
L 359.19208 317.199591 
L 360.377081 315.499264 
L 360.458245 315.462661 
L 360.466362 315.444291 
L 360.612458 315.258855 
L 360.616516 315.266494 
L 360.681448 315.154493 
L 360.750437 315.09945 
L 360.754496 315.069078 
L 360.941174 314.894322 
L 361.083212 314.707391 
L 361.359171 314.31535 
L 361.444393 314.227996 
L 361.639188 313.924535 
L 361.647304 313.938132 
L 361.716294 313.7953 
L 361.86239 313.57382 
L 362.00037 313.426536 
L 362.122116 313.226445 
L 362.146466 313.236842 
L 362.560405 312.641581 
L 362.568521 312.647729 
L 362.576637 312.655236 
L 362.629394 312.545497 
L 363.002751 312.10432 
L 363.014925 312.081723 
L 363.075799 312.023279 
L 363.64395 311.267523 
L 363.660183 311.268559 
L 363.708881 311.184143 
L 363.887443 310.987521 
L 364.187752 310.799726 
L 364.463711 310.42664 
L 364.597632 310.304525 
L 364.914174 309.799558 
L 364.930406 309.74171 
L 364.975047 309.705254 
L 365.096794 309.592179 
L 365.563489 308.927311 
L 365.567547 308.94181 
L 365.69741 308.905459 
L 365.705527 308.870086 
L 365.717702 308.876179 
L 365.859739 308.724677 
L 365.908438 308.672764 
L 366.030185 308.508934 
L 366.196572 308.354678 
L 366.261503 308.275479 
L 366.407599 308.066426 
L 366.517171 307.976995 
L 366.651093 307.814133 
L 366.829654 307.546119 
L 367.052857 307.356049 
L 367.178662 307.213193 
L 367.190836 307.221111 
L 367.458679 306.965034 
L 367.523611 306.889321 
L 367.681881 306.544969 
L 367.758987 306.406173 
L 367.974073 306.122318 
L 369.037327 304.766803 
L 369.199656 304.552449 
L 369.366043 304.363664 
L 369.544605 304.101332 
L 373.075259 299.654787 
L 373.213238 299.406822 
L 373.282228 299.292287 
L 373.416149 299.036936 
L 373.537896 298.914584 
L 373.696167 298.689627 
L 374.341424 297.621638 
L 374.402297 297.52146 
L 374.536219 297.311533 
L 374.702606 297.0545 
L 374.954216 296.614751 
L 374.958274 296.624113 
L 375.031322 296.523594 
L 375.209884 296.134907 
L 375.218 296.148372 
L 375.234233 296.106446 
L 375.282932 296.06058 
L 375.473668 295.703708 
L 375.485843 295.719388 
L 375.595415 295.607238 
L 375.830792 295.268354 
L 375.851083 295.284289 
L 375.891665 295.166916 
L 376.041819 295.030509 
L 376.045878 295.043817 
L 376.06211 295.034996 
L 376.078343 294.97272 
L 376.094576 294.959232 
L 376.24473 294.685137 
L 376.760125 293.850883 
L 376.889988 293.63273 
L 376.954919 293.520246 
L 377.105074 293.163536 
L 377.11319 293.174595 
L 377.170005 293.083428 
L 377.190296 293.082085 
L 377.847728 292.295083 
L 377.859903 292.311586 
L 377.932951 292.211309 
L 378.074989 291.991107 
L 378.245434 291.739077 
L 378.363123 291.481667 
L 378.367181 291.483269 
L 378.57415 291.081362 
L 378.630965 290.980006 
L 378.773003 290.74863 
L 378.858226 290.605123 
L 379.130127 290.222757 
L 379.406086 289.875337 
L 379.629288 289.462005 
L 379.657695 289.460254 
L 379.690161 289.368828 
L 379.706394 289.388078 
L 379.909305 289.113678 
L 380.026994 289.011139 
L 380.152799 288.853469 
L 380.197439 288.738215 
L 382.445694 285.789422 
L 382.819051 285.219391 
L 383.078777 284.884274 
L 383.318212 284.561736 
L 383.399377 284.397403 
L 383.602288 284.072293 
L 383.606346 284.077685 
L 383.655045 283.969657 
L 383.805199 283.784844 
L 383.809257 283.793547 
L 383.878247 283.679886 
L 384.288127 283.246667 
L 384.422049 283.03619 
L 384.596552 282.749164 
L 384.620901 282.743941 
L 384.6696 282.675208 
L 384.892802 282.345131 
L 385.067306 282.172249 
L 385.197169 281.926975 
L 385.21746 281.945939 
L 386.004755 280.817016 
L 386.150851 280.563156 
L 386.15491 280.576164 
L 386.252307 280.54265 
L 386.175201 280.544014 
L 386.256365 280.522012 
L 386.503917 280.135859 
L 386.512033 280.140872 
L 386.568848 280.091994 
L 386.532324 280.111309 
L 386.572906 280.07743 
L 386.686537 279.848275 
L 386.70277 279.869687 
L 386.913797 279.609993 
L 387.051777 279.285743 
L 387.06801 279.289445 
L 387.218164 279.021797 
L 387.43325 278.750142 
L 387.498181 278.649058 
L 387.652394 278.438536 
L 387.806606 278.197183 
L 387.867479 278.093197 
L 388.037925 277.8238 
L 388.074449 277.819862 
L 388.110973 277.740119 
L 388.524911 277.108573 
L 388.533028 277.150628 
L 388.634483 277.000255 
L 388.780579 276.708054 
L 388.983491 276.495701 
L 389.348731 275.97426 
L 389.478594 275.675196 
L 389.949347 275.007697 
L 389.961522 275.019465 
L 389.969639 275.060306 
L 390.042687 274.9478 
L 390.062978 274.946157 
L 390.257772 274.672476 
L 390.574314 274.140283 
L 390.578372 274.144841 
L 390.675769 274.047823 
L 390.83404 273.778863 
L 391.097824 273.33291 
L 392.717055 270.645884 
L 392.928083 270.177425 
L 393.066062 270.03635 
L 393.942638 268.586261 
L 393.950755 268.606867 
L 394.07656 268.472543 
L 394.340344 268.097434 
L 394.535139 267.718533 
L 394.620361 267.62164 
L 394.78269 267.45103 
L 394.786749 267.453025 
L 394.794865 267.457101 
L 394.855738 267.36982 
L 395.0343 267.019664 
L 395.054591 267.025101 
L 395.160105 266.881341 
L 395.326492 266.564584 
L 395.415773 266.488497 
L 395.975808 265.612573 
L 396.012332 265.487275 
L 396.357281 265.028324 
L 396.38163 265.079033 
L 396.499318 264.985039 
L 396.706288 264.694085 
L 397.030946 264.299651 
L 397.15675 264.147022 
L 397.160809 264.148948 
L 397.205449 264.05122 
L 397.351545 263.775507 
L 397.47735 263.656797 
L 397.627504 263.330956 
L 397.765484 263.193446 
L 397.866939 263.087908 
L 398.268703 262.416918 
L 398.763807 261.700848 
L 398.840913 261.593484 
L 399.0073 261.346122 
L 399.039766 261.350428 
L 399.084406 261.291489 
L 399.100639 261.284612 
L 399.198036 261.113923 
L 399.916342 260.11621 
L 399.932575 260.126496 
L 400.001564 260.064121 
L 400.127369 259.793546 
L 402.046908 256.700314 
L 402.055025 256.70631 
L 402.11184 256.609332 
L 402.24982 256.331335 
L 402.253878 256.346721 
L 402.322868 256.242935 
L 402.497371 256.06128 
L 402.748981 255.708025 
L 403.223793 254.897623 
L 403.455112 254.557599 
L 403.45917 254.567276 
L 403.520043 254.444293 
L 404.867373 252.188428 
L 405.037818 251.903669 
L 405.143332 251.779893 
L 405.403058 251.313446 
L 405.407117 251.318894 
L 405.472048 251.225273 
L 406.795029 249.326055 
L 406.799087 249.329927 
L 406.941125 248.977781 
L 407.314481 248.411143 
L 407.456519 248.174486 
L 407.460577 248.182885 
L 407.464635 248.19269 
L 407.529567 248.078628 
L 407.537683 248.079391 
L 407.805526 247.687394 
L 407.947564 247.475486 
L 408.410201 246.701939 
L 408.544123 246.46224 
L 408.621229 246.35557 
L 409.505921 244.866387 
L 409.66825 244.634823 
L 409.749415 244.487302 
L 409.936093 244.253416 
L 409.940151 244.25772 
L 409.9645 244.170687 
L 409.992908 244.161213 
L 410.516419 243.312366 
L 410.524535 243.326462 
L 410.585408 243.159512 
L 410.670631 243.037994 
L 411.08457 242.552542 
L 411.255015 242.239232 
L 411.259073 242.252857 
L 411.328063 242.142584 
L 411.344296 242.151796 
L 412.013903 241.039357 
L 412.143766 240.76071 
L 412.147824 240.765545 
L 412.330444 240.488338 
L 412.622636 240.196852 
L 412.740324 239.9715 
L 412.748441 239.972402 
L 412.780907 239.927127 
L 412.79714 239.881228 
L 413.073099 239.378437 
L 413.081215 239.381556 
L 413.154263 239.32198 
L 413.125856 239.323519 
L 413.16238 239.305024 
L 413.194845 239.280468 
L 413.223253 239.212485 
L 413.312534 239.081751 
L 413.462688 238.862035 
L 413.543853 238.738965 
L 413.681832 238.487922 
L 413.689949 238.494801 
L 413.791404 238.381034 
L 413.986199 238.148408 
L 414.043014 238.055514 
L 414.213459 237.675885 
L 414.8506 236.734949 
L 415.012929 236.522164 
L 415.483683 235.728834 
L 415.621662 235.504846 
L 415.646012 235.384293 
L 415.658186 235.402035 
L 415.865156 235.003385 
L 415.926029 235.041522 
L 415.950378 234.928917 
L 416.802605 233.648943 
L 416.932468 233.446592 
L 417.06639 233.135247 
L 417.228718 232.834512 
L 417.553376 232.194268 
L 417.610191 232.08859 
L 417.711647 231.918977 
L 417.975431 231.242716 
L 417.987606 231.259547 
L 418.511117 230.356888 
L 418.677504 230.048297 
L 418.819542 229.930899 
L 418.961579 229.696728 
L 418.965638 229.720091 
L 419.046802 229.552933 
L 419.095501 229.447431 
L 419.322761 229.090807 
L 419.347111 229.102019 
L 419.420159 228.999241 
L 419.574371 228.804971 
L 419.578429 228.817853 
L 419.639303 228.653558 
L 419.720467 228.541366 
L 420.14658 227.795682 
L 420.21557 227.69281 
L 420.426598 227.411749 
L 420.434714 227.415681 
L 420.442831 227.418825 
L 420.483413 227.304838 
L 420.487471 227.304739 
L 420.528053 227.171757 
L 420.824304 226.548355 
L 420.929817 226.433176 
L 421.096204 226.176542 
L 421.347814 225.760163 
L 421.49391 225.433956 
L 421.546667 225.33328 
L 421.692763 225.034129 
L 421.717112 225.046938 
L 421.773928 224.956938 
L 421.855092 224.834928 
L 421.993072 224.550425 
L 421.99713 224.551815 
L 424.387423 220.596345 
L 424.525402 220.384731 
L 424.594392 220.273677 
L 424.829769 219.846494 
L 424.910933 219.736869 
L 425.207184 219.169167 
L 425.422269 218.930184 
L 425.560249 218.547064 
L 426.071585 217.613893 
L 426.201448 217.274276 
L 426.205506 217.27493 
L 426.209565 217.289213 
L 426.262322 217.153846 
L 426.371894 216.885844 
L 426.384068 216.91975 
L 426.453058 216.78083 
L 426.574805 216.425248 
L 426.578863 216.429535 
L 427.536603 214.627791 
L 428.64044 212.753276 
L 428.656673 212.775152 
L 428.729721 212.671573 
L 428.883933 212.438977 
L 429.760509 210.981456 
L 429.768626 210.996834 
L 430.150099 210.420335 
L 430.377359 209.895756 
L 430.385475 209.926349 
L 430.523455 209.69212 
L 430.64926 209.571699 
L 431.006384 208.786036 
L 431.590768 208.037418 
L 431.765271 207.765862 
L 431.769329 207.769315 
L 431.846436 207.649675 
L 432.000648 207.504271 
L 432.061521 207.426773 
L 432.162977 207.240896 
L 432.195443 207.246991 
L 433.567122 205.245602 
L 433.57118 205.255036 
L 433.575238 205.277495 
L 433.644228 205.136867 
L 433.660461 205.143761 
L 433.778149 204.945668 
L 433.912071 204.746412 
L 434.066283 204.513167 
L 434.127157 204.389704 
L 434.139331 204.398189 
L 434.362533 204.022852 
L 434.898219 203.018619 
L 435.003733 202.912474 
L 435.133596 202.718176 
L 435.259401 202.562906 
L 435.393322 202.368933 
L 435.454195 202.264406 
L 435.791028 201.835872 
L 435.94524 201.533888 
L 435.957415 201.580431 
L 436.411936 201.046823 
L 436.590498 200.7003 
L 436.663546 200.571127 
L 436.955738 200.086929 
L 437.032844 199.983818 
L 437.256046 199.553714 
L 437.365618 199.352084 
L 437.377793 199.380223 
L 437.503598 199.129569 
L 437.584762 199.007572 
L 437.706509 198.822505 
L 438.087982 198.084883 
L 438.09204 198.093049 
L 438.185379 197.971412 
L 438.339591 197.613289 
L 438.672366 197.197141 
L 438.798171 196.918801 
L 438.960499 196.661392 
L 439.577349 195.866756 
L 439.638223 195.769265 
L 439.792435 195.612925 
L 439.91824 195.458161 
L 440.315946 194.724502 
L 440.486391 194.505488 
L 440.7867 193.938952 
L 440.790758 193.978071 
L 440.880039 193.835517 
L 440.884097 193.839144 
L 441.444132 192.838285 
L 441.565878 192.650964 
L 441.569936 192.656945 
L 441.598344 192.519911 
L 441.60646 192.516674 
L 441.780964 192.162637 
L 441.797197 192.187836 
L 441.866187 192.035447 
L 443.294681 189.688775 
L 443.420486 189.3388 
L 443.789784 188.804026 
L 443.793842 188.806577 
L 443.814133 188.814929 
L 443.846599 188.741989 
L 443.992695 188.364701 
L 445.023484 186.816493 
L 445.0316 186.819913 
L 445.181754 186.559347 
L 445.392782 186.248288 
L 445.57946 185.960298 
L 445.583518 185.966058 
L 445.672799 185.824032 
L 446.476327 184.618645 
L 446.610249 184.390801 
L 446.918674 183.828971 
L 447.117526 183.536878 
L 447.328554 183.131597 
L 447.470592 182.862469 
L 447.673503 182.495575 
L 447.787133 182.296768 
L 447.912938 182.091343 
L 447.916996 182.099522 
L 447.965695 181.97413 
L 448.087442 181.732774 
L 448.233538 181.584353 
L 448.363401 181.415607 
L 448.489206 181.094695 
L 448.578487 181.070753 
L 448.562254 181.000643 
L 448.586603 181.050478 
L 448.899086 180.530646 
L 448.947785 180.423359 
L 449.487528 179.668896 
L 449.491587 179.70098 
L 449.564635 179.408059 
L 449.576809 179.412848 
L 449.601159 179.277885 
L 449.605217 179.275323 
L 450.773985 177.434191 
L 451.009362 176.920501 
L 451.098643 176.797906 
L 451.293437 176.453688 
L 451.67491 175.896966 
L 451.808832 175.644969 
L 452.243061 174.824683 
L 452.340459 174.677531 
L 452.47438 174.558198 
L 452.486555 174.570596 
L 452.490613 174.58431 
L 452.571777 174.479836 
L 452.70164 174.262995 
L 453.850117 172.250769 
L 453.862292 172.261504 
L 453.86635 172.267185 
L 453.902874 172.198888 
L 453.943457 172.184824 
L 454.154484 171.993801 
L 454.337104 171.589568 
L 454.422327 171.387145 
L 454.564365 171.114617 
L 454.775392 170.660766 
L 454.824091 170.532359 
L 454.941779 170.371942 
L 454.958012 170.38967 
L 455.205564 170.034688 
L 455.363834 169.668504 
L 455.367893 169.670845 
L 455.554571 169.349772 
L 455.619502 169.340574 
L 455.623561 169.285361 
L 455.643852 169.284511 
L 455.927927 168.791277 
L 456.074023 168.5263 
L 456.08214 168.535058 
L 456.203886 168.419343 
L 456.617825 167.808729 
L 456.776096 167.508227 
L 456.780154 167.517724 
L 456.828853 167.386234 
L 456.958716 167.072092 
L 456.962774 167.077187 
L 457.076404 166.90744 
L 457.202209 166.676642 
L 457.218442 166.716172 
L 457.238733 166.73014 
L 457.295548 166.625753 
L 457.319898 166.662402 
L 457.486285 166.38119 
L 457.798768 165.936966 
L 458.107193 165.408458 
L 458.322278 164.743275 
L 458.545481 164.322824 
L 458.691577 164.115673 
L 459.726423 161.797487 
L 459.787297 161.646931 
L 459.941509 161.340761 
L 460.014557 161.182112 
L 460.193119 160.893607 
L 460.241818 160.751491 
L 460.428496 160.422657 
L 460.992589 159.692493 
L 461.276664 158.997021 
L 463.857694 154.255087 
L 464.097129 153.726446 
L 464.137711 153.615775 
L 464.312215 153.292391 
L 464.316273 153.294718 
L 465.046753 151.834883 
L 465.127917 151.913287 
L 465.156325 151.826321 
L 465.878689 150.643984 
L 465.890863 150.686612 
L 465.967969 150.531179 
L 466.016668 150.400654 
L 466.162764 149.965238 
L 466.296686 149.69582 
L 466.30886 149.706087 
L 466.365675 149.597388 
L 466.406258 149.483418 
L 466.670042 148.931525 
L 466.6741 148.934855 
L 466.824254 148.778413 
L 466.848604 148.81256 
L 466.962234 148.639769 
L 467.043398 148.555058 
L 467.213844 148.189914 
L 467.217902 148.19863 
L 467.266601 148.049652 
L 467.432988 147.695173 
L 467.437046 147.702006 
L 468.216225 146.21389 
L 468.337971 145.905134 
L 468.350146 145.934446 
L 468.423194 145.813205 
L 468.565232 145.487676 
L 468.800609 145.143373 
L 471.142203 140.972503 
L 471.15032 141.020397 
L 471.154378 141.024331 
L 471.186844 140.911783 
L 471.199018 140.924981 
L 471.369464 140.316731 
L 471.37758 140.321122 
L 471.458744 140.193257 
L 471.909207 139.122564 
L 471.917324 139.132856 
L 471.966022 138.964195 
L 471.97008 138.974529 
L 472.408368 138.278639 
L 472.412427 138.284586 
L 472.416485 138.314663 
L 472.501708 138.154169 
L 472.696502 137.686245 
L 472.704619 137.697609 
L 472.777667 137.596556 
L 472.923763 137.231711 
L 472.927821 137.257499 
L 472.97652 137.086813 
L 473.008985 137.082693 
L 473.297119 136.65583 
L 473.885561 135.787631 
L 474.056007 135.375278 
L 474.153404 135.211449 
L 474.506469 134.385197 
L 474.636333 134.213808 
L 475.09897 133.077993 
L 475.103028 133.084652 
L 475.135494 132.978866 
L 475.14361 132.976149 
L 475.277532 132.669998 
L 475.5332 132.331278 
L 475.991779 131.72302 
L 476.1257 131.551364 
L 476.26368 131.258569 
L 476.312378 131.138161 
L 476.470649 130.834014 
L 476.478766 130.836998 
L 476.511231 130.745259 
L 476.523406 130.74154 
L 476.665444 130.507416 
L 476.67356 130.509413 
L 476.706026 130.431455 
L 476.718201 130.418247 
L 476.876471 130.276914 
L 476.758783 130.463545 
L 476.88053 130.279834 
L 476.929228 130.155483 
L 477.091557 129.799788 
L 477.160547 129.733793 
L 477.302585 129.471211 
L 477.3594 129.38049 
L 477.513612 128.868274 
L 477.70029 128.596335 
L 477.834212 128.329525 
L 477.862619 128.325698 
L 477.891027 128.262271 
L 478.037123 127.876402 
L 478.08988 127.761445 
L 478.260325 127.495969 
L 481.571835 121.271598 
L 481.584009 121.288687 
L 481.600242 121.307529 
L 481.67329 121.1763 
L 482.042588 120.613572 
L 482.294198 120.055781 
L 482.310431 120.077785 
L 482.367246 119.946525 
L 482.379421 119.95467 
L 482.424061 119.846893 
L 482.562041 119.512492 
L 482.639147 119.394265 
L 482.659438 119.431827 
L 482.854233 119.078345 
L 483.166716 118.491736 
L 483.235706 118.368678 
L 483.442675 117.965058 
L 483.600946 117.641219 
L 483.686168 117.533346 
L 483.811973 117.326046 
L 483.848497 117.348043 
L 483.937778 117.227861 
L 484.108224 116.971627 
L 484.363892 116.464539 
L 484.530279 116.046736 
L 484.631734 115.920156 
L 484.656084 115.949998 
L 485.938482 113.330928 
L 486.08052 113.001615 
L 486.474167 112.253931 
L 486.733894 111.752161 
L 486.746068 111.775879 
L 486.758243 111.771778 
L 486.778534 111.692136 
L 486.790709 111.690137 
L 487.001736 111.295924 
L 487.026086 111.238997 
L 487.034202 111.192156 
L 487.147832 110.98863 
L 487.411617 110.500125 
L 487.415675 110.519174 
L 487.496839 110.377811 
L 487.525247 110.373942 
L 487.58612 110.311259 
L 487.776857 109.934537 
L 487.894545 109.713387 
L 487.90672 109.714506 
L 488.004117 109.521816 
L 489.359563 107.084039 
L 489.428553 106.973811 
L 489.639581 106.343868 
L 489.793793 106.098139 
L 489.907423 105.751068 
L 489.919598 105.773469 
L 490.045403 105.508413 
L 490.053519 105.513972 
L 490.1428 105.299998 
L 490.366003 104.839411 
L 490.370061 104.883543 
L 490.426876 104.721495 
L 490.4634 104.721337 
L 490.512099 104.532707 
L 490.674427 104.112278 
L 490.848931 103.947532 
L 491.197938 103.23407 
L 491.210113 103.266974 
L 491.26287 103.208519 
L 491.230404 103.210795 
L 491.266928 103.1902 
L 491.437373 102.879694 
L 491.461723 102.922743 
L 491.530712 102.793127 
L 491.713332 102.234164 
L 491.721449 102.236239 
L 491.749856 102.141275 
L 491.753915 102.134671 
L 492.050165 101.45555 
L 492.171912 101.192358 
L 492.196261 101.214611 
L 492.24496 101.075889 
L 492.703539 100.054257 
L 492.719772 100.069613 
L 492.736004 100.11332 
L 492.813111 99.971303 
L 493.011964 99.670415 
L 493.097186 99.54694 
L 493.267632 99.256803 
L 493.27169 99.262978 
L 493.291981 99.175259 
L 493.332563 99.159067 
L 493.482717 98.805668 
L 493.616639 98.482317 
L 493.620697 98.492469 
L 493.649104 98.444737 
L 493.766793 98.154501 
L 493.835783 98.040841 
L 494.034636 97.436259 
L 494.038694 97.46176 
L 494.107684 97.249133 
L 494.1158 97.276196 
L 494.318711 96.904651 
L 494.322769 96.922578 
L 494.403934 96.79108 
L 494.610903 96.337187 
L 494.643369 96.208983 
L 495.406315 94.556269 
L 495.564585 94.333193 
L 495.686332 94.07781 
L 495.694449 94.103497 
L 495.921709 93.700513 
L 495.998815 93.547878 
L 496.161144 93.161396 
L 496.522326 92.61864 
L 496.526384 92.628998 
L 496.599432 92.520026 
L 496.834809 91.918506 
L 497.626162 90.245484 
L 497.638337 90.271165 
L 497.691094 90.093582 
L 497.695152 90.103227 
L 498.109091 89.28 
L 498.109091 89.28 
" style="fill:none;stroke:#4c72b0;stroke-linecap:round;stroke-width:1.5;"/>
   </g>
   <g id="line2d_14">
    <path clip-path="url(#pd513e3fa97)" d="M 376.366477 299.561372 
L 498.109091 95.219352 
L 498.109091 95.219352 
" style="fill:none;stroke:#dd8452;stroke-linecap:round;stroke-width:1.5;"/>
   </g>
   <g id="patch_3">
    <path d="M 72 512.64 
L 72 69.12 
" style="fill:none;stroke:#ffffff;stroke-linecap:square;stroke-linejoin:miter;stroke-width:1.25;"/>
   </g>
   <g id="patch_4">
    <path d="M 518.4 512.64 
L 518.4 69.12 
" style="fill:none;stroke:#ffffff;stroke-linecap:square;stroke-linejoin:miter;stroke-width:1.25;"/>
   </g>
   <g id="patch_5">
    <path d="M 72 512.64 
L 518.4 512.64 
" style="fill:none;stroke:#ffffff;stroke-linecap:square;stroke-linejoin:miter;stroke-width:1.25;"/>
   </g>
   <g id="patch_6">
    <path d="M 72 69.12 
L 518.4 69.12 
" style="fill:none;stroke:#ffffff;stroke-linecap:square;stroke-linejoin:miter;stroke-width:1.25;"/>
   </g>
   <g id="legend_1">
    <g id="patch_7">
     <path d="M 79.7 94.065938 
L 189.15 94.065938 
Q 191.35 94.065938 191.35 91.865938 
L 191.35 76.82 
Q 191.35 74.62 189.15 74.62 
L 79.7 74.62 
Q 77.5 74.62 77.5 76.82 
L 77.5 91.865938 
Q 77.5 94.065938 79.7 94.065938 
z
" style="fill:#eaeaf2;opacity:0.8;stroke:#cccccc;stroke-linejoin:miter;"/>
    </g>
    <g id="line2d_15">
     <path d="M 81.9 83.528281 
L 103.9 83.528281 
" style="fill:none;stroke:#dd8452;stroke-linecap:round;stroke-width:1.5;"/>
    </g>
    <g id="line2d_16"/>
    <g id="text_16">
     <!-- $D = 7554.866$ -->
     <g style="fill:#262626;" transform="translate(112.7 87.378281)scale(0.11 -0.11)">
      <defs>
       <path d="M 16.890625 72.90625 
L 38.09375 72.90625 
Q 54.984375 72.90625 63.59375 65.75 
Q 72.21875 58.59375 72.21875 44.484375 
Q 72.21875 35.15625 68.9375 26.53125 
Q 65.671875 17.921875 59.90625 12.015625 
Q 54.109375 5.953125 45.171875 2.96875 
Q 36.234375 0 24.03125 0 
L 2.6875 0 
z
M 25.203125 64.796875 
L 14.203125 8.109375 
L 27.09375 8.109375 
Q 43.65625 8.109375 52.734375 17.625 
Q 61.8125 27.15625 61.8125 44.484375 
Q 61.8125 54.984375 55.953125 59.890625 
Q 50.09375 64.796875 37.59375 64.796875 
z
" id="DejaVuSans-Oblique-68"/>
       <path d="M 10.59375 45.40625 
L 73.1875 45.40625 
L 73.1875 37.203125 
L 10.59375 37.203125 
z
M 10.59375 25.484375 
L 73.1875 25.484375 
L 73.1875 17.1875 
L 10.59375 17.1875 
z
" id="DejaVuSans-61"/>
       <path d="M 8.203125 72.90625 
L 55.078125 72.90625 
L 55.078125 68.703125 
L 28.609375 0 
L 18.3125 0 
L 43.21875 64.59375 
L 8.203125 64.59375 
z
" id="DejaVuSans-55"/>
      </defs>
      <use transform="translate(0 0.78125)" xlink:href="#DejaVuSans-Oblique-68"/>
      <use transform="translate(96.484375 0.78125)" xlink:href="#DejaVuSans-61"/>
      <use transform="translate(199.755859 0.78125)" xlink:href="#DejaVuSans-55"/>
      <use transform="translate(263.378906 0.78125)" xlink:href="#DejaVuSans-53"/>
      <use transform="translate(327.001953 0.78125)" xlink:href="#DejaVuSans-53"/>
      <use transform="translate(390.625 0.78125)" xlink:href="#DejaVuSans-52"/>
      <use transform="translate(454.248047 0.78125)" xlink:href="#DejaVuSans-46"/>
      <use transform="translate(483.410156 0.78125)" xlink:href="#DejaVuSans-56"/>
      <use transform="translate(547.033203 0.78125)" xlink:href="#DejaVuSans-54"/>
      <use transform="translate(610.65625 0.78125)" xlink:href="#DejaVuSans-54"/>
     </g>
    </g>
   </g>
  </g>
 </g>
 <defs>
  <clipPath id="pd513e3fa97">
   <rect height="443.52" width="446.4" x="72" y="69.12"/>
  </clipPath>
 </defs>
</svg>
